STARTFONT 2.1
FONT -TakWolf-Fusion Pixel 12px Monospaced ko-Regular-R-Normal-Sans Serif-12-120-75-75-M-118-ISO10646-1
SIZE 12 75 75
FONTBOUNDINGBOX 12 12 0 -2
COMMENT "Generated by fontforge, http://fontforge.sourceforge.net"
STARTPROPERTIES 22
FOUNDRY "TakWolf"
FAMILY_NAME "Fusion Pixel 12px Monospaced ko"
WEIGHT_NAME "Regular"
SLANT "R"
SETWIDTH_NAME "Normal"
ADD_STYLE_NAME "Sans Serif"
PIXEL_SIZE 12
POINT_SIZE 120
RESOLUTION_X 75
RESOLUTION_Y 75
SPACING "M"
AVERAGE_WIDTH 118
CHARSET_REGISTRY "ISO10646"
CHARSET_ENCODING "1"
DEFAULT_CHAR 65534
FONT_ASCENT 10
FONT_DESCENT 2
X_HEIGHT 6
CAP_HEIGHT 8
FONT_VERSION "2024.05.12"
COPYRIGHT "Copyright (c) 2022, TakWolf (https://takwolf.com), with Reserved Font Name 'Fusion Pixel'."
LICENSE "This Font Software is licensed under the SIL Open Font License, Version 1.1."
ENDPROPERTIES
CHARS 29232
STARTCHAR $0020
ENCODING 32
SWIDTH 500 0
DWIDTH 6 0
BBX 1 1 5 -2
BITMAP
00
ENDCHAR
STARTCHAR $0021
ENCODING 33
SWIDTH 500 0
DWIDTH 6 0
BBX 1 8 2 0
BITMAP
80
80
80
80
80
80
00
80
ENDCHAR
STARTCHAR $0022
ENCODING 34
SWIDTH 500 0
DWIDTH 6 0
BBX 3 3 1 5
BITMAP
A0
A0
A0
ENDCHAR
STARTCHAR $0023
ENCODING 35
SWIDTH 500 0
DWIDTH 6 0
BBX 5 8 0 0
BITMAP
50
50
F8
50
50
F8
50
50
ENDCHAR
STARTCHAR $0024
ENCODING 36
SWIDTH 500 0
DWIDTH 6 0
BBX 5 10 0 -1
BITMAP
20
70
A8
A0
60
30
28
A8
70
20
ENDCHAR
STARTCHAR $0025
ENCODING 37
SWIDTH 500 0
DWIDTH 6 0
BBX 5 8 0 0
BITMAP
48
A8
50
20
20
50
A8
90
ENDCHAR
STARTCHAR $0026
ENCODING 38
SWIDTH 500 0
DWIDTH 6 0
BBX 5 8 0 0
BITMAP
60
90
90
A0
48
A8
90
68
ENDCHAR
STARTCHAR $0027
ENCODING 39
SWIDTH 500 0
DWIDTH 6 0
BBX 1 3 2 5
BITMAP
80
80
80
ENDCHAR
STARTCHAR $0028
ENCODING 40
SWIDTH 500 0
DWIDTH 6 0
BBX 3 10 1 -1
BITMAP
20
40
40
80
80
80
80
40
40
20
ENDCHAR
STARTCHAR $0029
ENCODING 41
SWIDTH 500 0
DWIDTH 6 0
BBX 3 10 1 -1
BITMAP
80
40
40
20
20
20
20
40
40
80
ENDCHAR
STARTCHAR $002A
ENCODING 42
SWIDTH 500 0
DWIDTH 6 0
BBX 5 5 0 1
BITMAP
20
A8
70
A8
20
ENDCHAR
STARTCHAR $002B
ENCODING 43
SWIDTH 500 0
DWIDTH 6 0
BBX 5 5 0 1
BITMAP
20
20
F8
20
20
ENDCHAR
STARTCHAR $002C
ENCODING 44
SWIDTH 500 0
DWIDTH 6 0
BBX 2 3 1 -2
BITMAP
40
40
80
ENDCHAR
STARTCHAR $002D
ENCODING 45
SWIDTH 500 0
DWIDTH 6 0
BBX 5 1 0 3
BITMAP
F8
ENDCHAR
STARTCHAR $002E
ENCODING 46
SWIDTH 500 0
DWIDTH 6 0
BBX 1 1 2 0
BITMAP
80
ENDCHAR
STARTCHAR $002F
ENCODING 47
SWIDTH 500 0
DWIDTH 6 0
BBX 5 10 0 -1
BITMAP
08
08
10
10
20
20
40
40
80
80
ENDCHAR
STARTCHAR $0030
ENCODING 48
SWIDTH 500 0
DWIDTH 6 0
BBX 5 8 0 0
BITMAP
70
88
98
A8
A8
C8
88
70
ENDCHAR
STARTCHAR $0031
ENCODING 49
SWIDTH 500 0
DWIDTH 6 0
BBX 5 8 0 0
BITMAP
20
E0
20
20
20
20
20
F8
ENDCHAR
STARTCHAR $0032
ENCODING 50
SWIDTH 500 0
DWIDTH 6 0
BBX 5 8 0 0
BITMAP
70
88
08
10
20
40
80
F8
ENDCHAR
STARTCHAR $0033
ENCODING 51
SWIDTH 500 0
DWIDTH 6 0
BBX 5 8 0 0
BITMAP
70
88
08
30
08
08
88
70
ENDCHAR
STARTCHAR $0034
ENCODING 52
SWIDTH 500 0
DWIDTH 6 0
BBX 5 8 0 0
BITMAP
30
50
50
90
90
F8
10
10
ENDCHAR
STARTCHAR $0035
ENCODING 53
SWIDTH 500 0
DWIDTH 6 0
BBX 5 8 0 0
BITMAP
F8
80
80
F0
08
08
88
70
ENDCHAR
STARTCHAR $0036
ENCODING 54
SWIDTH 500 0
DWIDTH 6 0
BBX 5 8 0 0
BITMAP
70
88
80
F0
88
88
88
70
ENDCHAR
STARTCHAR $0037
ENCODING 55
SWIDTH 500 0
DWIDTH 6 0
BBX 5 8 0 0
BITMAP
F8
08
08
10
10
20
20
20
ENDCHAR
STARTCHAR $0038
ENCODING 56
SWIDTH 500 0
DWIDTH 6 0
BBX 5 8 0 0
BITMAP
70
88
88
70
88
88
88
70
ENDCHAR
STARTCHAR $0039
ENCODING 57
SWIDTH 500 0
DWIDTH 6 0
BBX 5 8 0 0
BITMAP
70
88
88
88
78
08
88
70
ENDCHAR
STARTCHAR $003A
ENCODING 58
SWIDTH 500 0
DWIDTH 6 0
BBX 1 6 2 0
BITMAP
80
00
00
00
00
80
ENDCHAR
STARTCHAR $003B
ENCODING 59
SWIDTH 500 0
DWIDTH 6 0
BBX 2 8 1 -2
BITMAP
40
00
00
00
00
40
40
80
ENDCHAR
STARTCHAR $003C
ENCODING 60
SWIDTH 500 0
DWIDTH 6 0
BBX 4 7 1 0
BITMAP
10
20
40
80
40
20
10
ENDCHAR
STARTCHAR $003D
ENCODING 61
SWIDTH 500 0
DWIDTH 6 0
BBX 5 3 0 2
BITMAP
F8
00
F8
ENDCHAR
STARTCHAR $003E
ENCODING 62
SWIDTH 500 0
DWIDTH 6 0
BBX 4 7 1 0
BITMAP
80
40
20
10
20
40
80
ENDCHAR
STARTCHAR $003F
ENCODING 63
SWIDTH 500 0
DWIDTH 6 0
BBX 5 8 0 0
BITMAP
70
88
08
10
20
20
00
20
ENDCHAR
STARTCHAR $0040
ENCODING 64
SWIDTH 500 0
DWIDTH 6 0
BBX 5 9 0 -1
BITMAP
70
88
98
A8
A8
A8
B8
80
70
ENDCHAR
STARTCHAR $0041
ENCODING 65
SWIDTH 500 0
DWIDTH 6 0
BBX 5 8 0 0
BITMAP
20
20
50
50
70
88
88
88
ENDCHAR
STARTCHAR $0042
ENCODING 66
SWIDTH 500 0
DWIDTH 6 0
BBX 5 8 0 0
BITMAP
F0
88
88
F0
88
88
88
F0
ENDCHAR
STARTCHAR $0043
ENCODING 67
SWIDTH 500 0
DWIDTH 6 0
BBX 5 8 0 0
BITMAP
70
88
80
80
80
80
88
70
ENDCHAR
STARTCHAR $0044
ENCODING 68
SWIDTH 500 0
DWIDTH 6 0
BBX 5 8 0 0
BITMAP
F0
88
88
88
88
88
88
F0
ENDCHAR
STARTCHAR $0045
ENCODING 69
SWIDTH 500 0
DWIDTH 6 0
BBX 5 8 0 0
BITMAP
F8
80
80
F0
80
80
80
F8
ENDCHAR
STARTCHAR $0046
ENCODING 70
SWIDTH 500 0
DWIDTH 6 0
BBX 5 8 0 0
BITMAP
F8
80
80
F0
80
80
80
80
ENDCHAR
STARTCHAR $0047
ENCODING 71
SWIDTH 500 0
DWIDTH 6 0
BBX 5 8 0 0
BITMAP
70
88
80
80
98
88
88
78
ENDCHAR
STARTCHAR $0048
ENCODING 72
SWIDTH 500 0
DWIDTH 6 0
BBX 5 8 0 0
BITMAP
88
88
88
F8
88
88
88
88
ENDCHAR
STARTCHAR $0049
ENCODING 73
SWIDTH 500 0
DWIDTH 6 0
BBX 5 8 0 0
BITMAP
F8
20
20
20
20
20
20
F8
ENDCHAR
STARTCHAR $004A
ENCODING 74
SWIDTH 500 0
DWIDTH 6 0
BBX 5 8 0 0
BITMAP
08
08
08
08
08
88
88
70
ENDCHAR
STARTCHAR $004B
ENCODING 75
SWIDTH 500 0
DWIDTH 6 0
BBX 5 8 0 0
BITMAP
88
90
A0
C0
C0
A0
90
88
ENDCHAR
STARTCHAR $004C
ENCODING 76
SWIDTH 500 0
DWIDTH 6 0
BBX 5 8 0 0
BITMAP
80
80
80
80
80
80
80
F8
ENDCHAR
STARTCHAR $004D
ENCODING 77
SWIDTH 500 0
DWIDTH 6 0
BBX 5 8 0 0
BITMAP
88
D8
D8
A8
A8
88
88
88
ENDCHAR
STARTCHAR $004E
ENCODING 78
SWIDTH 500 0
DWIDTH 6 0
BBX 5 8 0 0
BITMAP
88
C8
C8
A8
A8
98
98
88
ENDCHAR
STARTCHAR $004F
ENCODING 79
SWIDTH 500 0
DWIDTH 6 0
BBX 5 8 0 0
BITMAP
70
88
88
88
88
88
88
70
ENDCHAR
STARTCHAR $0050
ENCODING 80
SWIDTH 500 0
DWIDTH 6 0
BBX 5 8 0 0
BITMAP
F0
88
88
88
F0
80
80
80
ENDCHAR
STARTCHAR $0051
ENCODING 81
SWIDTH 500 0
DWIDTH 6 0
BBX 5 8 0 0
BITMAP
70
88
88
88
88
A8
90
68
ENDCHAR
STARTCHAR $0052
ENCODING 82
SWIDTH 500 0
DWIDTH 6 0
BBX 5 8 0 0
BITMAP
F0
88
88
88
F0
90
88
88
ENDCHAR
STARTCHAR $0053
ENCODING 83
SWIDTH 500 0
DWIDTH 6 0
BBX 5 8 0 0
BITMAP
70
88
80
60
10
08
88
70
ENDCHAR
STARTCHAR $0054
ENCODING 84
SWIDTH 500 0
DWIDTH 6 0
BBX 5 8 0 0
BITMAP
F8
20
20
20
20
20
20
20
ENDCHAR
STARTCHAR $0055
ENCODING 85
SWIDTH 500 0
DWIDTH 6 0
BBX 5 8 0 0
BITMAP
88
88
88
88
88
88
88
70
ENDCHAR
STARTCHAR $0056
ENCODING 86
SWIDTH 500 0
DWIDTH 6 0
BBX 5 8 0 0
BITMAP
88
88
88
50
50
50
20
20
ENDCHAR
STARTCHAR $0057
ENCODING 87
SWIDTH 500 0
DWIDTH 6 0
BBX 5 8 0 0
BITMAP
A8
A8
A8
A8
A8
50
50
50
ENDCHAR
STARTCHAR $0058
ENCODING 88
SWIDTH 500 0
DWIDTH 6 0
BBX 5 8 0 0
BITMAP
88
88
50
20
20
50
88
88
ENDCHAR
STARTCHAR $0059
ENCODING 89
SWIDTH 500 0
DWIDTH 6 0
BBX 5 8 0 0
BITMAP
88
88
50
50
20
20
20
20
ENDCHAR
STARTCHAR $005A
ENCODING 90
SWIDTH 500 0
DWIDTH 6 0
BBX 5 8 0 0
BITMAP
F8
08
10
20
20
40
80
F8
ENDCHAR
STARTCHAR $005B
ENCODING 91
SWIDTH 500 0
DWIDTH 6 0
BBX 3 10 1 -1
BITMAP
E0
80
80
80
80
80
80
80
80
E0
ENDCHAR
STARTCHAR $005C
ENCODING 92
SWIDTH 500 0
DWIDTH 6 0
BBX 5 10 0 -1
BITMAP
80
80
40
40
20
20
10
10
08
08
ENDCHAR
STARTCHAR $005D
ENCODING 93
SWIDTH 500 0
DWIDTH 6 0
BBX 3 10 1 -1
BITMAP
E0
20
20
20
20
20
20
20
20
E0
ENDCHAR
STARTCHAR $005E
ENCODING 94
SWIDTH 500 0
DWIDTH 6 0
BBX 5 3 0 5
BITMAP
20
50
88
ENDCHAR
STARTCHAR $005F
ENCODING 95
SWIDTH 500 0
DWIDTH 6 0
BBX 5 1 0 -2
BITMAP
F8
ENDCHAR
STARTCHAR $0060
ENCODING 96
SWIDTH 500 0
DWIDTH 6 0
BBX 2 2 2 6
BITMAP
80
40
ENDCHAR
STARTCHAR $0061
ENCODING 97
SWIDTH 500 0
DWIDTH 6 0
BBX 5 6 0 0
BITMAP
70
08
78
88
88
78
ENDCHAR
STARTCHAR $0062
ENCODING 98
SWIDTH 500 0
DWIDTH 6 0
BBX 5 8 0 0
BITMAP
80
80
F0
88
88
88
88
F0
ENDCHAR
STARTCHAR $0063
ENCODING 99
SWIDTH 500 0
DWIDTH 6 0
BBX 5 6 0 0
BITMAP
70
88
80
80
88
70
ENDCHAR
STARTCHAR $0064
ENCODING 100
SWIDTH 500 0
DWIDTH 6 0
BBX 5 8 0 0
BITMAP
08
08
78
88
88
88
88
78
ENDCHAR
STARTCHAR $0065
ENCODING 101
SWIDTH 500 0
DWIDTH 6 0
BBX 5 6 0 0
BITMAP
70
88
F8
80
88
70
ENDCHAR
STARTCHAR $0066
ENCODING 102
SWIDTH 500 0
DWIDTH 6 0
BBX 5 8 0 0
BITMAP
18
20
F8
20
20
20
20
20
ENDCHAR
STARTCHAR $0067
ENCODING 103
SWIDTH 500 0
DWIDTH 6 0
BBX 5 8 0 -2
BITMAP
78
88
88
88
88
78
08
70
ENDCHAR
STARTCHAR $0068
ENCODING 104
SWIDTH 500 0
DWIDTH 6 0
BBX 5 8 0 0
BITMAP
80
80
B0
C8
88
88
88
88
ENDCHAR
STARTCHAR $0069
ENCODING 105
SWIDTH 500 0
DWIDTH 6 0
BBX 5 8 0 0
BITMAP
20
00
E0
20
20
20
20
F8
ENDCHAR
STARTCHAR $006A
ENCODING 106
SWIDTH 500 0
DWIDTH 6 0
BBX 4 10 0 -2
BITMAP
10
00
F0
10
10
10
10
10
10
E0
ENDCHAR
STARTCHAR $006B
ENCODING 107
SWIDTH 500 0
DWIDTH 6 0
BBX 5 8 0 0
BITMAP
80
80
88
B0
C0
A0
90
88
ENDCHAR
STARTCHAR $006C
ENCODING 108
SWIDTH 500 0
DWIDTH 6 0
BBX 5 8 0 0
BITMAP
E0
20
20
20
20
20
20
18
ENDCHAR
STARTCHAR $006D
ENCODING 109
SWIDTH 500 0
DWIDTH 6 0
BBX 5 6 0 0
BITMAP
D0
A8
A8
A8
A8
A8
ENDCHAR
STARTCHAR $006E
ENCODING 110
SWIDTH 500 0
DWIDTH 6 0
BBX 5 6 0 0
BITMAP
B0
C8
88
88
88
88
ENDCHAR
STARTCHAR $006F
ENCODING 111
SWIDTH 500 0
DWIDTH 6 0
BBX 5 6 0 0
BITMAP
70
88
88
88
88
70
ENDCHAR
STARTCHAR $0070
ENCODING 112
SWIDTH 500 0
DWIDTH 6 0
BBX 5 8 0 -2
BITMAP
F0
88
88
88
88
F0
80
80
ENDCHAR
STARTCHAR $0071
ENCODING 113
SWIDTH 500 0
DWIDTH 6 0
BBX 5 8 0 -2
BITMAP
78
88
88
88
88
78
08
08
ENDCHAR
STARTCHAR $0072
ENCODING 114
SWIDTH 500 0
DWIDTH 6 0
BBX 5 6 0 0
BITMAP
B0
C8
80
80
80
80
ENDCHAR
STARTCHAR $0073
ENCODING 115
SWIDTH 500 0
DWIDTH 6 0
BBX 5 6 0 0
BITMAP
70
88
60
10
88
70
ENDCHAR
STARTCHAR $0074
ENCODING 116
SWIDTH 500 0
DWIDTH 6 0
BBX 5 8 0 0
BITMAP
20
20
F8
20
20
20
20
18
ENDCHAR
STARTCHAR $0075
ENCODING 117
SWIDTH 500 0
DWIDTH 6 0
BBX 5 6 0 0
BITMAP
88
88
88
88
98
68
ENDCHAR
STARTCHAR $0076
ENCODING 118
SWIDTH 500 0
DWIDTH 6 0
BBX 5 6 0 0
BITMAP
88
88
50
50
20
20
ENDCHAR
STARTCHAR $0077
ENCODING 119
SWIDTH 500 0
DWIDTH 6 0
BBX 5 6 0 0
BITMAP
A8
A8
A8
A8
50
50
ENDCHAR
STARTCHAR $0078
ENCODING 120
SWIDTH 500 0
DWIDTH 6 0
BBX 5 6 0 0
BITMAP
88
50
20
20
50
88
ENDCHAR
STARTCHAR $0079
ENCODING 121
SWIDTH 500 0
DWIDTH 6 0
BBX 5 8 0 -2
BITMAP
88
88
88
50
50
20
20
C0
ENDCHAR
STARTCHAR $007A
ENCODING 122
SWIDTH 500 0
DWIDTH 6 0
BBX 5 6 0 0
BITMAP
F8
10
20
40
80
F8
ENDCHAR
STARTCHAR $007B
ENCODING 123
SWIDTH 500 0
DWIDTH 6 0
BBX 4 10 0 -1
BITMAP
30
40
40
40
80
40
40
40
40
30
ENDCHAR
STARTCHAR $007C
ENCODING 124
SWIDTH 500 0
DWIDTH 6 0
BBX 1 10 2 -1
BITMAP
80
80
80
80
80
80
80
80
80
80
ENDCHAR
STARTCHAR $007D
ENCODING 125
SWIDTH 500 0
DWIDTH 6 0
BBX 4 10 1 -1
BITMAP
C0
20
20
20
10
20
20
20
20
C0
ENDCHAR
STARTCHAR $007E
ENCODING 126
SWIDTH 500 0
DWIDTH 6 0
BBX 5 3 0 2
BITMAP
40
A8
10
ENDCHAR
STARTCHAR uni2026
ENCODING 8230
SWIDTH 500 0
DWIDTH 6 0
BBX 5 1 0 0
BITMAP
A8
ENDCHAR
STARTCHAR uni3000
ENCODING 12288
SWIDTH 1000 0
DWIDTH 12 0
BBX 1 1 0 0
BITMAP
00
ENDCHAR
STARTCHAR uni3001
ENCODING 12289
SWIDTH 1000 0
DWIDTH 12 0
BBX 3 3 0 0
BITMAP
80
40
20
ENDCHAR
STARTCHAR uni3002
ENCODING 12290
SWIDTH 1000 0
DWIDTH 12 0
BBX 4 4 0 0
BITMAP
60
90
90
60
ENDCHAR
STARTCHAR uni3003
ENCODING 12291
SWIDTH 1000 0
DWIDTH 12 0
BBX 6 6 2 3
BITMAP
6C
48
48
48
90
90
ENDCHAR
STARTCHAR uni3004
ENCODING 12292
SWIDTH 1000 0
DWIDTH 12 0
BBX 11 11 0 0
BITMAP
1F00
2080
4040
95A0
9620
9520
94A0
6720
0040
2080
1F00
ENDCHAR
STARTCHAR uni3005
ENCODING 12293
SWIDTH 1000 0
DWIDTH 12 0
BBX 10 11 0 0
BITMAP
1000
1000
1FC0
2040
2040
4080
8080
1900
0600
0100
0080
ENDCHAR
STARTCHAR uni3006
ENCODING 12294
SWIDTH 1000 0
DWIDTH 12 0
BBX 11 11 0 0
BITMAP
0020
0040
0080
1D00
2200
4500
4800
9000
A000
C000
8000
ENDCHAR
STARTCHAR uni3007
ENCODING 12295
SWIDTH 1000 0
DWIDTH 12 0
BBX 11 11 0 0
BITMAP
0E00
3180
4040
4040
8020
8020
8020
4040
4040
3180
0E00
ENDCHAR
STARTCHAR uni3008
ENCODING 12296
SWIDTH 416 0
DWIDTH 5 0
BBX 4 11 0 0
BITMAP
10
20
20
40
40
80
40
40
20
20
10
ENDCHAR
STARTCHAR uni3009
ENCODING 12297
SWIDTH 416 0
DWIDTH 5 0
BBX 4 11 0 0
BITMAP
80
40
40
20
20
10
20
20
40
40
80
ENDCHAR
STARTCHAR uni300A
ENCODING 12298
SWIDTH 666 0
DWIDTH 8 0
BBX 7 11 0 0
BITMAP
12
24
24
48
48
90
48
48
24
24
12
ENDCHAR
STARTCHAR uni300B
ENCODING 12299
SWIDTH 666 0
DWIDTH 8 0
BBX 7 11 0 0
BITMAP
90
48
48
24
24
12
24
24
48
48
90
ENDCHAR
STARTCHAR uni300C
ENCODING 12300
SWIDTH 416 0
DWIDTH 5 0
BBX 4 7 0 4
BITMAP
F0
80
80
80
80
80
80
ENDCHAR
STARTCHAR uni300D
ENCODING 12301
SWIDTH 416 0
DWIDTH 5 0
BBX 4 7 0 0
BITMAP
10
10
10
10
10
10
F0
ENDCHAR
STARTCHAR uni300E
ENCODING 12302
SWIDTH 500 0
DWIDTH 6 0
BBX 5 8 0 3
BITMAP
F8
88
B8
A0
A0
A0
A0
E0
ENDCHAR
STARTCHAR uni300F
ENCODING 12303
SWIDTH 500 0
DWIDTH 6 0
BBX 5 8 0 0
BITMAP
38
28
28
28
28
E8
88
F8
ENDCHAR
STARTCHAR uni3010
ENCODING 12304
SWIDTH 416 0
DWIDTH 5 0
BBX 4 11 0 0
BITMAP
F0
E0
C0
80
80
80
80
80
C0
E0
F0
ENDCHAR
STARTCHAR uni3011
ENCODING 12305
SWIDTH 416 0
DWIDTH 5 0
BBX 4 11 0 0
BITMAP
F0
70
30
10
10
10
10
10
30
70
F0
ENDCHAR
STARTCHAR uni3012
ENCODING 12306
SWIDTH 1000 0
DWIDTH 12 0
BBX 9 9 1 1
BITMAP
FF80
0000
0000
FF80
0800
0800
0800
0800
0800
ENDCHAR
STARTCHAR uni3013
ENCODING 12307
SWIDTH 1000 0
DWIDTH 12 0
BBX 11 8 0 2
BITMAP
FFE0
FFE0
0000
0000
0000
0000
FFE0
FFE0
ENDCHAR
STARTCHAR uni3014
ENCODING 12308
SWIDTH 416 0
DWIDTH 5 0
BBX 4 11 0 0
BITMAP
30
C0
80
80
80
80
80
80
80
C0
30
ENDCHAR
STARTCHAR uni3015
ENCODING 12309
SWIDTH 416 0
DWIDTH 5 0
BBX 4 11 0 0
BITMAP
C0
30
10
10
10
10
10
10
10
30
C0
ENDCHAR
STARTCHAR uni3016
ENCODING 12310
SWIDTH 500 0
DWIDTH 6 0
BBX 5 11 0 0
BITMAP
F8
90
A0
A0
A0
A0
A0
A0
A0
90
F8
ENDCHAR
STARTCHAR uni3017
ENCODING 12311
SWIDTH 500 0
DWIDTH 6 0
BBX 5 11 0 0
BITMAP
F8
48
28
28
28
28
28
28
28
48
F8
ENDCHAR
STARTCHAR uni3018
ENCODING 12312
SWIDTH 500 0
DWIDTH 6 0
BBX 5 11 0 0
BITMAP
38
C8
B0
A0
A0
A0
A0
A0
B0
C8
38
ENDCHAR
STARTCHAR uni3019
ENCODING 12313
SWIDTH 500 0
DWIDTH 6 0
BBX 5 11 0 0
BITMAP
E0
98
68
28
28
28
28
28
68
98
E0
ENDCHAR
STARTCHAR uni301A
ENCODING 12314
SWIDTH 500 0
DWIDTH 6 0
BBX 5 11 0 0
BITMAP
F8
A0
A0
A0
A0
A0
A0
A0
A0
A0
F8
ENDCHAR
STARTCHAR uni301B
ENCODING 12315
SWIDTH 500 0
DWIDTH 6 0
BBX 5 11 0 0
BITMAP
F8
28
28
28
28
28
28
28
28
28
F8
ENDCHAR
STARTCHAR uni301C
ENCODING 12316
SWIDTH 1000 0
DWIDTH 12 0
BBX 10 3 0 4
BITMAP
7800
8440
0380
ENDCHAR
STARTCHAR uni3036
ENCODING 12342
SWIDTH 1000 0
DWIDTH 12 0
BBX 11 11 0 0
BITMAP
1F00
2080
4040
BFA0
8020
BFA0
8420
8420
4440
2080
1F00
ENDCHAR
STARTCHAR uni303C
ENCODING 12348
SWIDTH 1000 0
DWIDTH 12 0
BBX 9 9 1 1
BITMAP
FF80
8180
8280
8480
8880
9080
A080
C080
FF80
ENDCHAR
STARTCHAR uni3041
ENCODING 12353
SWIDTH 1000 0
DWIDTH 12 0
BBX 9 10 1 0
BITMAP
1000
FF00
1000
3E00
5500
9480
9480
8880
9080
6300
ENDCHAR
STARTCHAR uni3042
ENCODING 12354
SWIDTH 1000 0
DWIDTH 12 0
BBX 11 11 0 0
BITMAP
0800
FFC0
1000
1F80
3240
5220
9220
9420
8820
9040
6380
ENDCHAR
STARTCHAR uni3043
ENCODING 12355
SWIDTH 1000 0
DWIDTH 12 0
BBX 9 9 1 0
BITMAP
8000
8100
8100
8080
8080
8080
9080
9000
6000
ENDCHAR
STARTCHAR uni3044
ENCODING 12356
SWIDTH 1000 0
DWIDTH 12 0
BBX 11 10 0 0
BITMAP
8000
8080
8040
8040
8020
8020
8820
8820
4800
3000
ENDCHAR
STARTCHAR uni3045
ENCODING 12357
SWIDTH 1000 0
DWIDTH 12 0
BBX 8 10 1 0
BITMAP
38
06
00
3E
C1
01
01
01
06
38
ENDCHAR
STARTCHAR uni3046
ENCODING 12358
SWIDTH 1000 0
DWIDTH 12 0
BBX 10 11 0 0
BITMAP
3C00
0300
0000
1F00
E080
0040
0040
0040
0080
0300
1C00
ENDCHAR
STARTCHAR uni3047
ENCODING 12359
SWIDTH 1000 0
DWIDTH 12 0
BBX 9 10 1 0
BITMAP
7800
0600
0000
FF00
0400
0800
1C00
2400
4400
8380
ENDCHAR
STARTCHAR uni3048
ENCODING 12360
SWIDTH 1000 0
DWIDTH 12 0
BBX 11 11 0 0
BITMAP
3C00
0300
0000
7F80
0100
0200
0C00
1200
2200
4200
81E0
ENDCHAR
STARTCHAR uni3049
ENCODING 12361
SWIDTH 1000 0
DWIDTH 12 0
BBX 9 10 1 0
BITMAP
1000
FD00
1080
1000
3E00
5100
9080
9080
9080
6300
ENDCHAR
STARTCHAR uni304A
ENCODING 12362
SWIDTH 1000 0
DWIDTH 12 0
BBX 11 11 0 0
BITMAP
1000
FE80
1040
1020
1F80
3040
5020
9020
9020
9040
6180
ENDCHAR
STARTCHAR uni304B
ENCODING 12363
SWIDTH 1000 0
DWIDTH 12 0
BBX 11 11 0 0
BITMAP
1000
1080
1040
FE20
2120
2100
2100
2100
4100
4100
8E00
ENDCHAR
STARTCHAR uni304C
ENCODING 12364
SWIDTH 1000 0
DWIDTH 12 0
BBX 11 11 0 0
BITMAP
10A0
10A0
1100
FE80
2140
2140
2100
2100
4100
4100
8E00
ENDCHAR
STARTCHAR uni304D
ENCODING 12365
SWIDTH 1000 0
DWIDTH 12 0
BBX 11 11 0 0
BITMAP
0200
7FC0
0100
FFE0
0080
0080
3F40
40C0
4000
4000
3F00
ENDCHAR
STARTCHAR uni304E
ENCODING 12366
SWIDTH 1000 0
DWIDTH 12 0
BBX 11 11 0 0
BITMAP
02A0
7FA0
0100
FFC0
0080
0080
3F40
40C0
4000
4000
3F00
ENDCHAR
STARTCHAR uni304F
ENCODING 12367
SWIDTH 1000 0
DWIDTH 12 0
BBX 8 11 1 0
BITMAP
01
02
0C
10
60
80
60
10
0C
02
01
ENDCHAR
STARTCHAR uni3050
ENCODING 12368
SWIDTH 1000 0
DWIDTH 12 0
BBX 10 11 1 0
BITMAP
0100
0200
0C00
1140
6140
8000
6000
1000
0C00
0200
0100
ENDCHAR
STARTCHAR uni3051
ENCODING 12369
SWIDTH 1000 0
DWIDTH 12 0
BBX 11 11 0 0
BITMAP
8080
8080
8080
9FE0
8080
8080
8080
8080
8080
8100
0600
ENDCHAR
STARTCHAR uni3052
ENCODING 12370
SWIDTH 1000 0
DWIDTH 12 0
BBX 11 11 0 0
BITMAP
80A0
80A0
8080
9FE0
8080
8080
8080
8080
8080
8100
0600
ENDCHAR
STARTCHAR uni3053
ENCODING 12371
SWIDTH 1000 0
DWIDTH 12 0
BBX 10 10 0 0
BITMAP
7F80
0000
0000
0000
0000
0000
4000
8000
8000
7FC0
ENDCHAR
STARTCHAR uni3054
ENCODING 12372
SWIDTH 1000 0
DWIDTH 12 0
BBX 11 11 0 0
BITMAP
00A0
7FA0
0000
0000
0000
0000
0000
4000
8000
8000
7FC0
ENDCHAR
STARTCHAR uni3055
ENCODING 12373
SWIDTH 1000 0
DWIDTH 12 0
BBX 10 11 1 0
BITMAP
0200
0200
FFC0
0100
0100
3E80
4180
8000
8000
4000
3F00
ENDCHAR
STARTCHAR uni3056
ENCODING 12374
SWIDTH 1000 0
DWIDTH 12 0
BBX 11 11 0 0
BITMAP
02A0
02A0
FFC0
0100
0100
3E80
4180
8000
8000
4000
3F00
ENDCHAR
STARTCHAR uni3057
ENCODING 12375
SWIDTH 1000 0
DWIDTH 12 0
BBX 9 11 2 0
BITMAP
8000
8000
8000
8000
8000
8000
8080
8080
8100
4200
3C00
ENDCHAR
STARTCHAR uni3058
ENCODING 12376
SWIDTH 1000 0
DWIDTH 12 0
BBX 9 11 2 0
BITMAP
8280
8280
8000
8000
8000
8000
8080
8080
8100
4200
3C00
ENDCHAR
STARTCHAR uni3059
ENCODING 12377
SWIDTH 1000 0
DWIDTH 12 0
BBX 11 11 0 0
BITMAP
0100
FFE0
0100
0F00
1100
1100
1100
0F00
0100
0200
0C00
ENDCHAR
STARTCHAR uni305A
ENCODING 12378
SWIDTH 1000 0
DWIDTH 12 0
BBX 11 11 0 0
BITMAP
02A0
FFA0
0200
1E00
2200
2200
2200
1E00
0200
0400
1800
ENDCHAR
STARTCHAR uni305B
ENCODING 12379
SWIDTH 1000 0
DWIDTH 12 0
BBX 11 11 0 0
BITMAP
2080
2080
2080
FFE0
2080
2080
2080
2300
2000
2000
1FC0
ENDCHAR
STARTCHAR uni305C
ENCODING 12380
SWIDTH 1000 0
DWIDTH 12 0
BBX 11 11 0 0
BITMAP
20A0
20A0
2080
FFE0
2080
2080
2080
2300
2000
2000
1FC0
ENDCHAR
STARTCHAR uni305D
ENCODING 12381
SWIDTH 1000 0
DWIDTH 12 0
BBX 11 11 0 0
BITMAP
7F80
0600
1800
2000
FFE0
0C00
1000
2000
2000
1000
0F80
ENDCHAR
STARTCHAR uni305E
ENCODING 12382
SWIDTH 1000 0
DWIDTH 12 0
BBX 11 11 0 0
BITMAP
7F00
06A0
18A0
2000
FFC0
0C00
1000
2000
2000
1000
0F80
ENDCHAR
STARTCHAR uni305F
ENCODING 12383
SWIDTH 1000 0
DWIDTH 12 0
BBX 11 11 0 0
BITMAP
2000
2000
FF80
2000
2000
27C0
4000
4000
4800
8800
87E0
ENDCHAR
STARTCHAR uni3060
ENCODING 12384
SWIDTH 1000 0
DWIDTH 12 0
BBX 11 11 0 0
BITMAP
20A0
20A0
FF00
2000
2000
27C0
4000
4000
4800
8800
87E0
ENDCHAR
STARTCHAR uni3061
ENCODING 12385
SWIDTH 1000 0
DWIDTH 12 0
BBX 10 11 0 0
BITMAP
1000
1000
FFC0
2000
2000
5F00
6080
0040
0040
0080
1F00
ENDCHAR
STARTCHAR uni3062
ENCODING 12386
SWIDTH 1000 0
DWIDTH 12 0
BBX 11 11 0 0
BITMAP
10A0
10A0
FFC0
2000
2000
5F00
6080
0040
0040
0080
1F00
ENDCHAR
STARTCHAR uni3063
ENCODING 12387
SWIDTH 1000 0
DWIDTH 12 0
BBX 9 8 1 0
BITMAP
3E00
C100
0080
0080
0080
0080
0300
3C00
ENDCHAR
STARTCHAR uni3064
ENCODING 12388
SWIDTH 1000 0
DWIDTH 12 0
BBX 11 9 0 1
BITMAP
1F80
E040
0020
0020
0020
0020
0040
0180
1E00
ENDCHAR
STARTCHAR uni3065
ENCODING 12389
SWIDTH 1000 0
DWIDTH 12 0
BBX 11 10 0 1
BITMAP
00A0
1FA0
E040
0020
0020
0020
0020
0040
0180
1E00
ENDCHAR
STARTCHAR uni3066
ENCODING 12390
SWIDTH 1000 0
DWIDTH 12 0
BBX 11 10 0 0
BITMAP
FFE0
0300
0400
0800
0800
0800
0800
0800
0400
0380
ENDCHAR
STARTCHAR uni3067
ENCODING 12391
SWIDTH 1000 0
DWIDTH 12 0
BBX 11 10 0 0
BITMAP
FFE0
0300
0400
08A0
08A0
0800
0800
0800
0400
0380
ENDCHAR
STARTCHAR uni3068
ENCODING 12392
SWIDTH 1000 0
DWIDTH 12 0
BBX 10 11 0 0
BITMAP
2000
2000
1380
0C00
3000
4000
8000
8000
8000
4000
3FC0
ENDCHAR
STARTCHAR uni3069
ENCODING 12393
SWIDTH 1000 0
DWIDTH 12 0
BBX 11 11 0 0
BITMAP
20A0
20A0
1380
0C00
3000
4000
8000
8000
8000
4000
3FC0
ENDCHAR
STARTCHAR uni306A
ENCODING 12394
SWIDTH 1000 0
DWIDTH 12 0
BBX 11 11 0 0
BITMAP
2000
FCC0
2020
2000
4080
4080
4780
88C0
88A0
0880
0700
ENDCHAR
STARTCHAR uni306B
ENCODING 12395
SWIDTH 1000 0
DWIDTH 12 0
BBX 10 11 1 0
BITMAP
8000
8FC0
8000
8000
8000
8000
8000
8800
9000
9000
8FC0
ENDCHAR
STARTCHAR uni306C
ENCODING 12396
SWIDTH 1000 0
DWIDTH 12 0
BBX 11 11 0 0
BITMAP
0200
2200
3F80
2240
4420
A420
A820
ABA0
9460
9440
63A0
ENDCHAR
STARTCHAR uni306D
ENCODING 12397
SWIDTH 1000 0
DWIDTH 12 0
BBX 11 11 0 0
BITMAP
2000
2780
E840
3020
2020
6020
6020
A3A0
A460
2440
23A0
ENDCHAR
STARTCHAR uni306E
ENCODING 12398
SWIDTH 1000 0
DWIDTH 12 0
BBX 11 10 0 0
BITMAP
1F00
2480
4440
8420
8820
8820
9020
9040
6080
0300
ENDCHAR
STARTCHAR uni306F
ENCODING 12399
SWIDTH 1000 0
DWIDTH 12 0
BBX 11 11 0 0
BITMAP
8080
8080
9FE0
8080
8080
8080
8080
8F80
90C0
90A0
8F00
ENDCHAR
STARTCHAR uni3070
ENCODING 12400
SWIDTH 1000 0
DWIDTH 12 0
BBX 11 11 0 0
BITMAP
80A0
80A0
9FE0
8080
8080
8080
8080
8F80
90C0
90A0
8F00
ENDCHAR
STARTCHAR uni3071
ENCODING 12401
SWIDTH 1000 0
DWIDTH 12 0
BBX 11 11 0 0
BITMAP
8040
80A0
9FC0
8080
8080
8080
8080
8F80
90C0
90A0
8F00
ENDCHAR
STARTCHAR uni3072
ENCODING 12402
SWIDTH 1000 0
DWIDTH 12 0
BBX 11 11 0 0
BITMAP
0900
F100
2080
4040
40A0
8080
8080
8080
8080
4100
3E00
ENDCHAR
STARTCHAR uni3073
ENCODING 12403
SWIDTH 1000 0
DWIDTH 12 0
BBX 11 11 0 0
BITMAP
08A0
F0A0
2100
4080
40E0
8080
8080
8080
8080
4100
3E00
ENDCHAR
STARTCHAR uni3074
ENCODING 12404
SWIDTH 1000 0
DWIDTH 12 0
BBX 11 11 0 0
BITMAP
0840
F0A0
2140
4080
40E0
8080
8080
8080
8080
4100
3E00
ENDCHAR
STARTCHAR uni3075
ENCODING 12405
SWIDTH 1000 0
DWIDTH 12 0
BBX 11 11 0 0
BITMAP
3C00
0300
0400
0800
0800
4440
4240
4120
8120
9120
0E00
ENDCHAR
STARTCHAR uni3076
ENCODING 12406
SWIDTH 1000 0
DWIDTH 12 0
BBX 11 11 0 0
BITMAP
3C00
0300
04A0
08A0
0800
4440
4240
4120
8120
9120
0E00
ENDCHAR
STARTCHAR uni3077
ENCODING 12407
SWIDTH 1000 0
DWIDTH 12 0
BBX 11 11 0 0
BITMAP
3C00
0340
04A0
0840
0800
4440
4240
4120
8120
9120
0E00
ENDCHAR
STARTCHAR uni3078
ENCODING 12408
SWIDTH 1000 0
DWIDTH 12 0
BBX 11 8 0 1
BITMAP
1800
2400
2400
4200
4100
8080
8040
0020
ENDCHAR
STARTCHAR uni3079
ENCODING 12409
SWIDTH 1000 0
DWIDTH 12 0
BBX 11 8 0 1
BITMAP
18A0
24A0
2400
4200
4100
8080
8040
0020
ENDCHAR
STARTCHAR uni307A
ENCODING 12410
SWIDTH 1000 0
DWIDTH 12 0
BBX 11 8 0 1
BITMAP
1840
24A0
2440
4200
4100
8080
8040
0020
ENDCHAR
STARTCHAR uni307B
ENCODING 12411
SWIDTH 1000 0
DWIDTH 12 0
BBX 11 11 0 0
BITMAP
9FE0
8080
8080
9FE0
8080
8080
8080
8F80
90C0
90A0
8F00
ENDCHAR
STARTCHAR uni307C
ENCODING 12412
SWIDTH 1000 0
DWIDTH 12 0
BBX 11 11 0 0
BITMAP
9FA0
80A0
8080
9FE0
8080
8080
8080
8F80
90C0
90A0
8F00
ENDCHAR
STARTCHAR uni307D
ENCODING 12413
SWIDTH 1000 0
DWIDTH 12 0
BBX 11 11 0 0
BITMAP
9F40
80A0
80C0
9F80
8080
8080
8080
8F80
90C0
90A0
8F00
ENDCHAR
STARTCHAR uni307E
ENCODING 12414
SWIDTH 1000 0
DWIDTH 12 0
BBX 11 11 0 0
BITMAP
0200
7FC0
0200
0200
FFE0
0200
0200
3E00
4380
4240
3C00
ENDCHAR
STARTCHAR uni307F
ENCODING 12415
SWIDTH 1000 0
DWIDTH 12 0
BBX 11 10 0 0
BITMAP
7C00
0400
0400
0840
3E40
49C0
8860
9080
9080
6100
ENDCHAR
STARTCHAR uni3080
ENCODING 12416
SWIDTH 1000 0
DWIDTH 12 0
BBX 11 11 0 0
BITMAP
1080
1040
FE20
1000
7000
9000
9000
9040
6040
2040
1F80
ENDCHAR
STARTCHAR uni3081
ENCODING 12417
SWIDTH 1000 0
DWIDTH 12 0
BBX 11 11 0 0
BITMAP
0200
2200
3F80
2240
4420
A420
A820
A820
9020
9040
6380
ENDCHAR
STARTCHAR uni3082
ENCODING 12418
SWIDTH 1000 0
DWIDTH 12 0
BBX 11 11 0 0
BITMAP
1000
7F00
1000
1000
FF80
1000
1020
1020
1020
1040
0F80
ENDCHAR
STARTCHAR uni3083
ENCODING 12419
SWIDTH 1000 0
DWIDTH 12 0
BBX 10 10 0 0
BITMAP
0400
4780
5A40
E240
2240
2040
1180
1000
0800
0800
ENDCHAR
STARTCHAR uni3084
ENCODING 12420
SWIDTH 1000 0
DWIDTH 12 0
BBX 11 11 0 0
BITMAP
0200
4200
47C0
3920
E120
2120
1020
1040
1380
0800
0800
ENDCHAR
STARTCHAR uni3085
ENCODING 12421
SWIDTH 1000 0
DWIDTH 12 0
BBX 9 10 1 0
BITMAP
0800
9F00
A480
C480
8480
8480
A480
9F00
0400
1800
ENDCHAR
STARTCHAR uni3086
ENCODING 12422
SWIDTH 1000 0
DWIDTH 12 0
BBX 11 11 0 0
BITMAP
0400
8F80
9240
A220
C220
C220
8220
9240
8F80
0400
1800
ENDCHAR
STARTCHAR uni3087
ENCODING 12423
SWIDTH 1000 0
DWIDTH 12 0
BBX 8 10 1 0
BITMAP
08
08
0F
08
08
08
7C
8A
89
70
ENDCHAR
STARTCHAR uni3088
ENCODING 12424
SWIDTH 1000 0
DWIDTH 12 0
BBX 10 11 1 0
BITMAP
0400
0400
07C0
0400
0400
0400
0400
7E00
8580
8440
7800
ENDCHAR
STARTCHAR uni3089
ENCODING 12425
SWIDTH 1000 0
DWIDTH 12 0
BBX 10 11 0 0
BITMAP
1E00
4180
4000
8000
9F00
A080
C040
8040
0040
0080
1F00
ENDCHAR
STARTCHAR uni308A
ENCODING 12426
SWIDTH 1000 0
DWIDTH 12 0
BBX 9 11 1 0
BITMAP
4E00
5100
A080
A080
C080
8080
8080
0080
0100
0200
1C00
ENDCHAR
STARTCHAR uni308B
ENCODING 12427
SWIDTH 1000 0
DWIDTH 12 0
BBX 10 11 0 0
BITMAP
7F00
0200
0400
0800
3F00
4080
8040
1C40
2240
2280
1F00
ENDCHAR
STARTCHAR uni308C
ENCODING 12428
SWIDTH 1000 0
DWIDTH 12 0
BBX 11 11 0 0
BITMAP
2000
2700
E880
3080
2080
6080
6080
A080
A0A0
20A0
2040
ENDCHAR
STARTCHAR uni308D
ENCODING 12429
SWIDTH 1000 0
DWIDTH 12 0
BBX 10 11 0 0
BITMAP
7F00
0200
0400
0800
3F00
4080
8040
0040
0040
0080
3F00
ENDCHAR
STARTCHAR uni308E
ENCODING 12430
SWIDTH 1000 0
DWIDTH 12 0
BBX 10 10 0 0
BITMAP
2000
2700
E880
3040
2040
6040
6040
A040
2080
2300
ENDCHAR
STARTCHAR uni308F
ENCODING 12431
SWIDTH 1000 0
DWIDTH 12 0
BBX 11 11 0 0
BITMAP
2000
2780
E840
3020
2020
6020
6020
A020
A020
2040
2180
ENDCHAR
STARTCHAR uni3090
ENCODING 12432
SWIDTH 1000 0
DWIDTH 12 0
BBX 11 11 0 0
BITMAP
7C00
0400
0400
1F80
2440
4820
8820
8820
93A0
9440
6380
ENDCHAR
STARTCHAR uni3091
ENCODING 12433
SWIDTH 1000 0
DWIDTH 12 0
BBX 11 11 0 0
BITMAP
3F00
0600
0800
3F80
4040
9C40
2240
1F80
2000
59C0
8620
ENDCHAR
STARTCHAR uni3092
ENCODING 12434
SWIDTH 1000 0
DWIDTH 12 0
BBX 11 11 0 0
BITMAP
0800
FFC0
1000
2E00
3160
4180
8700
1900
2100
2000
1FC0
ENDCHAR
STARTCHAR uni3093
ENCODING 12435
SWIDTH 1000 0
DWIDTH 12 0
BBX 11 11 0 0
BITMAP
0800
1000
1000
2000
2000
5C00
6200
4220
8220
8220
81C0
ENDCHAR
STARTCHAR uni3094
ENCODING 12436
SWIDTH 1000 0
DWIDTH 12 0
BBX 11 11 0 0
BITMAP
3CA0
03A0
0000
1F00
E080
0040
0040
0040
0080
0300
1C00
ENDCHAR
STARTCHAR uni3095
ENCODING 12437
SWIDTH 1000 0
DWIDTH 12 0
BBX 10 9 1 0
BITMAP
1000
1100
FC80
2240
2240
2200
4200
4200
8C00
ENDCHAR
STARTCHAR uni3096
ENCODING 12438
SWIDTH 1000 0
DWIDTH 12 0
BBX 9 9 1 0
BITMAP
8200
8200
BF80
8200
8200
8200
8200
8400
1800
ENDCHAR
STARTCHAR uni3099
ENCODING 12441
SWIDTH 0 0
DWIDTH 0 0
BBX 3 2 -4 9
BITMAP
A0
A0
ENDCHAR
STARTCHAR uni309A
ENCODING 12442
SWIDTH 0 0
DWIDTH 0 0
BBX 3 3 -4 8
BITMAP
40
A0
40
ENDCHAR
STARTCHAR uni309B
ENCODING 12443
SWIDTH 1000 0
DWIDTH 12 0
BBX 4 3 0 8
BITMAP
20
90
40
ENDCHAR
STARTCHAR uni309C
ENCODING 12444
SWIDTH 1000 0
DWIDTH 12 0
BBX 4 4 0 7
BITMAP
60
90
90
60
ENDCHAR
STARTCHAR uni309D
ENCODING 12445
SWIDTH 1000 0
DWIDTH 12 0
BBX 5 6 3 3
BITMAP
80
40
20
10
78
08
ENDCHAR
STARTCHAR uni309E
ENCODING 12446
SWIDTH 1000 0
DWIDTH 12 0
BBX 7 7 3 3
BITMAP
04
92
48
20
10
78
08
ENDCHAR
STARTCHAR uni30A0
ENCODING 12448
SWIDTH 1000 0
DWIDTH 12 0
BBX 7 4 2 3
BITMAP
FE
00
00
FE
ENDCHAR
STARTCHAR uni30A1
ENCODING 12449
SWIDTH 1000 0
DWIDTH 12 0
BBX 9 9 1 0
BITMAP
FF80
0080
0880
0900
0A00
0800
1000
1000
2000
ENDCHAR
STARTCHAR uni30A2
ENCODING 12450
SWIDTH 1000 0
DWIDTH 12 0
BBX 11 10 0 0
BITMAP
FFE0
0020
0020
0420
0440
0580
0400
0400
0800
3000
ENDCHAR
STARTCHAR uni30A3
ENCODING 12451
SWIDTH 1000 0
DWIDTH 12 0
BBX 9 9 1 0
BITMAP
0080
0100
0600
1800
E800
0800
0800
0800
0800
ENDCHAR
STARTCHAR uni30A4
ENCODING 12452
SWIDTH 1000 0
DWIDTH 12 0
BBX 10 11 0 0
BITMAP
0040
0080
0100
0600
1C00
E400
0400
0400
0400
0400
0400
ENDCHAR
STARTCHAR uni30A5
ENCODING 12453
SWIDTH 1000 0
DWIDTH 12 0
BBX 8 10 1 0
BITMAP
10
10
FF
81
81
01
01
02
04
18
ENDCHAR
STARTCHAR uni30A6
ENCODING 12454
SWIDTH 1000 0
DWIDTH 12 0
BBX 9 11 1 0
BITMAP
0800
0800
FF80
8080
8080
8080
0080
0080
0100
0200
1C00
ENDCHAR
STARTCHAR uni30A7
ENCODING 12455
SWIDTH 1000 0
DWIDTH 12 0
BBX 9 8 1 1
BITMAP
7F00
0800
0800
0800
0800
0800
0800
FF80
ENDCHAR
STARTCHAR uni30A8
ENCODING 12456
SWIDTH 1000 0
DWIDTH 12 0
BBX 11 9 0 1
BITMAP
7FC0
0400
0400
0400
0400
0400
0400
0400
FFE0
ENDCHAR
STARTCHAR uni30A9
ENCODING 12457
SWIDTH 1000 0
DWIDTH 12 0
BBX 9 10 1 0
BITMAP
0200
0200
FF80
0600
0A00
1200
2200
C200
0200
0E00
ENDCHAR
STARTCHAR uni30AA
ENCODING 12458
SWIDTH 1000 0
DWIDTH 12 0
BBX 11 11 0 0
BITMAP
0100
0100
FFE0
0500
0500
0900
1100
2100
C100
0100
0700
ENDCHAR
STARTCHAR uni30AB
ENCODING 12459
SWIDTH 1000 0
DWIDTH 12 0
BBX 10 11 0 0
BITMAP
0800
0800
0800
FFC0
0840
0840
0840
1040
1040
2040
C380
ENDCHAR
STARTCHAR uni30AC
ENCODING 12460
SWIDTH 1000 0
DWIDTH 12 0
BBX 11 11 0 0
BITMAP
08A0
08A0
0800
FFC0
0840
0840
0840
1040
1040
2040
C380
ENDCHAR
STARTCHAR uni30AD
ENCODING 12461
SWIDTH 1000 0
DWIDTH 12 0
BBX 11 11 0 0
BITMAP
0800
0800
7FC0
0400
0400
0400
FFE0
0200
0200
0200
0200
ENDCHAR
STARTCHAR uni30AE
ENCODING 12462
SWIDTH 1000 0
DWIDTH 12 0
BBX 11 11 0 0
BITMAP
08A0
08A0
7FC0
0400
0400
0400
FFE0
0200
0200
0200
0200
ENDCHAR
STARTCHAR uni30AF
ENCODING 12463
SWIDTH 1000 0
DWIDTH 12 0
BBX 10 11 0 0
BITMAP
2000
2000
3FC0
2040
4040
8040
0080
0080
0100
0600
3800
ENDCHAR
STARTCHAR uni30B0
ENCODING 12464
SWIDTH 1000 0
DWIDTH 12 0
BBX 11 11 0 0
BITMAP
20A0
20A0
3FC0
2040
4040
8040
0080
0080
0100
0600
3800
ENDCHAR
STARTCHAR uni30B1
ENCODING 12465
SWIDTH 1000 0
DWIDTH 12 0
BBX 11 11 0 0
BITMAP
2000
2000
3FE0
2080
4080
8080
0080
0100
0100
0200
0C00
ENDCHAR
STARTCHAR uni30B2
ENCODING 12466
SWIDTH 1000 0
DWIDTH 12 0
BBX 11 11 0 0
BITMAP
20A0
20A0
3FE0
2080
4080
8080
0080
0100
0100
0200
0C00
ENDCHAR
STARTCHAR uni30B3
ENCODING 12467
SWIDTH 1000 0
DWIDTH 12 0
BBX 10 10 0 0
BITMAP
FFC0
0040
0040
0040
0040
0040
0040
0040
0040
FFC0
ENDCHAR
STARTCHAR uni30B4
ENCODING 12468
SWIDTH 1000 0
DWIDTH 12 0
BBX 11 11 0 0
BITMAP
00A0
FFE0
0040
0040
0040
0040
0040
0040
0040
0040
FFC0
ENDCHAR
STARTCHAR uni30B5
ENCODING 12469
SWIDTH 1000 0
DWIDTH 12 0
BBX 11 11 0 0
BITMAP
2080
2080
2080
FFE0
2080
2080
2080
0080
0080
0100
1E00
ENDCHAR
STARTCHAR uni30B6
ENCODING 12470
SWIDTH 1000 0
DWIDTH 12 0
BBX 11 11 0 0
BITMAP
20A0
20A0
2080
FFE0
2080
2080
2080
0080
0080
0100
1E00
ENDCHAR
STARTCHAR uni30B7
ENCODING 12471
SWIDTH 1000 0
DWIDTH 12 0
BBX 11 10 0 0
BITMAP
6000
1020
0020
C020
2040
0040
0080
0100
0600
3800
ENDCHAR
STARTCHAR uni30B8
ENCODING 12472
SWIDTH 1000 0
DWIDTH 12 0
BBX 11 11 0 0
BITMAP
00A0
60A0
1000
0040
C040
2080
0080
0100
0200
0C00
7000
ENDCHAR
STARTCHAR uni30B9
ENCODING 12473
SWIDTH 1000 0
DWIDTH 12 0
BBX 11 10 0 0
BITMAP
7F80
0080
0080
0100
0100
0200
0500
0880
3040
C020
ENDCHAR
STARTCHAR uni30BA
ENCODING 12474
SWIDTH 1000 0
DWIDTH 12 0
BBX 11 11 0 0
BITMAP
00A0
7FA0
0080
0080
0100
0100
0200
0500
0880
3040
C020
ENDCHAR
STARTCHAR uni30BB
ENCODING 12475
SWIDTH 1000 0
DWIDTH 12 0
BBX 11 11 0 0
BITMAP
2000
2000
23E0
FC20
2020
2040
2380
2000
2000
2000
1FC0
ENDCHAR
STARTCHAR uni30BC
ENCODING 12476
SWIDTH 1000 0
DWIDTH 12 0
BBX 11 11 0 0
BITMAP
20A0
20A0
23E0
FC20
2020
2040
2380
2000
2000
2000
1FC0
ENDCHAR
STARTCHAR uni30BD
ENCODING 12477
SWIDTH 1000 0
DWIDTH 12 0
BBX 10 10 0 0
BITMAP
8040
4040
2040
2040
0080
0080
0100
0200
0C00
3000
ENDCHAR
STARTCHAR uni30BE
ENCODING 12478
SWIDTH 1000 0
DWIDTH 12 0
BBX 11 11 0 0
BITMAP
00A0
80A0
4000
2040
2040
0080
0080
0100
0200
0C00
3000
ENDCHAR
STARTCHAR uni30BF
ENCODING 12479
SWIDTH 1000 0
DWIDTH 12 0
BBX 10 11 0 0
BITMAP
1000
1000
1FC0
2040
2040
5040
8C80
0280
0100
0600
3800
ENDCHAR
STARTCHAR uni30C0
ENCODING 12480
SWIDTH 1000 0
DWIDTH 12 0
BBX 11 11 0 0
BITMAP
10A0
10A0
1FC0
2040
2040
5040
8C80
0280
0100
0600
3800
ENDCHAR
STARTCHAR uni30C1
ENCODING 12481
SWIDTH 1000 0
DWIDTH 12 0
BBX 11 10 0 0
BITMAP
01C0
7E00
0200
0200
FFE0
0200
0200
0200
0400
3800
ENDCHAR
STARTCHAR uni30C2
ENCODING 12482
SWIDTH 1000 0
DWIDTH 12 0
BBX 11 11 0 0
BITMAP
00A0
01A0
7E00
0200
0200
FFE0
0200
0200
0200
0400
3800
ENDCHAR
STARTCHAR uni30C3
ENCODING 12483
SWIDTH 1000 0
DWIDTH 12 0
BBX 9 9 1 0
BITMAP
1000
8880
4880
4080
0100
0100
0200
0C00
3000
ENDCHAR
STARTCHAR uni30C4
ENCODING 12484
SWIDTH 1000 0
DWIDTH 12 0
BBX 11 10 0 0
BITMAP
1000
8820
4820
4020
0040
0040
0080
0100
0600
3800
ENDCHAR
STARTCHAR uni30C5
ENCODING 12485
SWIDTH 1000 0
DWIDTH 12 0
BBX 11 11 0 0
BITMAP
00A0
10A0
8800
4820
4020
0040
0040
0080
0100
0600
3800
ENDCHAR
STARTCHAR uni30C6
ENCODING 12486
SWIDTH 1000 0
DWIDTH 12 0
BBX 11 10 0 0
BITMAP
7FC0
0000
0000
FFE0
0200
0200
0200
0200
0400
1800
ENDCHAR
STARTCHAR uni30C7
ENCODING 12487
SWIDTH 1000 0
DWIDTH 12 0
BBX 11 11 0 0
BITMAP
00A0
7FA0
0000
0000
FFE0
0200
0200
0200
0200
0400
1800
ENDCHAR
STARTCHAR uni30C8
ENCODING 12488
SWIDTH 1000 0
DWIDTH 12 0
BBX 8 11 2 0
BITMAP
80
80
80
80
E0
98
86
81
80
80
80
ENDCHAR
STARTCHAR uni30C9
ENCODING 12489
SWIDTH 1000 0
DWIDTH 12 0
BBX 8 11 2 0
BITMAP
85
85
80
80
E0
98
86
81
80
80
80
ENDCHAR
STARTCHAR uni30CA
ENCODING 12490
SWIDTH 1000 0
DWIDTH 12 0
BBX 11 11 0 0
BITMAP
0200
0200
0200
FFE0
0200
0200
0200
0200
0400
0800
3000
ENDCHAR
STARTCHAR uni30CB
ENCODING 12491
SWIDTH 1000 0
DWIDTH 12 0
BBX 11 8 0 1
BITMAP
7FC0
0000
0000
0000
0000
0000
0000
FFE0
ENDCHAR
STARTCHAR uni30CC
ENCODING 12492
SWIDTH 1000 0
DWIDTH 12 0
BBX 10 10 0 0
BITMAP
7FC0
0040
0040
1880
0480
0300
0280
0440
1840
E000
ENDCHAR
STARTCHAR uni30CD
ENCODING 12493
SWIDTH 1000 0
DWIDTH 12 0
BBX 11 11 0 0
BITMAP
0400
0400
7FC0
0040
0080
0100
0600
1D80
E460
0400
0400
ENDCHAR
STARTCHAR uni30CE
ENCODING 12494
SWIDTH 1000 0
DWIDTH 12 0
BBX 9 10 1 0
BITMAP
0080
0080
0080
0100
0100
0200
0400
0800
3000
C000
ENDCHAR
STARTCHAR uni30CF
ENCODING 12495
SWIDTH 1000 0
DWIDTH 12 0
BBX 11 10 0 0
BITMAP
1100
1100
1100
1100
2080
2080
2080
4040
4040
8020
ENDCHAR
STARTCHAR uni30D0
ENCODING 12496
SWIDTH 1000 0
DWIDTH 12 0
BBX 11 11 0 0
BITMAP
00A0
11A0
1100
1100
1100
2080
2080
2080
4040
4040
8020
ENDCHAR
STARTCHAR uni30D1
ENCODING 12497
SWIDTH 1000 0
DWIDTH 12 0
BBX 11 11 0 0
BITMAP
0040
11A0
1140
1100
1100
2080
2080
2080
4040
4040
8020
ENDCHAR
STARTCHAR uni30D2
ENCODING 12498
SWIDTH 1000 0
DWIDTH 12 0
BBX 9 11 1 0
BITMAP
8000
8000
8180
8600
F800
8000
8000
8000
8000
8000
7F80
ENDCHAR
STARTCHAR uni30D3
ENCODING 12499
SWIDTH 1000 0
DWIDTH 12 0
BBX 10 11 1 0
BITMAP
8140
8140
8000
8380
FC00
8000
8000
8000
8000
8000
7F80
ENDCHAR
STARTCHAR uni30D4
ENCODING 12500
SWIDTH 1000 0
DWIDTH 12 0
BBX 10 11 1 0
BITMAP
8080
8140
8080
8700
F800
8000
8000
8000
8000
8000
7F80
ENDCHAR
STARTCHAR uni30D5
ENCODING 12501
SWIDTH 1000 0
DWIDTH 12 0
BBX 10 10 0 0
BITMAP
FFC0
0040
0040
0040
0040
0080
0080
0100
0600
3800
ENDCHAR
STARTCHAR uni30D6
ENCODING 12502
SWIDTH 1000 0
DWIDTH 12 0
BBX 11 11 0 0
BITMAP
00A0
FFA0
0080
0080
0080
0080
0100
0100
0200
0C00
7000
ENDCHAR
STARTCHAR uni30D7
ENCODING 12503
SWIDTH 1000 0
DWIDTH 12 0
BBX 11 11 0 0
BITMAP
0040
FFA0
00C0
0080
0080
0080
0100
0100
0200
0C00
7000
ENDCHAR
STARTCHAR uni30D8
ENCODING 12504
SWIDTH 1000 0
DWIDTH 12 0
BBX 11 7 0 2
BITMAP
1800
2400
4200
4100
8080
8040
0020
ENDCHAR
STARTCHAR uni30D9
ENCODING 12505
SWIDTH 1000 0
DWIDTH 12 0
BBX 11 8 0 2
BITMAP
0140
1940
2400
4200
4100
8080
8040
0020
ENDCHAR
STARTCHAR uni30DA
ENCODING 12506
SWIDTH 1000 0
DWIDTH 12 0
BBX 11 8 0 2
BITMAP
0080
1940
2480
4200
4100
8080
8040
0020
ENDCHAR
STARTCHAR uni30DB
ENCODING 12507
SWIDTH 1000 0
DWIDTH 12 0
BBX 11 11 0 0
BITMAP
0400
0400
FFE0
0400
0400
2480
2480
4440
4440
8420
0400
ENDCHAR
STARTCHAR uni30DC
ENCODING 12508
SWIDTH 1000 0
DWIDTH 12 0
BBX 11 11 0 0
BITMAP
04A0
04A0
FFE0
0400
0400
2480
2480
4440
4440
8420
0400
ENDCHAR
STARTCHAR uni30DD
ENCODING 12509
SWIDTH 1000 0
DWIDTH 12 0
BBX 11 11 0 0
BITMAP
0440
04A0
FFE0
0400
0400
2480
2480
4440
4440
8420
0400
ENDCHAR
STARTCHAR uni30DE
ENCODING 12510
SWIDTH 1000 0
DWIDTH 12 0
BBX 11 10 0 0
BITMAP
FFE0
0020
0020
0020
0040
3080
0D00
0200
0100
0080
ENDCHAR
STARTCHAR uni30DF
ENCODING 12511
SWIDTH 1000 0
DWIDTH 12 0
BBX 10 11 1 0
BITMAP
F000
0E00
0180
0000
7000
0E00
0180
0000
F000
0F00
00C0
ENDCHAR
STARTCHAR uni30E0
ENCODING 12512
SWIDTH 1000 0
DWIDTH 12 0
BBX 11 11 0 0
BITMAP
0800
0800
0800
1000
1000
1080
2080
2040
43C0
FC20
0020
ENDCHAR
STARTCHAR uni30E1
ENCODING 12513
SWIDTH 1000 0
DWIDTH 12 0
BBX 10 11 0 0
BITMAP
0080
0080
0080
6080
1900
0500
0200
0500
0880
3040
C000
ENDCHAR
STARTCHAR uni30E2
ENCODING 12514
SWIDTH 1000 0
DWIDTH 12 0
BBX 11 10 0 0
BITMAP
7FC0
0800
0800
0800
FFE0
0800
0800
0800
0800
07C0
ENDCHAR
STARTCHAR uni30E3
ENCODING 12515
SWIDTH 1000 0
DWIDTH 12 0
BBX 9 9 1 0
BITMAP
4000
4780
3880
E080
2100
2200
1000
1000
1000
ENDCHAR
STARTCHAR uni30E4
ENCODING 12516
SWIDTH 1000 0
DWIDTH 12 0
BBX 11 11 0 0
BITMAP
4000
4000
21E0
3E20
E020
1040
1080
1100
0800
0800
0800
ENDCHAR
STARTCHAR uni30E5
ENCODING 12517
SWIDTH 1000 0
DWIDTH 12 0
BBX 10 8 0 1
BITMAP
7F00
0100
0100
0100
0200
0200
0200
FFC0
ENDCHAR
STARTCHAR uni30E6
ENCODING 12518
SWIDTH 1000 0
DWIDTH 12 0
BBX 11 9 0 1
BITMAP
7F80
0080
0080
0080
0080
0100
0100
0100
FFE0
ENDCHAR
STARTCHAR uni30E7
ENCODING 12519
SWIDTH 1000 0
DWIDTH 12 0
BBX 7 8 2 1
BITMAP
FE
02
02
FE
02
02
02
FE
ENDCHAR
STARTCHAR uni30E8
ENCODING 12520
SWIDTH 1000 0
DWIDTH 12 0
BBX 9 9 1 1
BITMAP
FF80
0080
0080
0080
7F80
0080
0080
0080
FF80
ENDCHAR
STARTCHAR uni30E9
ENCODING 12521
SWIDTH 1000 0
DWIDTH 12 0
BBX 10 11 0 0
BITMAP
7F80
0000
0000
FFC0
0040
0040
0040
0080
0080
0300
1C00
ENDCHAR
STARTCHAR uni30EA
ENCODING 12522
SWIDTH 1000 0
DWIDTH 12 0
BBX 9 11 1 0
BITMAP
8080
8080
8080
8080
8080
8080
8080
0080
0100
0200
1C00
ENDCHAR
STARTCHAR uni30EB
ENCODING 12523
SWIDTH 1000 0
DWIDTH 12 0
BBX 11 11 0 0
BITMAP
2200
2200
2200
2200
2200
2200
2220
2220
4240
4280
8300
ENDCHAR
STARTCHAR uni30EC
ENCODING 12524
SWIDTH 1000 0
DWIDTH 12 0
BBX 9 11 1 0
BITMAP
8000
8000
8000
8000
8000
8080
8080
8100
8200
8C00
F000
ENDCHAR
STARTCHAR uni30ED
ENCODING 12525
SWIDTH 1000 0
DWIDTH 12 0
BBX 10 10 0 0
BITMAP
FFC0
8040
8040
8040
8040
8040
8040
8040
8040
FFC0
ENDCHAR
STARTCHAR uni30EE
ENCODING 12526
SWIDTH 1000 0
DWIDTH 12 0
BBX 8 9 1 0
BITMAP
FF
81
81
81
01
01
02
04
18
ENDCHAR
STARTCHAR uni30EF
ENCODING 12527
SWIDTH 1000 0
DWIDTH 12 0
BBX 10 10 0 0
BITMAP
FFC0
8040
8040
8040
8040
0080
0080
0100
0600
1800
ENDCHAR
STARTCHAR uni30F0
ENCODING 12528
SWIDTH 1000 0
DWIDTH 12 0
BBX 11 11 0 0
BITMAP
0100
0100
7FC0
0100
2100
2100
2100
2100
FFE0
0100
0100
ENDCHAR
STARTCHAR uni30F1
ENCODING 12529
SWIDTH 1000 0
DWIDTH 12 0
BBX 11 9 0 1
BITMAP
7FC0
0040
0440
0480
0500
0400
0400
0400
FFE0
ENDCHAR
STARTCHAR uni30F2
ENCODING 12530
SWIDTH 1000 0
DWIDTH 12 0
BBX 10 10 0 0
BITMAP
FFC0
0040
0040
0040
7FC0
0040
0080
0080
0300
3C00
ENDCHAR
STARTCHAR uni30F3
ENCODING 12531
SWIDTH 1000 0
DWIDTH 12 0
BBX 10 10 0 0
BITMAP
C000
3000
0840
0040
0080
0080
0100
0200
0C00
7000
ENDCHAR
STARTCHAR uni30F4
ENCODING 12532
SWIDTH 1000 0
DWIDTH 12 0
BBX 11 11 0 0
BITMAP
08A0
08A0
FFC0
8040
8040
8040
0040
0080
0080
0300
1C00
ENDCHAR
STARTCHAR uni30F5
ENCODING 12533
SWIDTH 1000 0
DWIDTH 12 0
BBX 8 9 1 0
BITMAP
20
20
FF
21
21
21
41
41
8E
ENDCHAR
STARTCHAR uni30F6
ENCODING 12534
SWIDTH 1000 0
DWIDTH 12 0
BBX 9 9 1 0
BITMAP
2000
2000
3F80
4200
8200
0200
0200
0400
1800
ENDCHAR
STARTCHAR uni30F7
ENCODING 12535
SWIDTH 1000 0
DWIDTH 12 0
BBX 11 11 0 0
BITMAP
00A0
00A0
FFC0
8040
8040
8040
0040
0080
0080
0300
1C00
ENDCHAR
STARTCHAR uni30F8
ENCODING 12536
SWIDTH 1000 0
DWIDTH 12 0
BBX 11 11 0 0
BITMAP
0140
0140
7FC0
0100
2100
2100
2100
2100
FFE0
0100
0100
ENDCHAR
STARTCHAR uni30F9
ENCODING 12537
SWIDTH 1000 0
DWIDTH 12 0
BBX 11 10 0 1
BITMAP
00A0
7FE0
0040
0440
0480
0500
0400
0400
0400
FFE0
ENDCHAR
STARTCHAR uni30FA
ENCODING 12538
SWIDTH 1000 0
DWIDTH 12 0
BBX 11 11 0 0
BITMAP
00A0
FFA0
0080
0080
0080
7F80
0080
0100
0100
0600
3800
ENDCHAR
STARTCHAR uni30FB
ENCODING 12539
SWIDTH 1000 0
DWIDTH 12 0
BBX 2 2 4 5
BITMAP
C0
C0
ENDCHAR
STARTCHAR uni30FC
ENCODING 12540
SWIDTH 1000 0
DWIDTH 12 0
BBX 9 2 1 5
BITMAP
8000
7F80
ENDCHAR
STARTCHAR uni30FD
ENCODING 12541
SWIDTH 1000 0
DWIDTH 12 0
BBX 5 5 3 3
BITMAP
80
40
20
10
08
ENDCHAR
STARTCHAR uni30FE
ENCODING 12542
SWIDTH 1000 0
DWIDTH 12 0
BBX 7 6 3 3
BITMAP
04
92
48
20
10
08
ENDCHAR
STARTCHAR $4E00
ENCODING 19968
SWIDTH 1000 0
DWIDTH 12 0
BBX 11 1 0 3
BITMAP
FFE0
ENDCHAR
STARTCHAR $4E01
ENCODING 19969
SWIDTH 1000 0
DWIDTH 12 0
BBX 11 11 0 -2
BITMAP
FFE0
0400
0400
0400
0400
0400
0400
0400
0400
0400
1C00
ENDCHAR
STARTCHAR $4E02-456
ENCODING 19970
SWIDTH 1000 0
DWIDTH 12 0
BBX 11 11 0 -2
BITMAP
FFE0
1000
1000
2000
3FC0
4040
4040
0040
0040
0040
0380
ENDCHAR
STARTCHAR $4E03
ENCODING 19971
SWIDTH 1000 0
DWIDTH 12 0
BBX 11 11 0 -2
BITMAP
0800
0800
0800
0860
0F80
F800
0800
0800
0820
0820
07E0
ENDCHAR
STARTCHAR $4E04
ENCODING 19972
SWIDTH 1000 0
DWIDTH 12 0
BBX 11 11 0 -2
BITMAP
0400
0400
0400
0400
0400
0400
0400
0400
0400
0400
FFE0
ENDCHAR
STARTCHAR $4E05
ENCODING 19973
SWIDTH 1000 0
DWIDTH 12 0
BBX 11 11 0 -2
BITMAP
FFE0
0400
0400
0400
0400
0400
0400
0400
0400
0400
0400
ENDCHAR
STARTCHAR $4E06
ENCODING 19974
SWIDTH 1000 0
DWIDTH 12 0
BBX 11 11 0 -2
BITMAP
FFE0
0400
0400
0400
0800
0800
1000
1000
2000
4000
8000
ENDCHAR
STARTCHAR $4E07
ENCODING 19975
SWIDTH 1000 0
DWIDTH 12 0
BBX 11 11 0 -2
BITMAP
FFE0
0800
0800
0800
0FC0
0840
0840
1040
1040
2040
C180
ENDCHAR
STARTCHAR $4E08
ENCODING 19976
SWIDTH 1000 0
DWIDTH 12 0
BBX 11 11 0 -2
BITMAP
0100
0100
FFE0
0100
2100
2100
1200
0A00
0400
1B00
E0E0
ENDCHAR
STARTCHAR $4E09
ENCODING 19977
SWIDTH 1000 0
DWIDTH 12 0
BBX 11 11 0 -2
BITMAP
7FC0
0000
0000
0000
0000
3F80
0000
0000
0000
0000
FFE0
ENDCHAR
STARTCHAR $4E0A
ENCODING 19978
SWIDTH 1000 0
DWIDTH 12 0
BBX 11 11 0 -2
BITMAP
0400
0400
0400
0400
07C0
0400
0400
0400
0400
0400
FFE0
ENDCHAR
STARTCHAR $4E0B
ENCODING 19979
SWIDTH 1000 0
DWIDTH 12 0
BBX 11 11 0 -2
BITMAP
FFE0
0400
0400
0400
0500
0480
0440
0400
0400
0400
0400
ENDCHAR
STARTCHAR $4E0C
ENCODING 19980
SWIDTH 1000 0
DWIDTH 12 0
BBX 11 11 0 -2
BITMAP
FFE0
1080
1080
1080
1080
1080
1080
2080
2080
4080
8080
ENDCHAR
STARTCHAR $4E0D
ENCODING 19981
SWIDTH 1000 0
DWIDTH 12 0
BBX 11 11 0 -2
BITMAP
FFE0
0200
0400
0C00
1500
2480
C440
0420
0400
0400
0400
ENDCHAR
STARTCHAR $4E0E-456
ENCODING 19982
SWIDTH 1000 0
DWIDTH 12 0
BBX 11 11 0 -2
BITMAP
1000
1FC0
1000
2000
3F80
0080
0080
FFE0
0080
0080
0700
ENDCHAR
STARTCHAR $4E0F
ENCODING 19983
SWIDTH 1000 0
DWIDTH 12 0
BBX 11 11 0 -2
BITMAP
FFE0
0400
0400
47E0
4420
4420
7FE0
0020
0020
0020
01C0
ENDCHAR
STARTCHAR $4E10
ENCODING 19984
SWIDTH 1000 0
DWIDTH 12 0
BBX 11 11 0 -2
BITMAP
FFE0
0400
0400
47C0
4400
4400
7FE0
0020
0020
0020
01C0
ENDCHAR
STARTCHAR $4E11
ENCODING 19985
SWIDTH 1000 0
DWIDTH 12 0
BBX 11 11 0 -2
BITMAP
7F80
0880
0880
0880
0880
FFE0
1080
1080
1080
1080
FFE0
ENDCHAR
STARTCHAR $4E12
ENCODING 19986
SWIDTH 1000 0
DWIDTH 12 0
BBX 11 11 0 -2
BITMAP
7FE0
0420
2420
1420
0820
0820
1420
2220
C0C0
0000
FFE0
ENDCHAR
STARTCHAR $4E13
ENCODING 19987
SWIDTH 1000 0
DWIDTH 12 0
BBX 11 11 0 -2
BITMAP
0400
7FC0
0800
0800
FFE0
1000
3FC0
0080
1900
0600
0180
ENDCHAR
STARTCHAR $4E14
ENCODING 19988
SWIDTH 1000 0
DWIDTH 12 0
BBX 11 11 0 -2
BITMAP
3F80
2080
2080
3F80
2080
2080
3F80
2080
2080
2080
FFE0
ENDCHAR
STARTCHAR $4E15
ENCODING 19989
SWIDTH 1000 0
DWIDTH 12 0
BBX 11 11 0 -2
BITMAP
FFE0
0200
0400
0C00
1500
24C0
C420
0400
0400
0000
FFE0
ENDCHAR
STARTCHAR $4E16
ENCODING 19990
SWIDTH 1000 0
DWIDTH 12 0
BBX 11 11 0 -2
BITMAP
2480
2480
2480
FFE0
2480
2480
2480
2780
2000
2000
3FE0
ENDCHAR
STARTCHAR $4E17
ENCODING 19991
SWIDTH 1000 0
DWIDTH 12 0
BBX 11 11 0 -2
BITMAP
2480
2480
2480
FFE0
2480
2480
2480
2480
2480
2480
3F80
ENDCHAR
STARTCHAR $4E18
ENCODING 19992
SWIDTH 1000 0
DWIDTH 12 0
BBX 11 11 0 -2
BITMAP
0180
3E00
2000
2000
3FC0
2100
2100
2100
2100
2100
FFE0
ENDCHAR
STARTCHAR $4E19
ENCODING 19993
SWIDTH 1000 0
DWIDTH 12 0
BBX 11 11 0 -2
BITMAP
FFE0
0400
0400
FFE0
8420
8A20
9120
A0A0
8020
8020
80E0
ENDCHAR
STARTCHAR $4E1A
ENCODING 19994
SWIDTH 1000 0
DWIDTH 12 0
BBX 11 11 0 -2
BITMAP
1100
1100
1100
9120
9120
5140
5140
1100
1100
1100
FFE0
ENDCHAR
STARTCHAR $4E1B
ENCODING 19995
SWIDTH 1000 0
DWIDTH 12 0
BBX 11 11 0 -2
BITMAP
1100
1100
1100
1100
2A80
2A80
4440
4440
8820
0000
FFE0
ENDCHAR
STARTCHAR $4E1C
ENCODING 19996
SWIDTH 1000 0
DWIDTH 12 0
BBX 11 11 0 -2
BITMAP
0800
FFE0
1000
2400
4400
7FC0
0400
2480
4440
8420
1C00
ENDCHAR
STARTCHAR $4E1D
ENCODING 19997
SWIDTH 1000 0
DWIDTH 12 0
BBX 11 11 0 -2
BITMAP
1040
1040
2080
2080
4920
F3C0
2080
4100
FBE0
0000
FFE0
ENDCHAR
STARTCHAR $4E1E
ENCODING 19998
SWIDTH 1000 0
DWIDTH 12 0
BBX 11 11 0 -2
BITMAP
3F80
0100
0200
F520
1540
2480
2480
4440
8C20
0000
FFE0
ENDCHAR
STARTCHAR $4E1F
ENCODING 19999
SWIDTH 1000 0
DWIDTH 12 0
BBX 11 11 0 -2
BITMAP
7FC0
0400
0400
7FC0
0400
0400
FFE0
0800
1100
2080
7F40
ENDCHAR
STARTCHAR $4E20
ENCODING 20000
SWIDTH 1000 0
DWIDTH 12 0
BBX 11 11 0 -2
BITMAP
1200
1240
F280
1300
1200
3200
D220
1220
11E0
0000
FFE0
ENDCHAR
STARTCHAR $4E21
ENCODING 20001
SWIDTH 1000 0
DWIDTH 12 0
BBX 11 11 0 -2
BITMAP
FFE0
0400
0400
FFE0
8420
A4A0
A4A0
A4A0
BFA0
8020
80E0
ENDCHAR
STARTCHAR $4E22
ENCODING 20002
SWIDTH 1000 0
DWIDTH 12 0
BBX 11 11 0 -2
BITMAP
03C0
7C00
0400
7FC0
0400
0400
FFE0
0800
1100
2080
7F40
ENDCHAR
STARTCHAR $4E23
ENCODING 20003
SWIDTH 1000 0
DWIDTH 12 0
BBX 11 11 0 -2
BITMAP
FFE0
1100
1100
F1E0
9120
9120
9120
F1E0
1100
2100
C100
ENDCHAR
STARTCHAR $4E24
ENCODING 20004
SWIDTH 1000 0
DWIDTH 12 0
BBX 11 11 0 -2
BITMAP
FFE0
1100
1100
FFE0
9120
9120
AAA0
C460
8020
8020
80E0
ENDCHAR
STARTCHAR $4E25
ENCODING 20005
SWIDTH 1000 0
DWIDTH 12 0
BBX 11 11 0 -2
BITMAP
7FE0
0900
4920
2940
0900
7FE0
4000
4000
4000
4000
8000
ENDCHAR
STARTCHAR $4E26
ENCODING 20006
SWIDTH 1000 0
DWIDTH 12 0
BBX 11 11 0 -2
BITMAP
2080
1100
FFE0
1100
1100
9120
5120
5140
1100
1100
FFE0
ENDCHAR
STARTCHAR $4E27
ENCODING 20007
SWIDTH 1000 0
DWIDTH 12 0
BBX 11 11 0 -2
BITMAP
0400
7FC0
0400
2480
1500
FFE0
2400
2220
2140
2C80
3060
ENDCHAR
STARTCHAR $4E28
ENCODING 20008
SWIDTH 1000 0
DWIDTH 12 0
BBX 1 11 5 -2
BITMAP
80
80
80
80
80
80
80
80
80
80
80
ENDCHAR
STARTCHAR $4E29-456
ENCODING 20009
SWIDTH 1000 0
DWIDTH 12 0
BBX 6 11 2 -2
BITMAP
04
44
44
44
44
44
44
5C
E4
04
04
ENDCHAR
STARTCHAR $4E2A
ENCODING 20010
SWIDTH 1000 0
DWIDTH 12 0
BBX 11 11 0 -2
BITMAP
0400
0A00
1100
2080
C460
0400
0400
0400
0400
0400
0400
ENDCHAR
STARTCHAR $4E2B
ENCODING 20011
SWIDTH 1000 0
DWIDTH 12 0
BBX 9 11 1 -2
BITMAP
8080
4100
2200
1400
0800
0800
0800
0800
0800
0800
0800
ENDCHAR
STARTCHAR $4E2C
ENCODING 20012
SWIDTH 1000 0
DWIDTH 12 0
BBX 4 11 3 -2
BITMAP
10
10
90
50
10
10
30
50
90
10
10
ENDCHAR
STARTCHAR $4E2D
ENCODING 20013
SWIDTH 1000 0
DWIDTH 12 0
BBX 11 11 0 -2
BITMAP
0400
0400
FFE0
8420
8420
8420
FFE0
0400
0400
0400
0400
ENDCHAR
STARTCHAR $4E2E
ENCODING 20014
SWIDTH 1000 0
DWIDTH 12 0
BBX 11 11 0 -2
BITMAP
FF80
0080
1080
1080
FE80
1080
1080
FE80
10A0
10A0
1040
ENDCHAR
STARTCHAR $4E2F
ENCODING 20015
SWIDTH 1000 0
DWIDTH 12 0
BBX 11 11 0 -2
BITMAP
0400
04C0
0700
7C00
04C0
0700
7C00
0460
0780
FC00
0400
ENDCHAR
STARTCHAR $4E30
ENCODING 20016
SWIDTH 1000 0
DWIDTH 12 0
BBX 11 11 0 -2
BITMAP
0400
0400
7FC0
0400
0400
3F80
0400
0400
FFE0
0400
0400
ENDCHAR
STARTCHAR $4E31-456
ENCODING 20017
SWIDTH 1000 0
DWIDTH 12 0
BBX 11 11 0 -2
BITMAP
1100
1100
9120
9120
9120
9120
F1E0
9120
1100
2100
C100
ENDCHAR
STARTCHAR $4E32
ENCODING 20018
SWIDTH 1000 0
DWIDTH 12 0
BBX 11 11 0 -2
BITMAP
0400
7FC0
4440
4440
7FC0
0400
FFE0
8420
8420
FFE0
0400
ENDCHAR
STARTCHAR $4E33
ENCODING 20019
SWIDTH 1000 0
DWIDTH 12 0
BBX 11 11 0 -2
BITMAP
1100
7FC0
5140
7FC0
1100
FFE0
9120
FFE0
1100
2100
4100
ENDCHAR
STARTCHAR $4E34
ENCODING 20020
SWIDTH 1000 0
DWIDTH 12 0
BBX 11 11 0 -2
BITMAP
2200
2200
A3E0
A500
A880
A000
AFE0
A920
A920
2920
2FE0
ENDCHAR
STARTCHAR $4E35-456
ENCODING 20021
SWIDTH 1000 0
DWIDTH 12 0
BBX 11 11 0 -2
BITMAP
0A00
2A80
2A80
FFE0
2080
1100
7FC0
0400
FFE0
0400
0400
ENDCHAR
STARTCHAR $4E36
ENCODING 20022
SWIDTH 1000 0
DWIDTH 12 0
BBX 4 5 4 1
BITMAP
80
40
20
10
10
ENDCHAR
STARTCHAR $4E37
ENCODING 20023
SWIDTH 1000 0
DWIDTH 12 0
BBX 9 5 1 1
BITMAP
8080
4080
4100
2100
2200
ENDCHAR
STARTCHAR $4E38
ENCODING 20024
SWIDTH 1000 0
DWIDTH 12 0
BBX 11 11 0 -2
BITMAP
1000
1000
FF00
1100
5100
3100
1100
2900
2520
4120
81E0
ENDCHAR
STARTCHAR $4E39
ENCODING 20025
SWIDTH 1000 0
DWIDTH 12 0
BBX 11 11 0 -2
BITMAP
3FC0
2040
2440
2240
2040
FFE0
2040
2040
4040
4040
81C0
ENDCHAR
STARTCHAR $4E3A
ENCODING 20026
SWIDTH 1000 0
DWIDTH 12 0
BBX 11 11 0 -2
BITMAP
2400
1400
0400
7FE0
0420
0520
08A0
08A0
1020
2020
C0C0
ENDCHAR
STARTCHAR $4E3B
ENCODING 20027
SWIDTH 1000 0
DWIDTH 12 0
BBX 11 11 0 -2
BITMAP
0800
0400
FFE0
0400
0400
0400
7FC0
0400
0400
0400
FFE0
ENDCHAR
STARTCHAR $4E3C
ENCODING 20028
SWIDTH 1000 0
DWIDTH 12 0
BBX 11 11 0 -2
BITMAP
1080
1080
FFE0
1080
1480
1280
1080
FFE0
1080
2080
C080
ENDCHAR
STARTCHAR $4E3D
ENCODING 20029
SWIDTH 1000 0
DWIDTH 12 0
BBX 11 11 0 -2
BITMAP
FFE0
0000
FBE0
8A20
8A20
CB20
AAA0
8A20
8A20
8A20
9A60
ENDCHAR
STARTCHAR $4E3E
ENCODING 20030
SWIDTH 1000 0
DWIDTH 12 0
BBX 11 11 0 -2
BITMAP
4840
2480
FFE0
1100
2480
C460
3F80
0400
7FC0
0400
0400
ENDCHAR
STARTCHAR $4E3F
ENCODING 20031
SWIDTH 1000 0
DWIDTH 12 0
BBX 5 11 2 -2
BITMAP
08
08
08
08
08
10
10
20
20
40
80
ENDCHAR
STARTCHAR $4E40
ENCODING 20032
SWIDTH 1000 0
DWIDTH 12 0
BBX 10 11 1 -2
BITMAP
8000
8000
4000
4000
2000
2000
1000
0800
0400
0300
00C0
ENDCHAR
STARTCHAR $4E41
ENCODING 20033
SWIDTH 1000 0
DWIDTH 12 0
BBX 8 11 2 -2
BITMAP
F0
10
10
10
08
08
08
04
04
02
01
ENDCHAR
STARTCHAR $4E42
ENCODING 20034
SWIDTH 1000 0
DWIDTH 12 0
BBX 11 11 0 -2
BITMAP
4040
4040
2080
2080
1100
1100
0A00
0400
0A00
3180
C060
ENDCHAR
STARTCHAR $4E43
ENCODING 20035
SWIDTH 1000 0
DWIDTH 12 0
BBX 11 11 0 -2
BITMAP
7F80
1080
1080
1100
11E0
1020
1020
2020
2020
4020
81C0
ENDCHAR
STARTCHAR $4E44
ENCODING 20036
SWIDTH 1000 0
DWIDTH 12 0
BBX 11 11 0 -2
BITMAP
0040
0040
0040
1880
0480
0300
0100
8280
8440
4820
3000
ENDCHAR
STARTCHAR $4E45
ENCODING 20037
SWIDTH 1000 0
DWIDTH 12 0
BBX 11 11 0 -2
BITMAP
1000
1000
1F00
2100
4100
8200
0400
0A00
1100
2080
C060
ENDCHAR
STARTCHAR $4E46
ENCODING 20038
SWIDTH 1000 0
DWIDTH 12 0
BBX 11 11 0 -2
BITMAP
0400
4400
4400
4400
9C00
E400
0A00
0A00
1100
2080
C060
ENDCHAR
STARTCHAR $4E47
ENCODING 20039
SWIDTH 1000 0
DWIDTH 12 0
BBX 11 11 0 -2
BITMAP
07C0
F800
0800
0800
0800
0FE0
F800
0800
0820
0820
07E0
ENDCHAR
STARTCHAR $4E48
ENCODING 20040
SWIDTH 1000 0
DWIDTH 12 0
BBX 11 11 0 -2
BITMAP
0800
0800
1100
1100
2200
4200
8400
0840
1040
21A0
7E20
ENDCHAR
STARTCHAR $4E49
ENCODING 20041
SWIDTH 1000 0
DWIDTH 12 0
BBX 11 11 0 -2
BITMAP
0800
4440
4440
2080
2080
1100
0A00
0400
0A00
3180
C060
ENDCHAR
STARTCHAR $4E4A
ENCODING 20042
SWIDTH 1000 0
DWIDTH 12 0
BBX 9 6 1 3
BITMAP
0780
F800
0000
4100
2100
2200
ENDCHAR
STARTCHAR $4E4B-456
ENCODING 20043
SWIDTH 1000 0
DWIDTH 12 0
BBX 11 11 0 -2
BITMAP
0400
0400
FFC0
0080
0100
0200
2400
2800
5000
4C00
83E0
ENDCHAR
STARTCHAR $4E4C
ENCODING 20044
SWIDTH 1000 0
DWIDTH 12 0
BBX 11 11 0 -2
BITMAP
0800
3F80
2080
2080
2180
2000
3FE0
0020
FF20
0020
01C0
ENDCHAR
STARTCHAR $4E4D
ENCODING 20045
SWIDTH 1000 0
DWIDTH 12 0
BBX 11 11 0 -2
BITMAP
2000
2000
3FE0
4800
8800
0FC0
0800
0800
0FC0
0800
0800
ENDCHAR
STARTCHAR $4E4E
ENCODING 20046
SWIDTH 1000 0
DWIDTH 12 0
BBX 11 11 0 -2
BITMAP
03C0
7C00
0400
4440
2480
0400
FFE0
0400
0400
0400
1C00
ENDCHAR
STARTCHAR $4E4F-456
ENCODING 20047
SWIDTH 1000 0
DWIDTH 12 0
BBX 11 11 0 -2
BITMAP
01C0
FE00
0400
0400
FFC0
0080
0100
2200
2400
5800
87E0
ENDCHAR
STARTCHAR $4E50
ENCODING 20048
SWIDTH 1000 0
DWIDTH 12 0
BBX 11 11 0 -2
BITMAP
01C0
7E00
4000
4400
8400
FFE0
0400
2480
4440
8420
1C00
ENDCHAR
STARTCHAR $4E51
ENCODING 20049
SWIDTH 1000 0
DWIDTH 12 0
BBX 11 11 0 -2
BITMAP
03C0
7C00
0400
1420
2640
C680
0500
1500
2480
C460
0400
ENDCHAR
STARTCHAR $4E52
ENCODING 20050
SWIDTH 1000 0
DWIDTH 12 0
BBX 11 11 0 -2
BITMAP
0180
3E00
2000
3FC0
2100
2100
2100
FFE0
0000
2000
C000
ENDCHAR
STARTCHAR $4E53
ENCODING 20051
SWIDTH 1000 0
DWIDTH 12 0
BBX 11 11 0 -2
BITMAP
0180
3E00
2000
3FC0
2100
2100
2100
FFE0
0000
0080
0060
ENDCHAR
STARTCHAR $4E54
ENCODING 20052
SWIDTH 1000 0
DWIDTH 12 0
BBX 11 11 0 -2
BITMAP
03C0
7C00
0800
FFE0
1100
2080
D160
1100
1100
2100
4100
ENDCHAR
STARTCHAR $4E55
ENCODING 20053
SWIDTH 1000 0
DWIDTH 12 0
BBX 12 12 0 -2
BITMAP
FFF0
7FD0
4210
7FF0
4210
7FF0
4210
5FD0
5250
5250
92D0
8210
ENDCHAR
STARTCHAR $4E56
ENCODING 20054
SWIDTH 1000 0
DWIDTH 12 0
BBX 11 11 0 -2
BITMAP
03C0
7C00
0400
FFE0
0400
1520
F540
1580
3520
D4E0
0400
ENDCHAR
STARTCHAR $4E57
ENCODING 20055
SWIDTH 1000 0
DWIDTH 12 0
BBX 11 11 0 -2
BITMAP
03C0
7C00
0400
7FC0
2480
FFE0
2480
7FC0
1500
2480
C460
ENDCHAR
STARTCHAR $4E58
ENCODING 20056
SWIDTH 1000 0
DWIDTH 12 0
BBX 11 11 0 -2
BITMAP
03C0
7C00
0400
FFE0
1540
F580
1520
F4E0
0E00
3580
C460
ENDCHAR
STARTCHAR $4E59
ENCODING 20057
SWIDTH 1000 0
DWIDTH 12 0
BBX 11 11 0 -2
BITMAP
FF80
0100
0200
0400
0800
1000
2000
4000
8020
8020
7FE0
ENDCHAR
STARTCHAR $4E5A
ENCODING 20058
SWIDTH 1000 0
DWIDTH 12 0
BBX 9 11 1 -2
BITMAP
8000
8000
8000
8000
8000
8000
8000
8000
8080
8080
7F80
ENDCHAR
STARTCHAR $4E5B
ENCODING 20059
SWIDTH 1000 0
DWIDTH 12 0
BBX 11 3 0 5
BITMAP
FFE0
0020
0040
ENDCHAR
STARTCHAR $4E5C
ENCODING 20060
SWIDTH 1000 0
DWIDTH 12 0
BBX 11 11 0 -2
BITMAP
2000
2000
2180
2680
3880
E080
2080
2380
2020
2020
1FE0
ENDCHAR
STARTCHAR $4E5D
ENCODING 20061
SWIDTH 1000 0
DWIDTH 12 0
BBX 11 11 0 -2
BITMAP
1000
1000
FF00
1100
1100
1100
1100
2100
2120
4120
81E0
ENDCHAR
STARTCHAR $4E5E
ENCODING 20062
SWIDTH 1000 0
DWIDTH 12 0
BBX 11 11 0 -2
BITMAP
2000
3FE0
4000
8000
7F80
0100
0600
1800
2000
4020
3FE0
ENDCHAR
STARTCHAR $4E5F
ENCODING 20063
SWIDTH 1000 0
DWIDTH 12 0
BBX 11 11 0 -2
BITMAP
0400
2400
24C0
2740
3C40
E440
24C0
2400
2020
2020
1FE0
ENDCHAR
STARTCHAR $4E60
ENCODING 20064
SWIDTH 1000 0
DWIDTH 12 0
BBX 10 11 1 -2
BITMAP
FFC0
0040
2040
1040
0840
0040
0140
0640
1840
6040
0180
ENDCHAR
STARTCHAR $4E61
ENCODING 20065
SWIDTH 1000 0
DWIDTH 12 0
BBX 11 11 0 -2
BITMAP
0400
0800
1100
3E00
0400
0820
3FC0
0080
0100
0600
F800
ENDCHAR
STARTCHAR $4E62
ENCODING 20066
SWIDTH 1000 0
DWIDTH 12 0
BBX 11 11 0 -2
BITMAP
2200
2200
AA00
AA00
AA00
AA00
AA00
AA00
FA20
0220
01E0
ENDCHAR
STARTCHAR $4E64
ENCODING 20068
SWIDTH 1000 0
DWIDTH 12 0
BBX 11 11 0 -2
BITMAP
FFE0
0400
0580
0440
0400
FF80
0100
0E00
7000
8020
7FE0
ENDCHAR
STARTCHAR $4E66
ENCODING 20070
SWIDTH 1000 0
DWIDTH 12 0
BBX 11 11 0 -2
BITMAP
0880
0840
7F80
0880
0880
FFE0
0820
0820
0820
08C0
0800
ENDCHAR
STARTCHAR $4E68
ENCODING 20072
SWIDTH 1000 0
DWIDTH 12 0
BBX 11 11 0 -2
BITMAP
2100
2100
4900
8900
F500
0100
FD00
8500
8520
8520
FCE0
ENDCHAR
STARTCHAR $4E69
ENCODING 20073
SWIDTH 1000 0
DWIDTH 12 0
BBX 11 11 0 -2
BITMAP
2200
2200
3A00
2200
2200
2200
FA00
8A00
8A20
8A20
F9E0
ENDCHAR
STARTCHAR $4E6A
ENCODING 20074
SWIDTH 1000 0
DWIDTH 12 0
BBX 11 11 0 -2
BITMAP
F7C0
1540
1540
2540
27C0
4540
4540
8540
87C0
8020
7FE0
ENDCHAR
STARTCHAR $4E6B
ENCODING 20075
SWIDTH 1000 0
DWIDTH 12 0
BBX 11 11 0 -2
BITMAP
2000
FBE0
2A20
4A20
9BE0
0000
FF80
0600
7800
8020
7FE0
ENDCHAR
STARTCHAR $4E6C
ENCODING 20076
SWIDTH 1000 0
DWIDTH 12 0
BBX 11 11 0 -2
BITMAP
7FC0
4000
7F80
4080
7F80
4000
FFC0
0600
7800
8020
7FE0
ENDCHAR
STARTCHAR $4E6D
ENCODING 20077
SWIDTH 1000 0
DWIDTH 12 0
BBX 11 11 0 -2
BITMAP
FFE0
1000
3FC0
E040
3FC0
0000
FF80
0600
7800
8020
7FE0
ENDCHAR
STARTCHAR $4E6E-456
ENCODING 20078
SWIDTH 1000 0
DWIDTH 12 0
BBX 11 11 0 -2
BITMAP
1000
61E0
4920
5920
E960
1100
FF80
0600
7800
8020
7FE0
ENDCHAR
STARTCHAR $4E6F
ENCODING 20079
SWIDTH 1000 0
DWIDTH 12 0
BBX 11 11 0 -2
BITMAP
03C0
7C40
2480
FFE0
0400
1C00
FF80
0600
7800
8020
7FE0
ENDCHAR
STARTCHAR $4E70
ENCODING 20080
SWIDTH 1000 0
DWIDTH 12 0
BBX 11 11 0 -2
BITMAP
FFE0
0020
2240
1200
4200
2200
FFE0
0400
0900
3080
C060
ENDCHAR
STARTCHAR $4E71
ENCODING 20081
SWIDTH 1000 0
DWIDTH 12 0
BBX 11 11 0 -2
BITMAP
0D00
7100
1100
1100
FD00
1100
1100
7D00
4520
4520
7CE0
ENDCHAR
STARTCHAR $4E73-46
ENCODING 20083
SWIDTH 1000 0
DWIDTH 12 0
BBX 11 11 0 -2
BITMAP
7D00
4900
A500
9300
7D00
0900
1100
1D00
F120
1120
70E0
ENDCHAR
STARTCHAR $4E74
ENCODING 20084
SWIDTH 1000 0
DWIDTH 12 0
BBX 11 11 0 -2
BITMAP
20C0
F700
2400
37E0
E480
2880
FF80
0600
7800
8020
7FE0
ENDCHAR
STARTCHAR $4E75-456
ENCODING 20085
SWIDTH 1000 0
DWIDTH 12 0
BBX 11 11 0 -2
BITMAP
1100
1100
FF00
4500
2900
FF00
1100
1100
FF20
1120
10E0
ENDCHAR
STARTCHAR $4E76-234
ENCODING 20086
SWIDTH 1000 0
DWIDTH 12 0
BBX 11 11 0 -2
BITMAP
0480
FFE0
0400
7FC0
4440
7FC0
4440
7FC0
3020
4020
3FC0
ENDCHAR
STARTCHAR $4E77-234
ENCODING 20087
SWIDTH 1000 0
DWIDTH 12 0
BBX 11 11 0 -2
BITMAP
4100
2540
8920
4300
1040
2080
7FC0
0780
7820
8020
7FC0
ENDCHAR
STARTCHAR $4E78
ENCODING 20088
SWIDTH 1000 0
DWIDTH 12 0
BBX 11 11 0 -2
BITMAP
17C0
5540
5CC0
77E0
D540
54C0
5FE0
5040
40C0
4020
3FE0
ENDCHAR
STARTCHAR $4E79
ENCODING 20089
SWIDTH 1000 0
DWIDTH 12 0
BBX 11 11 0 -2
BITMAP
2200
FA00
2200
FA00
8A00
FA00
8A00
FA00
2220
FA20
21E0
ENDCHAR
STARTCHAR $4E7C
ENCODING 20092
SWIDTH 1000 0
DWIDTH 12 0
BBX 11 11 0 -2
BITMAP
4100
2FE0
8100
47C0
2100
CFE0
0000
FF80
1E00
E020
1FE0
ENDCHAR
STARTCHAR $4E7E
ENCODING 20094
SWIDTH 1000 0
DWIDTH 12 0
BBX 11 11 0 -2
BITMAP
2200
FBE0
2200
FC00
8BC0
F840
8880
F900
2200
FA20
21E0
ENDCHAR
STARTCHAR $4E7F-456
ENCODING 20095
SWIDTH 1000 0
DWIDTH 12 0
BBX 11 11 0 -2
BITMAP
7D00
A900
9500
2100
C900
3100
4500
FB00
1120
5520
92E0
ENDCHAR
STARTCHAR $4E80
ENCODING 20096
SWIDTH 1000 0
DWIDTH 12 0
BBX 10 11 1 -2
BITMAP
3E00
4200
FF00
4900
FF80
8880
FF80
8880
FF80
0840
07C0
ENDCHAR
STARTCHAR $4E81
ENCODING 20097
SWIDTH 1000 0
DWIDTH 12 0
BBX 11 11 0 -2
BITMAP
2200
FBE0
2200
FC00
8BC0
F840
0080
F900
2200
FA20
21E0
ENDCHAR
STARTCHAR $4E82-456
ENCODING 20098
SWIDTH 1000 0
DWIDTH 12 0
BBX 11 11 0 -2
BITMAP
7D00
A900
9500
7900
1100
FD00
A500
FD00
AD20
9520
ACE0
ENDCHAR
STARTCHAR $4E83
ENCODING 20099
SWIDTH 1000 0
DWIDTH 12 0
BBX 11 11 0 -2
BITMAP
5480
3880
FE80
5480
9280
4480
6E80
9480
5EA0
24A0
C4E0
ENDCHAR
STARTCHAR $4E84
ENCODING 20100
SWIDTH 1000 0
DWIDTH 12 0
BBX 11 11 0 -2
BITMAP
1100
FD00
1100
FD00
8500
7D00
4900
7900
2920
1D20
E0E0
ENDCHAR
STARTCHAR $4E85
ENCODING 20101
SWIDTH 1000 0
DWIDTH 12 0
BBX 3 11 3 -2
BITMAP
20
20
20
20
20
20
20
20
20
20
E0
ENDCHAR
STARTCHAR $4E86
ENCODING 20102
SWIDTH 1000 0
DWIDTH 12 0
BBX 9 11 1 -2
BITMAP
FF80
0080
0100
0200
0400
0400
0400
0400
0400
0400
1C00
ENDCHAR
STARTCHAR $4E87
ENCODING 20103
SWIDTH 1000 0
DWIDTH 12 0
BBX 11 11 0 -2
BITMAP
2000
3FE0
4020
8440
0400
0400
0400
0400
0400
0400
1C00
ENDCHAR
STARTCHAR $4E88
ENCODING 20104
SWIDTH 1000 0
DWIDTH 12 0
BBX 11 11 0 -2
BITMAP
7FC0
0080
1900
0600
FFE0
0420
0440
0480
0400
0400
1C00
ENDCHAR
STARTCHAR $4E89
ENCODING 20105
SWIDTH 1000 0
DWIDTH 12 0
BBX 11 11 0 -2
BITMAP
2000
3F00
4100
7FC0
0440
FFE0
0440
7FC0
0400
0400
1C00
ENDCHAR
STARTCHAR $4E8A
ENCODING 20106
SWIDTH 1000 0
DWIDTH 12 0
BBX 11 11 0 -2
BITMAP
0400
FFE0
2480
1500
7FC0
0440
FFE0
0440
7FC0
0400
1C00
ENDCHAR
STARTCHAR $4E8B
ENCODING 20107
SWIDTH 1000 0
DWIDTH 12 0
BBX 11 11 0 -2
BITMAP
0400
FFE0
2480
2480
7FC0
0440
FFE0
0440
7FC0
0400
1C00
ENDCHAR
STARTCHAR $4E8C
ENCODING 20108
SWIDTH 1000 0
DWIDTH 12 0
BBX 11 9 0 -1
BITMAP
7FC0
0000
0000
0000
0000
0000
0000
0000
FFE0
ENDCHAR
STARTCHAR $4E8D
ENCODING 20109
SWIDTH 1000 0
DWIDTH 12 0
BBX 11 11 0 -2
BITMAP
7FC0
0000
0000
FFE0
0400
0400
0400
0400
0400
0400
1C00
ENDCHAR
STARTCHAR $4E8E
ENCODING 20110
SWIDTH 1000 0
DWIDTH 12 0
BBX 11 11 0 -2
BITMAP
7FC0
0400
0400
0400
0400
FFE0
0400
0400
0400
0400
1C00
ENDCHAR
STARTCHAR $4E8F
ENCODING 20111
SWIDTH 1000 0
DWIDTH 12 0
BBX 11 11 0 -2
BITMAP
7FC0
0000
0000
FFE0
1000
2000
3FC0
0040
0040
0040
0380
ENDCHAR
STARTCHAR $4E90
ENCODING 20112
SWIDTH 1000 0
DWIDTH 12 0
BBX 11 11 0 -2
BITMAP
7FC0
0800
1000
FFE0
1000
2000
3FC0
0040
0040
0040
0380
ENDCHAR
STARTCHAR $4E91
ENCODING 20113
SWIDTH 1000 0
DWIDTH 12 0
BBX 11 11 0 -2
BITMAP
7FC0
0000
0000
0000
FFE0
0800
0800
1080
1080
2340
7C40
ENDCHAR
STARTCHAR $4E92
ENCODING 20114
SWIDTH 1000 0
DWIDTH 12 0
BBX 11 11 0 -2
BITMAP
FFE0
1000
1000
1FC0
2040
2040
4080
7F80
0100
0100
FFE0
ENDCHAR
STARTCHAR $4E93
ENCODING 20115
SWIDTH 1000 0
DWIDTH 12 0
BBX 11 11 0 -2
BITMAP
7FC0
0000
0000
FFE0
1100
1100
1100
1100
1100
2100
C100
ENDCHAR
STARTCHAR $4E94
ENCODING 20116
SWIDTH 1000 0
DWIDTH 12 0
BBX 11 11 0 -2
BITMAP
FFC0
0800
0800
0800
7F80
1080
1080
1080
2080
2080
FFE0
ENDCHAR
STARTCHAR $4E95
ENCODING 20117
SWIDTH 1000 0
DWIDTH 12 0
BBX 11 11 0 -2
BITMAP
1100
1100
FFE0
1100
1100
1100
1100
FFE0
1100
2100
C100
ENDCHAR
STARTCHAR $4E96
ENCODING 20118
SWIDTH 1000 0
DWIDTH 12 0
BBX 11 10 0 -2
BITMAP
3F80
0000
0000
7FC0
0000
0000
3F80
0000
0000
FFE0
ENDCHAR
STARTCHAR $4E97
ENCODING 20119
SWIDTH 1000 0
DWIDTH 12 0
BBX 11 11 0 -2
BITMAP
0400
4440
4440
7FC0
0000
0000
7FC0
0000
0000
0000
FFE0
ENDCHAR
STARTCHAR $4E98
ENCODING 20120
SWIDTH 1000 0
DWIDTH 12 0
BBX 11 11 0 -2
BITMAP
FFE0
0000
7FC0
4040
4040
7FC0
4040
4040
7FC0
0000
FFE0
ENDCHAR
STARTCHAR $4E99
ENCODING 20121
SWIDTH 1000 0
DWIDTH 12 0
BBX 11 11 0 -2
BITMAP
FFE0
1000
1000
1FC0
1040
2C40
2280
5880
4500
0100
FFE0
ENDCHAR
STARTCHAR $4E9A
ENCODING 20122
SWIDTH 1000 0
DWIDTH 12 0
BBX 11 11 0 -2
BITMAP
FFE0
1100
1100
1100
9120
9120
5140
5140
1100
1100
FFE0
ENDCHAR
STARTCHAR $4E9B
ENCODING 20123
SWIDTH 1000 0
DWIDTH 12 0
BBX 11 11 0 -2
BITMAP
1100
5120
5D40
5180
5120
5D20
E0E0
0000
3F80
0000
FFE0
ENDCHAR
STARTCHAR $4E9C
ENCODING 20124
SWIDTH 1000 0
DWIDTH 12 0
BBX 11 11 0 -2
BITMAP
FFE0
1100
1100
FFE0
9120
9120
9120
FFE0
1100
1100
FFE0
ENDCHAR
STARTCHAR $4E9D
ENCODING 20125
SWIDTH 1000 0
DWIDTH 12 0
BBX 11 11 0 -2
BITMAP
1000
2080
7FC0
0000
2080
4920
FBE0
0000
7FC0
0000
FFE0
ENDCHAR
STARTCHAR $4E9E
ENCODING 20126
SWIDTH 1000 0
DWIDTH 12 0
BBX 11 11 0 -2
BITMAP
FFE0
1100
1100
F1E0
8020
8020
8020
F1E0
1100
1100
FFE0
ENDCHAR
STARTCHAR $4E9F
ENCODING 20127
SWIDTH 1000 0
DWIDTH 12 0
BBX 11 11 0 -2
BITMAP
FFE0
0800
0C00
F5E0
9420
94A0
9440
F4A0
0D20
0000
FFE0
ENDCHAR
STARTCHAR $4EA0-456
ENCODING 20128
SWIDTH 1000 0
DWIDTH 12 0
BBX 11 3 0 3
BITMAP
0400
0400
FFE0
ENDCHAR
STARTCHAR $4EA1-456
ENCODING 20129
SWIDTH 1000 0
DWIDTH 12 0
BBX 11 11 0 -2
BITMAP
0400
0400
FFE0
2000
2000
2000
2000
2000
2000
2000
3FC0
ENDCHAR
STARTCHAR $4EA2-456
ENCODING 20130
SWIDTH 1000 0
DWIDTH 12 0
BBX 11 11 0 -2
BITMAP
0400
0400
FFE0
0000
1F00
1100
1100
1100
1120
2120
C1E0
ENDCHAR
STARTCHAR $4EA3
ENCODING 20131
SWIDTH 1000 0
DWIDTH 12 0
BBX 11 11 0 -2
BITMAP
0800
0400
FFE0
1100
1100
1100
1100
1100
2100
2100
4100
ENDCHAR
STARTCHAR $4EA4
ENCODING 20132
SWIDTH 1000 0
DWIDTH 12 0
BBX 11 11 0 -2
BITMAP
0400
FFE0
0000
1100
2080
D160
0A00
0400
0A00
3180
C060
ENDCHAR
STARTCHAR $4EA5-456
ENCODING 20133
SWIDTH 1000 0
DWIDTH 12 0
BBX 11 11 0 -2
BITMAP
0400
FFE0
1000
2100
4200
2440
1880
E100
0600
1980
E060
ENDCHAR
STARTCHAR $4EA6-456
ENCODING 20134
SWIDTH 1000 0
DWIDTH 12 0
BBX 11 11 0 -2
BITMAP
0400
0400
FFE0
1100
1100
5140
5120
9120
2100
2100
4700
ENDCHAR
STARTCHAR $4EA7
ENCODING 20135
SWIDTH 1000 0
DWIDTH 12 0
BBX 11 11 0 -2
BITMAP
0200
7FE0
1040
0880
7FE0
4000
4000
4000
4000
4000
8000
ENDCHAR
STARTCHAR $4EA8
ENCODING 20136
SWIDTH 1000 0
DWIDTH 12 0
BBX 11 11 0 -2
BITMAP
0400
FFE0
2080
2080
3F80
0000
7F80
0100
0600
0400
1C00
ENDCHAR
STARTCHAR $4EA9
ENCODING 20137
SWIDTH 1000 0
DWIDTH 12 0
BBX 11 11 0 -2
BITMAP
0800
0400
FFE0
0000
7FC0
4440
4440
7FC0
4440
4440
7FC0
ENDCHAR
STARTCHAR $4EAB
ENCODING 20139
SWIDTH 1000 0
DWIDTH 12 0
BBX 11 11 0 -2
BITMAP
0400
FFE0
2080
3F80
0000
7F80
0100
0600
FFE0
0400
1C00
ENDCHAR
STARTCHAR $4EAC
ENCODING 20140
SWIDTH 1000 0
DWIDTH 12 0
BBX 11 11 0 -2
BITMAP
0400
FFE0
0000
7FC0
4040
4040
7FC0
0400
2480
C460
1C00
ENDCHAR
STARTCHAR $4EAD
ENCODING 20141
SWIDTH 1000 0
DWIDTH 12 0
BBX 11 11 0 -2
BITMAP
0400
FFE0
2080
3F80
0000
FFE0
8020
BFA0
0400
0400
1C00
ENDCHAR
STARTCHAR $4EAE
ENCODING 20142
SWIDTH 1000 0
DWIDTH 12 0
BBX 11 11 0 -2
BITMAP
0400
FFE0
2080
3F80
0000
FFE0
8020
1100
1100
2120
C1E0
ENDCHAR
STARTCHAR $4EAF
ENCODING 20143
SWIDTH 1000 0
DWIDTH 12 0
BBX 11 11 0 -2
BITMAP
0400
FFE0
2080
2080
3F80
0000
7FC0
4040
7FC0
4040
7FC0
ENDCHAR
STARTCHAR $4EB0
ENCODING 20144
SWIDTH 1000 0
DWIDTH 12 0
BBX 11 11 0 -2
BITMAP
0400
FFE0
0000
7FC0
4040
7FC0
4040
7FC0
0400
2480
CC60
ENDCHAR
STARTCHAR $4EB1
ENCODING 20145
SWIDTH 1000 0
DWIDTH 12 0
BBX 11 11 0 -2
BITMAP
0400
FFE0
0000
2FC0
2840
4840
CFC0
4840
4FC0
4000
5FE0
ENDCHAR
STARTCHAR $4EB2
ENCODING 20146
SWIDTH 1000 0
DWIDTH 12 0
BBX 11 11 0 -2
BITMAP
0400
7FC0
2080
1100
FFE0
0400
FFE0
0E00
1500
2480
C460
ENDCHAR
STARTCHAR $4EB3
ENCODING 20147
SWIDTH 1000 0
DWIDTH 12 0
BBX 11 11 0 -2
BITMAP
0400
FFE0
2080
3F80
0000
FFE0
8320
7C00
07C0
FC20
07E0
ENDCHAR
STARTCHAR $4EB4
ENCODING 20148
SWIDTH 1000 0
DWIDTH 12 0
BBX 11 11 0 -2
BITMAP
0400
FFE0
2080
FFE0
8420
3F80
0400
7FC0
1100
2120
C1E0
ENDCHAR
STARTCHAR $4EB5-456
ENCODING 20149
SWIDTH 1000 0
DWIDTH 12 0
BBX 11 11 0 -2
BITMAP
0400
FFE0
2200
F7C0
2240
F240
2560
1A00
E140
2C80
7060
ENDCHAR
STARTCHAR $4EB6
ENCODING 20150
SWIDTH 1000 0
DWIDTH 12 0
BBX 11 11 0 -2
BITMAP
0400
FFE0
5140
5140
5F40
4040
7FC0
2080
3F80
2080
FFE0
ENDCHAR
STARTCHAR $4EB7
ENCODING 20151
SWIDTH 1000 0
DWIDTH 12 0
BBX 11 11 0 -2
BITMAP
0400
FFE0
1080
7FE0
4540
7FE0
4540
5FC0
4D80
5540
A520
ENDCHAR
STARTCHAR $4EB8
ENCODING 20152
SWIDTH 1000 0
DWIDTH 12 0
BBX 11 11 0 -2
BITMAP
2220
FD40
4BE0
7AA0
03E0
7AA0
13E0
3880
E3E0
2080
6080
ENDCHAR
STARTCHAR $4EB9
ENCODING 20153
SWIDTH 1000 0
DWIDTH 12 0
BBX 11 11 0 -2
BITMAP
0400
FFE0
2AC0
4A40
6EC0
4A40
FFE0
A0A0
3F80
2080
FFE0
ENDCHAR
STARTCHAR $4EBA
ENCODING 20154
SWIDTH 1000 0
DWIDTH 12 0
BBX 11 11 0 -2
BITMAP
0400
0400
0400
0400
0A00
0A00
1100
1100
2080
4040
8020
ENDCHAR
STARTCHAR $4EBB
ENCODING 20155
SWIDTH 1000 0
DWIDTH 12 0
BBX 4 11 0 -2
BITMAP
10
10
20
20
60
A0
20
20
20
20
20
ENDCHAR
STARTCHAR $4EBC
ENCODING 20156
SWIDTH 1000 0
DWIDTH 12 0
BBX 11 11 0 -2
BITMAP
0400
0400
0400
0A00
0A00
1100
1100
2080
C060
0000
FFE0
ENDCHAR
STARTCHAR $4EBD
ENCODING 20157
SWIDTH 1000 0
DWIDTH 12 0
BBX 11 9 0 0
BITMAP
0400
0A00
3180
C060
0000
0000
1800
0600
0100
ENDCHAR
STARTCHAR $4EBE
ENCODING 20158
SWIDTH 1000 0
DWIDTH 12 0
BBX 11 11 0 -2
BITMAP
8200
8200
8200
8500
8500
8880
8880
9040
A020
8000
FFE0
ENDCHAR
STARTCHAR $4EBF
ENCODING 20159
SWIDTH 1000 0
DWIDTH 12 0
BBX 11 11 0 -2
BITMAP
2FC0
2040
4080
4100
C200
4200
4400
4400
4820
4820
47E0
ENDCHAR
STARTCHAR $4EC0
ENCODING 20160
SWIDTH 1000 0
DWIDTH 12 0
BBX 11 11 0 -2
BITMAP
1100
1100
2100
2100
6FE0
A100
2100
2100
2100
2100
2100
ENDCHAR
STARTCHAR $4EC1
ENCODING 20161
SWIDTH 1000 0
DWIDTH 12 0
BBX 11 11 0 -2
BITMAP
2000
2FC0
4000
4000
C000
4000
4000
4000
4000
5FE0
4000
ENDCHAR
STARTCHAR $4EC2
ENCODING 20162
SWIDTH 1000 0
DWIDTH 12 0
BBX 11 11 0 -2
BITMAP
2200
2200
5FE0
4220
C220
4220
4220
4420
4420
4820
50C0
ENDCHAR
STARTCHAR $4EC3
ENCODING 20163
SWIDTH 1000 0
DWIDTH 12 0
BBX 11 11 0 -2
BITMAP
2FE0
2080
4080
4080
C080
4080
4080
4080
4080
4080
4380
ENDCHAR
STARTCHAR $4EC4
ENCODING 20164
SWIDTH 1000 0
DWIDTH 12 0
BBX 11 11 0 -2
BITMAP
7FE0
4200
4200
4200
4200
4500
4500
4880
4880
5040
A020
ENDCHAR
STARTCHAR $4EC5
ENCODING 20165
SWIDTH 1000 0
DWIDTH 12 0
BBX 11 11 0 -2
BITMAP
2FE0
2820
4820
4820
C440
4440
4440
4280
4100
4280
4C60
ENDCHAR
STARTCHAR $4EC6
ENCODING 20166
SWIDTH 1000 0
DWIDTH 12 0
BBX 11 11 0 -2
BITMAP
1100
1100
2100
2100
6180
A140
2120
2100
2100
2100
2100
ENDCHAR
STARTCHAR $4EC7
ENCODING 20167
SWIDTH 1000 0
DWIDTH 12 0
BBX 11 11 0 -2
BITMAP
2400
2400
5F80
4480
C480
4480
4480
4480
48A0
48A0
50E0
ENDCHAR
STARTCHAR $4EC8-3456
ENCODING 20168
SWIDTH 1000 0
DWIDTH 12 0
BBX 11 11 0 -2
BITMAP
2780
2080
4480
4480
C480
4480
4480
4840
4840
4840
5020
ENDCHAR
STARTCHAR $4EC9
ENCODING 20169
SWIDTH 1000 0
DWIDTH 12 0
BBX 11 11 0 -2
BITMAP
2F80
2880
4880
4880
C880
4880
4880
4880
50A0
50A0
60E0
ENDCHAR
STARTCHAR $4ECA
ENCODING 20170
SWIDTH 1000 0
DWIDTH 12 0
BBX 11 11 0 -2
BITMAP
0400
0A00
3180
C060
1F00
0000
7FC0
0080
0100
0200
0400
ENDCHAR
STARTCHAR $4ECB
ENCODING 20171
SWIDTH 1000 0
DWIDTH 12 0
BBX 11 11 0 -2
BITMAP
0400
0A00
1100
2080
D160
1100
1100
1100
2100
2100
4100
ENDCHAR
STARTCHAR $4ECC
ENCODING 20172
SWIDTH 1000 0
DWIDTH 12 0
BBX 11 11 0 -2
BITMAP
0400
0400
0400
0A00
3180
C460
0400
0400
0A00
3180
C060
ENDCHAR
STARTCHAR $4ECD
ENCODING 20173
SWIDTH 1000 0
DWIDTH 12 0
BBX 11 11 0 -2
BITMAP
2FC0
2440
4440
4480
C4E0
4420
4420
4420
4820
4820
50C0
ENDCHAR
STARTCHAR $4ECE
ENCODING 20174
SWIDTH 1000 0
DWIDTH 12 0
BBX 11 11 0 -2
BITMAP
1100
1100
1100
1100
1100
2A80
2A80
2A80
4440
4440
8820
ENDCHAR
STARTCHAR $4ECF
ENCODING 20175
SWIDTH 1000 0
DWIDTH 12 0
BBX 11 11 0 -2
BITMAP
2200
2200
4200
4200
C200
4400
4440
4440
4820
48E0
5F20
ENDCHAR
STARTCHAR $4ED0
ENCODING 20176
SWIDTH 1000 0
DWIDTH 12 0
BBX 11 11 0 -2
BITMAP
0400
0A00
3180
C060
0400
0400
FFE0
0400
0400
0400
0400
ENDCHAR
STARTCHAR $4ED1
ENCODING 20177
SWIDTH 1000 0
DWIDTH 12 0
BBX 11 11 0 -2
BITMAP
0400
0A00
3180
C060
2000
2080
2300
3C00
2040
2040
1FC0
ENDCHAR
STARTCHAR $4ED2
ENCODING 20178
SWIDTH 1000 0
DWIDTH 12 0
BBX 11 11 0 -2
BITMAP
0400
0A00
3180
C060
0C00
0200
0100
0000
1800
0600
0100
ENDCHAR
STARTCHAR $4ED3
ENCODING 20179
SWIDTH 1000 0
DWIDTH 12 0
BBX 11 11 0 -2
BITMAP
0400
0A00
3180
C060
3F80
2080
2080
2380
2000
2020
1FE0
ENDCHAR
STARTCHAR $4ED4
ENCODING 20180
SWIDTH 1000 0
DWIDTH 12 0
BBX 11 11 0 -2
BITMAP
2FC0
2040
4080
4100
C100
4FE0
4100
4100
4100
4100
4700
ENDCHAR
STARTCHAR $4ED5
ENCODING 20181
SWIDTH 1000 0
DWIDTH 12 0
BBX 11 11 0 -2
BITMAP
2100
2100
4100
4100
DFE0
4100
4100
4100
4100
4100
4FC0
ENDCHAR
STARTCHAR $4ED6
ENCODING 20182
SWIDTH 1000 0
DWIDTH 12 0
BBX 11 11 0 -2
BITMAP
2100
2900
4960
4BA0
DD20
4920
4960
4900
4820
4820
47E0
ENDCHAR
STARTCHAR $4ED7
ENCODING 20183
SWIDTH 1000 0
DWIDTH 12 0
BBX 11 11 0 -2
BITMAP
2080
2080
5FE0
4080
C880
4880
4500
4500
4200
4500
58E0
ENDCHAR
STARTCHAR $4ED8
ENCODING 20184
SWIDTH 1000 0
DWIDTH 12 0
BBX 11 11 0 -2
BITMAP
2080
2080
4FE0
4080
C080
4880
4480
4480
4080
4080
4380
ENDCHAR
STARTCHAR $4ED9
ENCODING 20185
SWIDTH 1000 0
DWIDTH 12 0
BBX 11 11 0 -2
BITMAP
2100
2100
4100
4920
C920
4920
4920
4920
4920
4920
4FE0
ENDCHAR
STARTCHAR $4EDA
ENCODING 20186
SWIDTH 1000 0
DWIDTH 12 0
BBX 11 11 0 -2
BITMAP
0400
0A00
3180
C060
0400
0400
4440
4440
4440
4440
7FC0
ENDCHAR
STARTCHAR $4EDB
ENCODING 20187
SWIDTH 1000 0
DWIDTH 12 0
BBX 11 11 0 -2
BITMAP
21C0
2E00
4200
4200
C200
43E0
5E00
4200
4220
4220
41E0
ENDCHAR
STARTCHAR $4EDC
ENCODING 20188
SWIDTH 1000 0
DWIDTH 12 0
BBX 11 11 0 -2
BITMAP
2FE0
2100
4100
4100
C100
4100
4100
4100
4100
4100
4FE0
ENDCHAR
STARTCHAR $4EDD
ENCODING 20189
SWIDTH 1000 0
DWIDTH 12 0
BBX 11 11 0 -2
BITMAP
0400
0A00
3180
C060
0000
7FC0
0400
0400
0400
0400
FFE0
ENDCHAR
STARTCHAR $4EDE
ENCODING 20190
SWIDTH 1000 0
DWIDTH 12 0
BBX 11 11 0 -2
BITMAP
2FE0
2220
4220
4A20
CA20
5220
4220
4420
4420
4820
50C0
ENDCHAR
STARTCHAR $4EDF
ENCODING 20191
SWIDTH 1000 0
DWIDTH 12 0
BBX 11 11 0 -2
BITMAP
10C0
1700
2100
2100
6100
AFE0
2100
2100
2100
2100
2100
ENDCHAR
STARTCHAR $4EE0
ENCODING 20192
SWIDTH 1000 0
DWIDTH 12 0
BBX 11 11 0 -2
BITMAP
2FC0
2100
4100
4100
C100
5FE0
4100
4100
4100
4100
4100
ENDCHAR
STARTCHAR $4EE1
ENCODING 20193
SWIDTH 1000 0
DWIDTH 12 0
BBX 11 11 0 -2
BITMAP
2400
27E0
4800
5000
CFC0
4080
4100
4200
4400
4820
47E0
ENDCHAR
STARTCHAR $4EE2
ENCODING 20194
SWIDTH 1000 0
DWIDTH 12 0
BBX 11 11 0 -2
BITMAP
2400
2400
47E0
4820
D020
4220
4120
4120
4020
4020
40C0
ENDCHAR
STARTCHAR $4EE3
ENCODING 20195
SWIDTH 1000 0
DWIDTH 12 0
BBX 11 11 0 -2
BITMAP
2280
2240
4200
43E0
DE00
4200
4200
4100
4120
40A0
4060
ENDCHAR
STARTCHAR $4EE4
ENCODING 20196
SWIDTH 1000 0
DWIDTH 12 0
BBX 11 11 0 -2
BITMAP
0400
0A00
3180
C060
1F00
0000
7FC0
0840
0840
09C0
0800
ENDCHAR
STARTCHAR $4EE5
ENCODING 20197
SWIDTH 1000 0
DWIDTH 12 0
BBX 11 11 0 -2
BITMAP
0080
4880
4480
4480
4080
4080
4900
5100
6280
C440
1820
ENDCHAR
STARTCHAR $4EE6
ENCODING 20198
SWIDTH 1000 0
DWIDTH 12 0
BBX 11 11 0 -2
BITMAP
2100
2100
4100
4540
C540
4920
4920
5120
4100
4100
4300
ENDCHAR
STARTCHAR $4EE7
ENCODING 20199
SWIDTH 1000 0
DWIDTH 12 0
BBX 11 11 0 -2
BITMAP
0400
0400
07C0
0400
0400
FFE0
0400
0A00
0A00
1100
E0E0
ENDCHAR
STARTCHAR $4EE8
ENCODING 20200
SWIDTH 1000 0
DWIDTH 12 0
BBX 11 11 0 -2
BITMAP
2000
2FC0
4000
4000
C000
4FC0
4000
4000
4000
5FE0
4000
ENDCHAR
STARTCHAR $4EE9
ENCODING 20201
SWIDTH 1000 0
DWIDTH 12 0
BBX 11 11 0 -2
BITMAP
2200
2200
4200
4200
C3C0
4200
4200
4200
4200
4200
5FE0
ENDCHAR
STARTCHAR $4EEA
ENCODING 20202
SWIDTH 1000 0
DWIDTH 12 0
BBX 11 11 0 -2
BITMAP
2200
2920
4920
4820
C440
4440
4440
4280
4100
4280
4C60
ENDCHAR
STARTCHAR $4EEB
ENCODING 20203
SWIDTH 1000 0
DWIDTH 12 0
BBX 11 11 0 -2
BITMAP
2200
2200
4480
4480
C900
5100
4200
4240
4440
49A0
5E20
ENDCHAR
STARTCHAR $4EEC
ENCODING 20204
SWIDTH 1000 0
DWIDTH 12 0
BBX 11 11 0 -2
BITMAP
29E0
2420
4020
4820
C820
4820
4820
4820
4820
4820
48E0
ENDCHAR
STARTCHAR $4EED-6
ENCODING 20205
SWIDTH 1000 0
DWIDTH 12 0
BBX 11 11 0 -2
BITMAP
2FC0
2240
4240
4A40
CA40
4640
4340
42C0
4460
4440
49C0
ENDCHAR
STARTCHAR $4EEE
ENCODING 20206
SWIDTH 1000 0
DWIDTH 12 0
BBX 11 11 0 -2
BITMAP
2FE0
2800
4800
4FE0
C820
4C20
4A40
4940
4880
4940
5620
ENDCHAR
STARTCHAR $4EEF
ENCODING 20207
SWIDTH 1000 0
DWIDTH 12 0
BBX 11 11 0 -2
BITMAP
2100
2100
4940
4920
C920
5100
4320
4040
4080
4300
5C00
ENDCHAR
STARTCHAR $4EF0
ENCODING 20208
SWIDTH 1000 0
DWIDTH 12 0
BBX 11 11 0 -2
BITMAP
2400
39E0
5120
5120
D120
5120
5120
5520
5960
4100
4100
ENDCHAR
STARTCHAR $4EF1
ENCODING 20209
SWIDTH 1000 0
DWIDTH 12 0
BBX 11 11 0 -2
BITMAP
2100
2280
4440
5820
C380
4000
4FE0
4020
4040
4080
4100
ENDCHAR
STARTCHAR $4EF2
ENCODING 20210
SWIDTH 1000 0
DWIDTH 12 0
BBX 11 11 0 -2
BITMAP
2100
2100
4FE0
4920
C920
4920
4FE0
4100
4100
4100
4100
ENDCHAR
STARTCHAR $4EF3-456
ENCODING 20211
SWIDTH 1000 0
DWIDTH 12 0
BBX 11 11 0 -2
BITMAP
2880
2880
4880
48A0
CEC0
4880
4880
4880
48A0
4AA0
5CE0
ENDCHAR
STARTCHAR $4EF4
ENCODING 20212
SWIDTH 1000 0
DWIDTH 12 0
BBX 11 11 0 -2
BITMAP
27E0
2420
4420
47E0
C420
4420
47E0
4420
4420
4820
50E0
ENDCHAR
STARTCHAR $4EF5
ENCODING 20213
SWIDTH 1000 0
DWIDTH 12 0
BBX 11 11 0 -2
BITMAP
2400
27C0
4900
4100
C100
4FE0
4100
4100
4100
4100
4100
ENDCHAR
STARTCHAR $4EF6
ENCODING 20214
SWIDTH 1000 0
DWIDTH 12 0
BBX 11 11 0 -2
BITMAP
2900
2900
4FE0
5100
C100
4100
5FE0
4100
4100
4100
4100
ENDCHAR
STARTCHAR $4EF7
ENCODING 20215
SWIDTH 1000 0
DWIDTH 12 0
BBX 11 11 0 -2
BITMAP
2100
2280
4440
5820
C440
4440
4440
4440
4440
4440
4840
ENDCHAR
STARTCHAR $4EF8
ENCODING 20216
SWIDTH 1000 0
DWIDTH 12 0
BBX 11 11 0 -2
BITMAP
20C0
2F00
4100
4100
C100
5FE0
4100
4280
4280
4440
5820
ENDCHAR
STARTCHAR $4EF9
ENCODING 20217
SWIDTH 1000 0
DWIDTH 12 0
BBX 11 11 0 -2
BITMAP
2100
2100
5FE0
4100
C100
4FC0
4100
4100
5FE0
4100
4100
ENDCHAR
STARTCHAR $4EFA
ENCODING 20218
SWIDTH 1000 0
DWIDTH 12 0
BBX 11 11 0 -2
BITMAP
0400
0A00
3180
C060
3F80
2000
2000
3F80
2000
2000
3F80
ENDCHAR
STARTCHAR $4EFB
ENCODING 20219
SWIDTH 1000 0
DWIDTH 12 0
BBX 11 11 0 -2
BITMAP
20C0
2F00
4100
4100
C100
5FE0
4100
4100
4100
4100
4FC0
ENDCHAR
STARTCHAR $4EFC
ENCODING 20220
SWIDTH 1000 0
DWIDTH 12 0
BBX 11 11 0 -2
BITMAP
2FE0
2100
4100
4100
C100
4FE0
4100
4100
4100
4100
4FE0
ENDCHAR
STARTCHAR $4EFD-346
ENCODING 20221
SWIDTH 1000 0
DWIDTH 12 0
BBX 11 11 0 -2
BITMAP
2780
2080
4840
4840
D020
4FC0
4440
4440
4840
4840
5180
ENDCHAR
STARTCHAR $4EFE
ENCODING 20222
SWIDTH 1000 0
DWIDTH 12 0
BBX 11 11 0 -2
BITMAP
2FE0
2200
4200
43E0
C420
4440
4840
4F80
4080
4080
4FE0
ENDCHAR
STARTCHAR $4EFF-456
ENCODING 20223
SWIDTH 1000 0
DWIDTH 12 0
BBX 11 11 0 -2
BITMAP
2200
2200
5FE0
4400
C400
47C0
4440
4440
4840
4840
5180
ENDCHAR
STARTCHAR $4F00-346
ENCODING 20224
SWIDTH 1000 0
DWIDTH 12 0
BBX 11 11 0 -2
BITMAP
2780
2080
4840
4840
D020
4200
4200
4440
4440
49A0
5E20
ENDCHAR
STARTCHAR $4F01
ENCODING 20225
SWIDTH 1000 0
DWIDTH 12 0
BBX 11 11 0 -2
BITMAP
0400
0A00
3180
C060
0400
2400
27C0
2400
2400
2400
FFE0
ENDCHAR
STARTCHAR $4F02
ENCODING 20226
SWIDTH 1000 0
DWIDTH 12 0
BBX 11 11 0 -2
BITMAP
2100
2100
4FE0
4100
CFE0
4920
4920
4920
4920
4960
4100
ENDCHAR
STARTCHAR $4F03
ENCODING 20227
SWIDTH 1000 0
DWIDTH 12 0
BBX 11 11 0 -2
BITMAP
2FC0
2040
4280
4100
DFE0
4120
4140
4100
4100
4100
4700
ENDCHAR
STARTCHAR $4F04
ENCODING 20228
SWIDTH 1000 0
DWIDTH 12 0
BBX 11 11 0 -2
BITMAP
2FE0
2120
4120
4FE0
C900
4900
4FE0
4120
4120
4160
4100
ENDCHAR
STARTCHAR $4F05-456
ENCODING 20229
SWIDTH 1000 0
DWIDTH 12 0
BBX 11 11 0 -2
BITMAP
2160
2F80
4100
4920
C920
4920
4FE0
4100
4100
4120
40E0
ENDCHAR
STARTCHAR $4F06
ENCODING 20230
SWIDTH 1000 0
DWIDTH 12 0
BBX 11 11 0 -2
BITMAP
2400
2400
47E0
4AA0
D2A0
42A0
44A0
4520
4920
4220
44C0
ENDCHAR
STARTCHAR $4F07
ENCODING 20231
SWIDTH 1000 0
DWIDTH 12 0
BBX 11 11 0 -2
BITMAP
2780
2480
4480
4480
D8E0
4000
4FC0
4840
4480
4300
5CE0
ENDCHAR
STARTCHAR $4F08
ENCODING 20232
SWIDTH 1000 0
DWIDTH 12 0
BBX 11 11 0 -2
BITMAP
2200
2100
4100
4400
D440
5420
5420
5400
4440
4440
43C0
ENDCHAR
STARTCHAR $4F09-456
ENCODING 20233
SWIDTH 1000 0
DWIDTH 12 0
BBX 11 11 0 -2
BITMAP
2100
2100
5FE0
4000
C780
4480
4480
4480
44A0
48A0
50E0
ENDCHAR
STARTCHAR $4F0A
ENCODING 20234
SWIDTH 1000 0
DWIDTH 12 0
BBX 11 11 0 -2
BITMAP
2FC0
2240
4240
5FE0
C240
4240
4FC0
4200
4200
4400
5800
ENDCHAR
STARTCHAR $4F0B-346
ENCODING 20235
SWIDTH 1000 0
DWIDTH 12 0
BBX 11 11 0 -2
BITMAP
2FC0
2440
4440
4480
C7E0
4420
4620
4540
4880
4940
5620
ENDCHAR
STARTCHAR $4F0C
ENCODING 20236
SWIDTH 1000 0
DWIDTH 12 0
BBX 11 11 0 -2
BITMAP
2FE0
2800
4800
4BC0
CA40
4A40
4AC0
4A00
4A20
4A20
51E0
ENDCHAR
STARTCHAR $4F0D
ENCODING 20237
SWIDTH 1000 0
DWIDTH 12 0
BBX 11 11 0 -2
BITMAP
2FC0
2200
4200
4200
CFC0
4240
4240
4440
4440
4440
5FE0
ENDCHAR
STARTCHAR $4F0E
ENCODING 20238
SWIDTH 1000 0
DWIDTH 12 0
BBX 11 11 0 -2
BITMAP
2100
2100
5FE0
4100
C100
4FC0
4840
4840
4480
4300
5CE0
ENDCHAR
STARTCHAR $4F0F
ENCODING 20239
SWIDTH 1000 0
DWIDTH 12 0
BBX 11 11 0 -2
BITMAP
1140
1120
2100
2FE0
6100
A280
2280
2280
2440
2440
2820
ENDCHAR
STARTCHAR $4F10
ENCODING 20240
SWIDTH 1000 0
DWIDTH 12 0
BBX 11 11 0 -2
BITMAP
2280
2240
4200
43E0
DE00
4240
4280
4100
4120
46A0
5860
ENDCHAR
STARTCHAR $4F11
ENCODING 20241
SWIDTH 1000 0
DWIDTH 12 0
BBX 11 11 0 -2
BITMAP
2200
2200
5FE0
4200
C700
4A80
4A80
5240
5240
6220
4200
ENDCHAR
STARTCHAR $4F12
ENCODING 20242
SWIDTH 1000 0
DWIDTH 12 0
BBX 11 11 0 -2
BITMAP
20C0
2F00
4800
4800
CFE0
4880
4880
4880
4880
4880
5080
ENDCHAR
STARTCHAR $4F13
ENCODING 20243
SWIDTH 1000 0
DWIDTH 12 0
BBX 11 11 0 -2
BITMAP
2FE0
2080
4100
4100
C340
4520
5920
4100
4100
4100
4100
ENDCHAR
STARTCHAR $4F14
ENCODING 20244
SWIDTH 1000 0
DWIDTH 12 0
BBX 11 11 0 -2
BITMAP
2FE0
2820
4820
4780
C480
4480
4480
4480
44A0
48A0
50E0
ENDCHAR
STARTCHAR $4F15
ENCODING 20245
SWIDTH 1000 0
DWIDTH 12 0
BBX 11 11 0 -2
BITMAP
1100
1100
27C0
2100
6100
AFE0
2100
2280
2280
2440
2820
ENDCHAR
STARTCHAR $4F16
ENCODING 20246
SWIDTH 1000 0
DWIDTH 12 0
BBX 11 11 0 -2
BITMAP
2400
2400
5FE0
4400
C400
47C0
4440
4440
4A80
4900
56E0
ENDCHAR
STARTCHAR $4F17
ENCODING 20247
SWIDTH 1000 0
DWIDTH 12 0
BBX 11 11 0 -2
BITMAP
0400
0A00
3180
C060
1100
1100
1100
2A80
2A80
4440
8820
ENDCHAR
STARTCHAR $4F18
ENCODING 20248
SWIDTH 1000 0
DWIDTH 12 0
BBX 11 11 0 -2
BITMAP
2280
2240
4200
5FE0
C200
4500
4500
4500
4920
4920
51E0
ENDCHAR
STARTCHAR $4F19
ENCODING 20249
SWIDTH 1000 0
DWIDTH 12 0
BBX 11 11 0 -2
BITMAP
2100
2100
4920
4920
D140
4100
4100
4280
4280
4440
5820
ENDCHAR
STARTCHAR $4F1A
ENCODING 20250
SWIDTH 1000 0
DWIDTH 12 0
BBX 11 11 0 -2
BITMAP
0400
0A00
3180
C060
3F80
0000
0000
FFE0
1000
2080
7F40
ENDCHAR
STARTCHAR $4F1B
ENCODING 20251
SWIDTH 1000 0
DWIDTH 12 0
BBX 11 11 0 -2
BITMAP
2FE0
2800
4A40
4940
C940
4880
4880
4940
4A40
4800
4FE0
ENDCHAR
STARTCHAR $4F1C
ENCODING 20252
SWIDTH 1000 0
DWIDTH 12 0
BBX 11 11 0 -2
BITMAP
2200
2F80
4280
44A0
D8E0
4100
4100
5FE0
4100
4100
4100
ENDCHAR
STARTCHAR $4F1D
ENCODING 20253
SWIDTH 1000 0
DWIDTH 12 0
BBX 11 11 0 -2
BITMAP
2FC0
2000
4000
4000
DFE0
4200
4200
4440
4440
49A0
5E20
ENDCHAR
STARTCHAR $4F1E
ENCODING 20254
SWIDTH 1000 0
DWIDTH 12 0
BBX 11 11 0 -2
BITMAP
0400
0A00
3180
C460
0400
2480
1500
FFE0
0400
0400
0400
ENDCHAR
STARTCHAR $4F1F
ENCODING 20255
SWIDTH 1000 0
DWIDTH 12 0
BBX 11 11 0 -2
BITMAP
2200
2200
5FE0
4200
CFC0
4200
5FE0
4220
4220
42C0
4200
ENDCHAR
STARTCHAR $4F20
ENCODING 20256
SWIDTH 1000 0
DWIDTH 12 0
BBX 11 11 0 -2
BITMAP
2100
2FC0
4200
4200
DFE0
4400
4FC0
4040
4480
4300
4080
ENDCHAR
STARTCHAR $4F21
ENCODING 20257
SWIDTH 1000 0
DWIDTH 12 0
BBX 11 11 0 -2
BITMAP
2200
2FE0
4400
4900
C900
4FE0
4100
4100
5FE0
4100
4100
ENDCHAR
STARTCHAR $4F22
ENCODING 20258
SWIDTH 1000 0
DWIDTH 12 0
BBX 11 11 0 -2
BITMAP
2FE0
2440
4440
4840
CFE0
4040
40C0
4140
4640
5840
41C0
ENDCHAR
STARTCHAR $4F24-234
ENCODING 20260
SWIDTH 1000 0
DWIDTH 12 0
BBX 11 11 0 -2
BITMAP
2400
27E0
4800
4900
C100
4FE0
4120
4220
4220
4420
58C0
ENDCHAR
STARTCHAR $4F25
ENCODING 20261
SWIDTH 1000 0
DWIDTH 12 0
BBX 11 11 0 -2
BITMAP
2440
2440
4480
4500
C400
5FE0
4500
4480
4480
4540
4620
ENDCHAR
STARTCHAR $4F26
ENCODING 20262
SWIDTH 1000 0
DWIDTH 12 0
BBX 11 11 0 -2
BITMAP
2200
2500
4880
5060
C800
4880
4900
4E00
4840
4840
47C0
ENDCHAR
STARTCHAR $4F27
ENCODING 20263
SWIDTH 1000 0
DWIDTH 12 0
BBX 11 11 0 -2
BITMAP
1100
1280
2440
6820
A7C0
2440
2440
25C0
2400
2420
23E0
ENDCHAR
STARTCHAR $4F28
ENCODING 20264
SWIDTH 1000 0
DWIDTH 12 0
BBX 11 11 0 -2
BITMAP
2400
27E0
4820
5020
C620
4120
4020
40A0
4320
4C20
40C0
ENDCHAR
STARTCHAR $4F29-456
ENCODING 20265
SWIDTH 1000 0
DWIDTH 12 0
BBX 11 11 0 -2
BITMAP
2100
2100
5FE0
4440
C440
4440
4280
4280
4100
4280
5C60
ENDCHAR
STARTCHAR $4F2A
ENCODING 20266
SWIDTH 1000 0
DWIDTH 12 0
BBX 11 11 0 -2
BITMAP
2900
2500
4100
5FE0
C220
4320
42A0
44A0
4420
4820
50C0
ENDCHAR
STARTCHAR $4F2B-456
ENCODING 20267
SWIDTH 1000 0
DWIDTH 12 0
BBX 11 11 0 -2
BITMAP
2100
2100
4FE0
4820
C820
4000
4000
4000
4000
4000
4FE0
ENDCHAR
STARTCHAR $4F2C
ENCODING 20268
SWIDTH 1000 0
DWIDTH 12 0
BBX 11 11 0 -2
BITMAP
2FE0
2820
4820
4820
CFE0
4900
4900
4880
4880
4840
5020
ENDCHAR
STARTCHAR $4F2E
ENCODING 20270
SWIDTH 1000 0
DWIDTH 12 0
BBX 11 11 0 -2
BITMAP
2400
24E0
5EA0
4AA0
CAA0
4AA0
52A0
4A40
4440
4AA0
5120
ENDCHAR
STARTCHAR $4F2F
ENCODING 20271
SWIDTH 1000 0
DWIDTH 12 0
BBX 11 11 0 -2
BITMAP
2100
2200
4FE0
4820
C820
4820
4FE0
4820
4820
4820
4FE0
ENDCHAR
STARTCHAR $4F30
ENCODING 20272
SWIDTH 1000 0
DWIDTH 12 0
BBX 11 11 0 -2
BITMAP
2100
2100
5FE0
4100
C100
4100
4FC0
4840
4840
4840
4FC0
ENDCHAR
STARTCHAR $4F32
ENCODING 20274
SWIDTH 1000 0
DWIDTH 12 0
BBX 11 11 0 -2
BITMAP
2FE0
2820
4820
4FE0
C800
4A40
4A80
4B00
4A00
4A20
51E0
ENDCHAR
STARTCHAR $4F33
ENCODING 20275
SWIDTH 1000 0
DWIDTH 12 0
BBX 11 11 0 -2
BITMAP
2A40
2A40
4A40
5FE0
CA40
4A40
4A40
4BC0
4800
4800
4FE0
ENDCHAR
STARTCHAR $4F34-46
ENCODING 20276
SWIDTH 1000 0
DWIDTH 12 0
BBX 11 11 0 -2
BITMAP
2100
2540
4920
4100
CFE0
4100
4100
5FE0
4100
4100
4100
ENDCHAR
STARTCHAR $4F35
ENCODING 20277
SWIDTH 1000 0
DWIDTH 12 0
BBX 11 11 0 -2
BITMAP
2FE0
2AA0
4AA0
4AA0
CAA0
4AA0
4AE0
4C20
4820
4820
4FE0
ENDCHAR
STARTCHAR $4F36
ENCODING 20278
SWIDTH 1000 0
DWIDTH 12 0
BBX 11 11 0 -2
BITMAP
2100
2280
4440
5820
C380
4000
4FE0
4220
4220
42E0
4200
ENDCHAR
STARTCHAR $4F37
ENCODING 20279
SWIDTH 1000 0
DWIDTH 12 0
BBX 11 11 0 -2
BITMAP
2100
2100
4FE0
4920
C920
4920
4FE0
4920
4920
4920
4FE0
ENDCHAR
STARTCHAR $4F38
ENCODING 20280
SWIDTH 1000 0
DWIDTH 12 0
BBX 11 11 0 -2
BITMAP
2100
2100
4FE0
4920
C920
4FE0
4920
4920
4FE0
4100
4100
ENDCHAR
STARTCHAR $4F39
ENCODING 20281
SWIDTH 1000 0
DWIDTH 12 0
BBX 11 11 0 -2
BITMAP
2FC0
2840
4840
4FC0
C840
4840
4FC0
4840
4840
4840
5FE0
ENDCHAR
STARTCHAR $4F3A
ENCODING 20282
SWIDTH 1000 0
DWIDTH 12 0
BBX 11 11 0 -2
BITMAP
2FE0
2020
4FA0
4020
CFA0
48A0
48A0
48A0
4FA0
4020
40E0
ENDCHAR
STARTCHAR $4F3B-46
ENCODING 20283
SWIDTH 1000 0
DWIDTH 12 0
BBX 11 11 0 -2
BITMAP
2FE0
2100
4540
4920
C100
4FE0
4100
4100
4100
4100
4100
ENDCHAR
STARTCHAR $4F3C
ENCODING 20284
SWIDTH 1000 0
DWIDTH 12 0
BBX 11 11 0 -2
BITMAP
2240
2940
4940
4840
C840
4880
4A80
4D40
5940
4220
4420
ENDCHAR
STARTCHAR $4F3D
ENCODING 20285
SWIDTH 1000 0
DWIDTH 12 0
BBX 11 11 0 -2
BITMAP
2800
28E0
5EA0
4AA0
CAA0
4AA0
4AA0
4AA0
4AA0
4AE0
5600
ENDCHAR
STARTCHAR $4F3E
ENCODING 20286
SWIDTH 1000 0
DWIDTH 12 0
BBX 11 11 0 -2
BITMAP
2FE0
2080
4100
4100
C340
4520
5920
4100
4100
4000
4FE0
ENDCHAR
STARTCHAR $4F3F
ENCODING 20287
SWIDTH 1000 0
DWIDTH 12 0
BBX 11 11 0 -2
BITMAP
2FC0
2840
4840
4840
C840
4FC0
4000
4000
4480
4840
5020
ENDCHAR
STARTCHAR $4F40
ENCODING 20288
SWIDTH 1000 0
DWIDTH 12 0
BBX 11 11 0 -2
BITMAP
2FC0
2840
4840
4FC0
C800
4800
4FE0
4820
4820
4820
4FE0
ENDCHAR
STARTCHAR $4F41
ENCODING 20289
SWIDTH 1000 0
DWIDTH 12 0
BBX 11 11 0 -2
BITMAP
2200
2200
4480
4840
DFA0
4020
4FC0
4840
4840
4840
4FC0
ENDCHAR
STARTCHAR $4F42
ENCODING 20290
SWIDTH 1000 0
DWIDTH 12 0
BBX 11 11 0 -2
BITMAP
2FE0
2100
4100
4100
C900
49E0
4900
4900
4900
4900
5FE0
ENDCHAR
STARTCHAR $4F43
ENCODING 20291
SWIDTH 1000 0
DWIDTH 12 0
BBX 11 11 0 -2
BITMAP
2FE0
2920
4920
4920
C920
4FE0
4920
4920
4920
4920
4FE0
ENDCHAR
STARTCHAR $4F44
ENCODING 20292
SWIDTH 1000 0
DWIDTH 12 0
BBX 11 11 0 -2
BITMAP
2840
2840
5FE0
4840
C840
4840
4FC0
4840
4840
4840
4FC0
ENDCHAR
STARTCHAR $4F45
ENCODING 20293
SWIDTH 1000 0
DWIDTH 12 0
BBX 11 11 0 -2
BITMAP
2100
2100
4FC0
4100
C100
5FE0
4100
4380
4540
5920
4100
ENDCHAR
STARTCHAR $4F46
ENCODING 20294
SWIDTH 1000 0
DWIDTH 12 0
BBX 11 11 0 -2
BITMAP
2FC0
2840
4840
4840
CFC0
4840
4840
4840
4FC0
4000
5FE0
ENDCHAR
STARTCHAR $4F47
ENCODING 20295
SWIDTH 1000 0
DWIDTH 12 0
BBX 11 11 0 -2
BITMAP
2100
2FE0
4820
4000
CFE0
4100
4100
4100
4100
4100
4700
ENDCHAR
STARTCHAR $4F48
ENCODING 20296
SWIDTH 1000 0
DWIDTH 12 0
BBX 11 11 0 -2
BITMAP
2200
2FE0
4200
4500
C900
5FE0
4920
4920
4920
4960
4100
ENDCHAR
STARTCHAR $4F49
ENCODING 20297
SWIDTH 1000 0
DWIDTH 12 0
BBX 11 11 0 -2
BITMAP
2100
2100
4FC0
4100
C100
5FE0
4200
4440
4440
49A0
5E20
ENDCHAR
STARTCHAR $4F4A
ENCODING 20298
SWIDTH 1000 0
DWIDTH 12 0
BBX 11 11 0 -2
BITMAP
2100
2FE0
4920
4900
CFE0
4C20
4A20
4940
4880
4940
5620
ENDCHAR
STARTCHAR $4F4B
ENCODING 20299
SWIDTH 1000 0
DWIDTH 12 0
BBX 11 11 0 -2
BITMAP
2FE0
2220
4220
4420
D8E0
4000
4FE0
4820
4820
4820
4FE0
ENDCHAR
STARTCHAR $4F4D-456
ENCODING 20301
SWIDTH 1000 0
DWIDTH 12 0
BBX 11 11 0 -2
BITMAP
2100
2100
5FE0
4000
C840
4840
4440
4480
4480
4100
5FE0
ENDCHAR
STARTCHAR $4F4E-456
ENCODING 20302
SWIDTH 1000 0
DWIDTH 12 0
BBX 11 11 0 -2
BITMAP
20C0
2F00
4900
4900
CFE0
4900
4900
4880
5EA0
4060
5F20
ENDCHAR
STARTCHAR $4F4F
ENCODING 20303
SWIDTH 1000 0
DWIDTH 12 0
BBX 11 11 0 -2
BITMAP
2200
2100
5FE0
4100
C100
4100
4FC0
4100
4100
4100
5FE0
ENDCHAR
STARTCHAR $4F50
ENCODING 20304
SWIDTH 1000 0
DWIDTH 12 0
BBX 11 11 0 -2
BITMAP
2200
2200
5FE0
4400
C400
4800
4FE0
5100
5100
6100
4FE0
ENDCHAR
STARTCHAR $4F51
ENCODING 20305
SWIDTH 1000 0
DWIDTH 12 0
BBX 11 11 0 -2
BITMAP
2200
2200
5FE0
4400
C400
4800
4FE0
5820
6820
4820
4FE0
ENDCHAR
STARTCHAR $4F52
ENCODING 20306
SWIDTH 1000 0
DWIDTH 12 0
BBX 11 11 0 -2
BITMAP
2200
2200
5FC0
5240
D240
5240
7FE0
4200
4500
4880
7060
ENDCHAR
STARTCHAR $4F53
ENCODING 20307
SWIDTH 1000 0
DWIDTH 12 0
BBX 11 11 0 -2
BITMAP
2200
2200
5FE0
4200
C700
4A80
4A80
5240
6FA0
4200
4200
ENDCHAR
STARTCHAR $4F54
ENCODING 20308
SWIDTH 1000 0
DWIDTH 12 0
BBX 11 11 0 -2
BITMAP
2200
2200
43E0
4200
C200
4200
5FC0
5040
5040
5040
5FC0
ENDCHAR
STARTCHAR $4F55
ENCODING 20309
SWIDTH 1000 0
DWIDTH 12 0
BBX 11 11 0 -2
BITMAP
2FE0
2040
4040
4F40
C940
4940
4940
4F40
4040
4040
41C0
ENDCHAR
STARTCHAR $4F56
ENCODING 20310
SWIDTH 1000 0
DWIDTH 12 0
BBX 11 11 0 -2
BITMAP
2400
2240
4040
4480
D480
5520
5520
6620
4400
4C40
53C0
ENDCHAR
STARTCHAR $4F57
ENCODING 20311
SWIDTH 1000 0
DWIDTH 12 0
BBX 11 11 0 -2
BITMAP
2100
2FE0
4820
4400
C440
4480
4700
4400
4420
4420
43E0
ENDCHAR
STARTCHAR $4F58
ENCODING 20312
SWIDTH 1000 0
DWIDTH 12 0
BBX 11 11 0 -2
BITMAP
0400
0A00
3180
DF60
0000
0000
7FC0
0400
2480
C460
0C00
ENDCHAR
STARTCHAR $4F59
ENCODING 20313
SWIDTH 1000 0
DWIDTH 12 0
BBX 11 11 0 -2
BITMAP
0400
0A00
3180
DF60
0400
0400
7FC0
0400
2480
C460
0C00
ENDCHAR
STARTCHAR $4F5A
ENCODING 20314
SWIDTH 1000 0
DWIDTH 12 0
BBX 11 11 0 -2
BITMAP
2900
2900
4FE0
4900
D100
4100
5FE0
4100
4280
4440
5820
ENDCHAR
STARTCHAR $4F5B
ENCODING 20315
SWIDTH 1000 0
DWIDTH 12 0
BBX 11 11 0 -2
BITMAP
2480
2480
5FE0
44A0
DFE0
5480
5FE0
44A0
44A0
48E0
5080
ENDCHAR
STARTCHAR $4F5C
ENCODING 20316
SWIDTH 1000 0
DWIDTH 12 0
BBX 11 11 0 -2
BITMAP
2400
2400
47E0
4A00
D200
43E0
4200
4200
43E0
4200
4200
ENDCHAR
STARTCHAR $4F5D
ENCODING 20317
SWIDTH 1000 0
DWIDTH 12 0
BBX 11 11 0 -2
BITMAP
2400
27E0
4820
5020
CFA0
48A0
48A0
48A0
4FA0
4020
40C0
ENDCHAR
STARTCHAR $4F5E
ENCODING 20318
SWIDTH 1000 0
DWIDTH 12 0
BBX 11 11 0 -2
BITMAP
2FC0
2000
4000
5FE0
C200
4200
5FE0
4440
4C80
4300
5CE0
ENDCHAR
STARTCHAR $4F5F-234
ENCODING 20319
SWIDTH 1000 0
DWIDTH 12 0
BBX 11 11 0 -2
BITMAP
2400
27C0
4840
5480
C300
4CE0
7200
4180
4000
4600
41C0
ENDCHAR
STARTCHAR $4F60
ENCODING 20320
SWIDTH 1000 0
DWIDTH 12 0
BBX 11 11 0 -2
BITMAP
2800
2FE0
4920
5120
C100
4540
4540
4920
5120
4100
4300
ENDCHAR
STARTCHAR $4F61
ENCODING 20321
SWIDTH 1000 0
DWIDTH 12 0
BBX 11 11 0 -2
BITMAP
2100
2280
4440
5820
C100
4100
4920
4920
4920
4920
4FE0
ENDCHAR
STARTCHAR $4F62
ENCODING 20322
SWIDTH 1000 0
DWIDTH 12 0
BBX 11 11 0 -2
BITMAP
2FE0
2800
4800
4FC0
C840
4840
4840
4FC0
4800
4800
4FE0
ENDCHAR
STARTCHAR $4F63
ENCODING 20323
SWIDTH 1000 0
DWIDTH 12 0
BBX 11 11 0 -2
BITMAP
2FE0
2920
4920
4FE0
C920
4920
4FE0
4920
4920
4920
5160
ENDCHAR
STARTCHAR $4F65
ENCODING 20325
SWIDTH 1000 0
DWIDTH 12 0
BBX 11 11 0 -2
BITMAP
0400
0A00
3180
C060
3F80
0000
4840
2480
2480
0100
FFE0
ENDCHAR
STARTCHAR $4F66
ENCODING 20326
SWIDTH 1000 0
DWIDTH 12 0
BBX 11 11 0 -2
BITMAP
2FE0
2200
4200
4200
C400
47E0
4C20
5420
4420
4420
47E0
ENDCHAR
STARTCHAR $4F67
ENCODING 20327
SWIDTH 1000 0
DWIDTH 12 0
BBX 11 11 0 -2
BITMAP
2200
2200
43C0
4200
C200
5FE0
4200
4300
4280
4240
4200
ENDCHAR
STARTCHAR $4F68
ENCODING 20328
SWIDTH 1000 0
DWIDTH 12 0
BBX 11 11 0 -2
BITMAP
2800
2FC0
5040
4F40
C940
4940
4F40
48C0
4800
4820
47E0
ENDCHAR
STARTCHAR $4F69
ENCODING 20329
SWIDTH 1000 0
DWIDTH 12 0
BBX 11 11 0 -2
BITMAP
3FC0
3040
5F40
5440
DF40
5540
5540
5540
5740
5460
6420
ENDCHAR
STARTCHAR $4F6A
ENCODING 20330
SWIDTH 1000 0
DWIDTH 12 0
BBX 11 11 0 -2
BITMAP
2FE0
2820
4820
4BA0
CAA0
4AA0
4AA0
4BA0
4820
4820
4FE0
ENDCHAR
STARTCHAR $4F6B
ENCODING 20331
SWIDTH 1000 0
DWIDTH 12 0
BBX 11 11 0 -2
BITMAP
2400
27C0
4840
5480
C300
4480
5860
4FC0
4840
4840
4FC0
ENDCHAR
STARTCHAR $4F6C-234
ENCODING 20332
SWIDTH 1000 0
DWIDTH 12 0
BBX 11 11 0 -2
BITMAP
2200
2FE0
4240
4280
DFE0
4200
44C0
5F00
4400
4420
47E0
ENDCHAR
STARTCHAR $4F6E
ENCODING 20334
SWIDTH 1000 0
DWIDTH 12 0
BBX 11 11 0 -2
BITMAP
2100
2280
4440
5820
C7C0
4000
4FE0
4820
4820
4820
4FE0
ENDCHAR
STARTCHAR $4F6F
ENCODING 20335
SWIDTH 1000 0
DWIDTH 12 0
BBX 11 11 0 -2
BITMAP
2440
2280
4FE0
4100
C100
47C0
4100
4100
4FE0
4100
4100
ENDCHAR
STARTCHAR $4F70
ENCODING 20336
SWIDTH 1000 0
DWIDTH 12 0
BBX 11 11 0 -2
BITMAP
2FE0
2100
4200
4FE0
C820
4820
4FE0
4820
4820
4820
4FE0
ENDCHAR
STARTCHAR $4F71
ENCODING 20337
SWIDTH 1000 0
DWIDTH 12 0
BBX 11 11 0 -2
BITMAP
0400
0A00
3180
C060
3F80
0000
FFE0
0400
27C0
2400
FFE0
ENDCHAR
STARTCHAR $4F72
ENCODING 20338
SWIDTH 1000 0
DWIDTH 12 0
BBX 11 11 0 -2
BITMAP
2200
23E0
4420
4A20
C140
4080
47E0
5C20
4420
4420
47E0
ENDCHAR
STARTCHAR $4F73
ENCODING 20339
SWIDTH 1000 0
DWIDTH 12 0
BBX 11 11 0 -2
BITMAP
2100
2FC0
4100
4100
DFE0
4000
4100
4FC0
4100
4100
5FE0
ENDCHAR
STARTCHAR $4F74
ENCODING 20340
SWIDTH 1000 0
DWIDTH 12 0
BBX 11 11 0 -2
BITMAP
2FE0
2440
4440
47C0
C440
47C0
4440
4440
45E0
5E40
4040
ENDCHAR
STARTCHAR $4F75
ENCODING 20341
SWIDTH 1000 0
DWIDTH 12 0
BBX 11 11 0 -2
BITMAP
2840
2480
5FE0
4480
C480
4480
5FE0
4480
4880
4880
5080
ENDCHAR
STARTCHAR $4F76
ENCODING 20342
SWIDTH 1000 0
DWIDTH 12 0
BBX 11 11 0 -2
BITMAP
2100
2100
5FE0
4100
C100
4FC0
4000
4FC0
4840
4840
4FC0
ENDCHAR
STARTCHAR $4F77-456
ENCODING 20343
SWIDTH 1000 0
DWIDTH 12 0
BBX 11 11 0 -2
BITMAP
2FC0
2840
4FC0
4840
C840
4FC0
4920
4940
4880
4A40
5C20
ENDCHAR
STARTCHAR $4F78
ENCODING 20344
SWIDTH 1000 0
DWIDTH 12 0
BBX 11 11 0 -2
BITMAP
20C0
2F00
4100
4100
DFE0
4100
4100
4FC0
4840
4840
4FC0
ENDCHAR
STARTCHAR $4F79
ENCODING 20345
SWIDTH 1000 0
DWIDTH 12 0
BBX 11 11 0 -2
BITMAP
2400
2780
4880
5FE0
C800
4BC0
4A40
4AC0
4A00
4A20
51E0
ENDCHAR
STARTCHAR $4F7A-2346
ENCODING 20346
SWIDTH 1000 0
DWIDTH 12 0
BBX 11 11 0 -2
BITMAP
2700
2280
4440
5820
CFC0
4100
4100
4FC0
4100
4100
5FE0
ENDCHAR
STARTCHAR $4F7B
ENCODING 20347
SWIDTH 1000 0
DWIDTH 12 0
BBX 11 11 0 -2
BITMAP
2480
2480
54A0
4CC0
C480
4480
4CC0
54A0
4480
48A0
50E0
ENDCHAR
STARTCHAR $4F7C
ENCODING 20348
SWIDTH 1000 0
DWIDTH 12 0
BBX 11 11 0 -2
BITMAP
2100
2FE0
4000
4440
C820
5440
4440
4280
4100
4280
5C60
ENDCHAR
STARTCHAR $4F7E-234
ENCODING 20350
SWIDTH 1000 0
DWIDTH 12 0
BBX 11 11 0 -2
BITMAP
23C0
2840
4840
5020
DFE0
4840
4FC0
4840
4FC0
4840
48C0
ENDCHAR
STARTCHAR $4F7F
ENCODING 20351
SWIDTH 1000 0
DWIDTH 12 0
BBX 11 11 0 -2
BITMAP
2100
2FE0
4100
4FE0
C920
4920
4FE0
4500
4200
4500
58E0
ENDCHAR
STARTCHAR $4F80
ENCODING 20352
SWIDTH 1000 0
DWIDTH 12 0
BBX 11 11 0 -2
BITMAP
3F20
2AA0
4AA0
4AA0
CAA0
5FA0
4AA0
4AA0
4A20
4A20
52E0
ENDCHAR
STARTCHAR $4F81
ENCODING 20353
SWIDTH 1000 0
DWIDTH 12 0
BBX 11 11 0 -2
BITMAP
2900
2900
4FC0
5100
C100
5FE0
4480
4480
44A0
48A0
50E0
ENDCHAR
STARTCHAR $4F82
ENCODING 20354
SWIDTH 1000 0
DWIDTH 12 0
BBX 11 11 0 -2
BITMAP
2100
2FE0
4800
48C0
CF00
4900
49E0
4F00
4900
4920
50E0
ENDCHAR
STARTCHAR $4F83
ENCODING 20355
SWIDTH 1000 0
DWIDTH 12 0
BBX 11 11 0 -2
BITMAP
2FC0
2840
4840
4FC0
C000
4A80
4A80
4A80
4AA0
52A0
62E0
ENDCHAR
STARTCHAR $4F84
ENCODING 20356
SWIDTH 1000 0
DWIDTH 12 0
BBX 11 11 0 -2
BITMAP
2FE0
2100
4200
4440
CFA0
4100
4100
4FE0
4100
4100
5FE0
ENDCHAR
STARTCHAR $4F85-456
ENCODING 20357
SWIDTH 1000 0
DWIDTH 12 0
BBX 11 11 0 -2
BITMAP
2100
2FE0
4200
4440
C880
4500
4220
4C40
4080
4340
5C20
ENDCHAR
STARTCHAR $4F86
ENCODING 20358
SWIDTH 1000 0
DWIDTH 12 0
BBX 11 11 0 -2
BITMAP
0400
FFE0
0400
2480
2480
5540
8E20
1500
2480
C460
0400
ENDCHAR
STARTCHAR $4F87
ENCODING 20359
SWIDTH 1000 0
DWIDTH 12 0
BBX 11 11 0 -2
BITMAP
2100
2FE0
4100
4FE0
C120
4FE0
4900
4FE0
4120
4280
5C60
ENDCHAR
STARTCHAR $4F88
ENCODING 20360
SWIDTH 1000 0
DWIDTH 12 0
BBX 11 11 0 -2
BITMAP
2100
23E0
4C20
4240
C180
4E00
43E0
4C20
4240
4180
4E00
ENDCHAR
STARTCHAR $4F89
ENCODING 20361
SWIDTH 1000 0
DWIDTH 12 0
BBX 11 11 0 -2
BITMAP
2200
3FE0
4480
4840
D7A0
4000
5FE0
4400
47C0
4040
4180
ENDCHAR
STARTCHAR $4F8A
ENCODING 20362
SWIDTH 1000 0
DWIDTH 12 0
BBX 11 11 0 -2
BITMAP
2100
2920
4520
4540
C100
5FE0
4280
4280
42A0
44A0
58E0
ENDCHAR
STARTCHAR $4F8B
ENCODING 20363
SWIDTH 1000 0
DWIDTH 12 0
BBX 11 11 0 -2
BITMAP
3E20
28A0
48A0
4EA0
D2A0
52A0
4AA0
44A0
4420
4820
50E0
ENDCHAR
STARTCHAR $4F8C
ENCODING 20364
SWIDTH 1000 0
DWIDTH 12 0
BBX 11 11 0 -2
BITMAP
0E00
3180
DF60
0000
7FC0
0080
7FC0
0000
FFE0
2080
7F40
ENDCHAR
STARTCHAR $4F8D
ENCODING 20365
SWIDTH 1000 0
DWIDTH 12 0
BBX 11 11 0 -2
BITMAP
2100
27C0
4100
4100
CFE0
4040
4FE0
4440
4240
4040
41C0
ENDCHAR
STARTCHAR $4F8E
ENCODING 20366
SWIDTH 1000 0
DWIDTH 12 0
BBX 11 11 0 -2
BITMAP
2100
2920
4540
4100
DFE0
4100
4380
4540
4920
5100
4100
ENDCHAR
STARTCHAR $4F8F
ENCODING 20367
SWIDTH 1000 0
DWIDTH 12 0
BBX 11 11 0 -2
BITMAP
2900
2900
4FC0
5100
C100
5FE0
4100
4380
4540
5920
4100
ENDCHAR
STARTCHAR $4F90
ENCODING 20368
SWIDTH 1000 0
DWIDTH 12 0
BBX 11 11 0 -2
BITMAP
2100
2200
4FE0
4AA0
CAA0
4AA0
4AA0
4AA0
4AA0
4AA0
5FE0
ENDCHAR
STARTCHAR $4F91
ENCODING 20369
SWIDTH 1000 0
DWIDTH 12 0
BBX 11 11 0 -2
BITMAP
2200
2FE0
4200
4400
CFE0
5420
47E0
4420
47E0
4420
4460
ENDCHAR
STARTCHAR $4F92
ENCODING 20370
SWIDTH 1000 0
DWIDTH 12 0
BBX 11 11 0 -2
BITMAP
2100
2FE0
4820
4100
C100
4FE0
4240
4440
4280
4180
4E60
ENDCHAR
STARTCHAR $4F93
ENCODING 20371
SWIDTH 1000 0
DWIDTH 12 0
BBX 11 11 0 -2
BITMAP
2200
2FC0
4240
5FE0
C240
4FC0
4200
4FC0
4200
5FE0
4200
ENDCHAR
STARTCHAR $4F94-234
ENCODING 20372
SWIDTH 1000 0
DWIDTH 12 0
BBX 11 11 0 -2
BITMAP
2400
2820
4FE0
4100
C900
4FE0
5100
4100
5FE0
4100
4100
ENDCHAR
STARTCHAR $4F95
ENCODING 20373
SWIDTH 1000 0
DWIDTH 12 0
BBX 11 11 0 -2
BITMAP
2FE0
2100
4200
4FE0
CAA0
4AA0
4AA0
4AA0
4AA0
4AA0
4860
ENDCHAR
STARTCHAR $4F96
ENCODING 20374
SWIDTH 1000 0
DWIDTH 12 0
BBX 11 11 0 -2
BITMAP
0400
0A00
3180
DF60
0000
7FC0
4A40
4A40
7FC0
4A40
4AC0
ENDCHAR
STARTCHAR $4F97
ENCODING 20375
SWIDTH 1000 0
DWIDTH 12 0
BBX 11 11 0 -2
BITMAP
2FE0
2820
4BA0
4820
CBA0
4AA0
4AA0
4AA0
4BA0
4820
4860
ENDCHAR
STARTCHAR $4F98
ENCODING 20376
SWIDTH 1000 0
DWIDTH 12 0
BBX 11 11 0 -2
BITMAP
2100
3FE0
5020
51A0
CE00
4200
43E0
5E00
4200
4220
41E0
ENDCHAR
STARTCHAR $4F99
ENCODING 20377
SWIDTH 1000 0
DWIDTH 12 0
BBX 11 11 0 -2
BITMAP
2140
2120
5FE0
4100
C100
5F00
4480
4480
44A0
4760
5820
ENDCHAR
STARTCHAR $4F9A
ENCODING 20378
SWIDTH 1000 0
DWIDTH 12 0
BBX 11 11 0 -2
BITMAP
2800
2FE0
5020
4FA0
C8A0
4FA0
48A0
48A0
4FA0
4020
40C0
ENDCHAR
STARTCHAR $4F9B
ENCODING 20379
SWIDTH 1000 0
DWIDTH 12 0
BBX 11 11 0 -2
BITMAP
2480
2480
5FE0
4480
C480
4480
5FE0
4000
4480
4840
5020
ENDCHAR
STARTCHAR $4F9D-456
ENCODING 20381
SWIDTH 1000 0
DWIDTH 12 0
BBX 11 11 0 -2
BITMAP
2100
2100
5FE0
4200
C500
4920
5940
4880
4880
4A40
5C20
ENDCHAR
STARTCHAR $4F9F
ENCODING 20383
SWIDTH 1000 0
DWIDTH 12 0
BBX 11 11 0 -2
BITMAP
2200
2FE0
4400
49C0
C840
5880
6880
4BE0
4880
4880
4980
ENDCHAR
STARTCHAR $4FA0
ENCODING 20384
SWIDTH 1000 0
DWIDTH 12 0
BBX 11 11 0 -2
BITMAP
2100
2FE0
4100
4920
C540
4100
5FE0
4100
4280
4440
5820
ENDCHAR
STARTCHAR $4FA1
ENCODING 20385
SWIDTH 1000 0
DWIDTH 12 0
BBX 11 11 0 -2
BITMAP
2FE0
2280
4280
4280
CFE0
4AA0
4AA0
4AA0
4AA0
4AA0
4FE0
ENDCHAR
STARTCHAR $4FA2-46
ENCODING 20386
SWIDTH 1000 0
DWIDTH 12 0
BBX 11 11 0 -2
BITMAP
2FE0
2100
4FC0
4940
DFE0
4940
4940
5FE0
4840
4840
48C0
ENDCHAR
STARTCHAR $4FA3
ENCODING 20387
SWIDTH 1000 0
DWIDTH 12 0
BBX 11 11 0 -2
BITMAP
2FC0
2840
4840
4840
CFC0
4000
5FE0
5020
5020
5020
5FE0
ENDCHAR
STARTCHAR $4FA5
ENCODING 20389
SWIDTH 1000 0
DWIDTH 12 0
BBX 11 11 0 -2
BITMAP
2200
22E0
4F00
4240
C1A0
4E60
4000
4FE0
4280
44A0
58E0
ENDCHAR
STARTCHAR $4FA6
ENCODING 20390
SWIDTH 1000 0
DWIDTH 12 0
BBX 11 11 0 -2
BITMAP
2100
21E0
4100
4FE0
C820
4920
4920
4920
4280
4440
4820
ENDCHAR
STARTCHAR $4FA7
ENCODING 20391
SWIDTH 1000 0
DWIDTH 12 0
BBX 11 11 0 -2
BITMAP
7E20
A2A0
AAA0
AAA0
AAA0
AAA0
AAA0
AAA0
8820
9420
A2E0
ENDCHAR
STARTCHAR $4FA8
ENCODING 20392
SWIDTH 1000 0
DWIDTH 12 0
BBX 11 11 0 -2
BITMAP
21C0
2E00
4200
5FE0
C480
4840
54A0
4480
4480
4880
5080
ENDCHAR
STARTCHAR $4FA9
ENCODING 20393
SWIDTH 1000 0
DWIDTH 12 0
BBX 11 11 0 -2
BITMAP
1100
1280
2440
6820
A7C0
2000
2000
2FE0
2200
2440
2FA0
ENDCHAR
STARTCHAR $4FAA
ENCODING 20394
SWIDTH 1000 0
DWIDTH 12 0
BBX 11 11 0 -2
BITMAP
2100
2FE0
4440
4280
C100
4280
5C60
4440
4440
4440
4840
ENDCHAR
STARTCHAR $4FAB-456
ENCODING 20395
SWIDTH 1000 0
DWIDTH 12 0
BBX 11 11 0 -2
BITMAP
2100
2FE0
4800
4800
CFE0
4200
5FE0
4440
4C80
4300
5CE0
ENDCHAR
STARTCHAR $4FAC
ENCODING 20396
SWIDTH 1000 0
DWIDTH 12 0
BBX 11 11 0 -2
BITMAP
2100
2FE0
4920
4200
C200
4520
4940
5480
4480
4540
4620
ENDCHAR
STARTCHAR $4FAD
ENCODING 20397
SWIDTH 1000 0
DWIDTH 12 0
BBX 11 11 0 -2
BITMAP
2FC0
2840
4840
4FC0
C880
4880
5640
61A0
4000
4C00
4380
ENDCHAR
STARTCHAR $4FAE
ENCODING 20398
SWIDTH 1000 0
DWIDTH 12 0
BBX 11 11 0 -2
BITMAP
2800
2FE0
5000
4FC0
CA40
4940
5FE0
4A40
4940
4FE0
4040
ENDCHAR
STARTCHAR $4FAF
ENCODING 20399
SWIDTH 1000 0
DWIDTH 12 0
BBX 11 11 0 -2
BITMAP
27C0
2040
5FE0
4800
CFE0
5100
4100
5FE0
4280
4440
5820
ENDCHAR
STARTCHAR $4FB0
ENCODING 20400
SWIDTH 1000 0
DWIDTH 12 0
BBX 11 11 0 -2
BITMAP
2FC0
2240
5FE0
4240
CFC0
4200
4400
4FC0
5840
4840
4FC0
ENDCHAR
STARTCHAR $4FB2-456
ENCODING 20402
SWIDTH 1000 0
DWIDTH 12 0
BBX 11 11 0 -2
BITMAP
2FE0
2800
4BC0
4800
CFE0
4A80
4A80
4AA0
4A40
4B40
5620
ENDCHAR
STARTCHAR $4FB3
ENCODING 20403
SWIDTH 1000 0
DWIDTH 12 0
BBX 11 11 0 -2
BITMAP
1100
1540
2540
2540
6BA0
A920
2100
27C0
2100
2100
2FE0
ENDCHAR
STARTCHAR $4FB4
ENCODING 20404
SWIDTH 1000 0
DWIDTH 12 0
BBX 11 11 0 -2
BITMAP
0400
1B00
E0E0
3F80
0020
FCA0
24A0
FEA0
24A0
2420
FEE0
ENDCHAR
STARTCHAR $4FB5
ENCODING 20405
SWIDTH 1000 0
DWIDTH 12 0
BBX 11 11 0 -2
BITMAP
2FC0
2040
5FE0
4040
DFE0
5020
4FC0
4840
4480
4300
5CE0
ENDCHAR
STARTCHAR $4FB6
ENCODING 20406
SWIDTH 1000 0
DWIDTH 12 0
BBX 11 11 0 -2
BITMAP
2FC0
2840
4840
4FC0
C200
4400
5FE0
5020
5020
5020
5FE0
ENDCHAR
STARTCHAR $4FB7
ENCODING 20407
SWIDTH 1000 0
DWIDTH 12 0
BBX 11 11 0 -2
BITMAP
2FC0
2840
4FC0
4800
CFE0
4820
4BA0
4AA0
4BA0
4820
50C0
ENDCHAR
STARTCHAR $4FB8
ENCODING 20408
SWIDTH 1000 0
DWIDTH 12 0
BBX 11 11 0 -2
BITMAP
2FE0
2000
4FC0
4840
C840
4FC0
4000
4840
4440
4480
5FE0
ENDCHAR
STARTCHAR $4FBA
ENCODING 20410
SWIDTH 1000 0
DWIDTH 12 0
BBX 11 11 0 -2
BITMAP
2920
2FE0
4100
4280
C440
5BA0
4000
4FE0
4040
4080
4100
ENDCHAR
STARTCHAR $4FBB-456
ENCODING 20411
SWIDTH 1000 0
DWIDTH 12 0
BBX 11 11 0 -2
BITMAP
2580
2840
5020
4FC0
C840
4840
4FC0
4480
44A0
48A0
50E0
ENDCHAR
STARTCHAR $4FBC
ENCODING 20412
SWIDTH 1000 0
DWIDTH 12 0
BBX 11 11 0 -2
BITMAP
2100
3FE0
4100
5FE0
D020
4FC0
4080
4100
5FE0
4100
4700
ENDCHAR
STARTCHAR $4FBD
ENCODING 20413
SWIDTH 1000 0
DWIDTH 12 0
BBX 11 11 0 -2
BITMAP
2FE0
2920
4FE0
4920
CFE0
4100
5FE0
4220
4220
4420
58C0
ENDCHAR
STARTCHAR $4FBF
ENCODING 20415
SWIDTH 1000 0
DWIDTH 12 0
BBX 11 11 0 -2
BITMAP
2FE0
2100
4FE0
4920
CFE0
4920
4FE0
4500
4200
4500
58E0
ENDCHAR
STARTCHAR $4FC1
ENCODING 20417
SWIDTH 1000 0
DWIDTH 12 0
BBX 11 11 0 -2
BITMAP
23C0
2A40
4A40
4BC0
C800
4FC0
4140
5FE0
4100
4280
5C60
ENDCHAR
STARTCHAR $4FC2-6
ENCODING 20418
SWIDTH 1000 0
DWIDTH 12 0
BBX 11 11 0 -2
BITMAP
20C0
2F00
4240
4C80
C300
4C40
5FA0
4200
4A80
4A40
5240
ENDCHAR
STARTCHAR $4FC3
ENCODING 20419
SWIDTH 1000 0
DWIDTH 12 0
BBX 11 11 0 -2
BITMAP
2FE0
2820
4820
4820
CFE0
4100
4900
49E0
4900
5700
50E0
ENDCHAR
STARTCHAR $4FC4
ENCODING 20420
SWIDTH 1000 0
DWIDTH 12 0
BBX 11 11 0 -2
BITMAP
22C0
2CA0
4480
5FE0
C480
44A0
46A0
5C40
4440
44A0
4D20
ENDCHAR
STARTCHAR $4FC5
ENCODING 20421
SWIDTH 1000 0
DWIDTH 12 0
BBX 11 11 0 -2
BITMAP
2140
2120
5FE0
4100
C920
4540
4180
4340
4520
5900
4300
ENDCHAR
STARTCHAR $4FC6
ENCODING 20422
SWIDTH 1000 0
DWIDTH 12 0
BBX 11 11 0 -2
BITMAP
1380
1440
2820
67C0
A100
2100
2FE0
2100
2540
2920
2300
ENDCHAR
STARTCHAR $4FC9
ENCODING 20425
SWIDTH 1000 0
DWIDTH 12 0
BBX 11 11 0 -2
BITMAP
2FE0
2200
4FC0
4440
C440
5FE0
4000
4FE0
4820
4820
4FE0
ENDCHAR
STARTCHAR $4FCA-6
ENCODING 20426
SWIDTH 1000 0
DWIDTH 12 0
BBX 11 11 0 -2
BITMAP
2200
2440
5FA0
4520
D9E0
4400
47C0
4440
4A80
4100
4EE0
ENDCHAR
STARTCHAR $4FCB
ENCODING 20427
SWIDTH 1000 0
DWIDTH 12 0
BBX 11 11 0 -2
BITMAP
2F80
2880
4F80
4000
DFC0
5240
5240
5FC0
5000
5020
4FE0
ENDCHAR
STARTCHAR $4FCC
ENCODING 20428
SWIDTH 1000 0
DWIDTH 12 0
BBX 11 11 0 -2
BITMAP
2140
2FE0
4100
4FE0
C920
4FE0
4920
4FE0
4920
4920
4960
ENDCHAR
STARTCHAR $4FCD-456
ENCODING 20429
SWIDTH 1000 0
DWIDTH 12 0
BBX 11 11 0 -2
BITMAP
2200
2FC0
4840
4FC0
C840
4FC0
4920
4940
4880
4A40
5C20
ENDCHAR
STARTCHAR $4FCE
ENCODING 20430
SWIDTH 1000 0
DWIDTH 12 0
BBX 11 11 0 -2
BITMAP
27C0
2440
2440
57C0
5440
8440
27C0
2440
5440
5440
8FE0
ENDCHAR
STARTCHAR $4FCF-456
ENCODING 20431
SWIDTH 1000 0
DWIDTH 12 0
BBX 11 11 0 -2
BITMAP
2540
2920
4100
4FE0
C820
4FE0
4820
4FE0
4820
4820
4860
ENDCHAR
STARTCHAR $4FD0
ENCODING 20432
SWIDTH 1000 0
DWIDTH 12 0
BBX 11 11 0 -2
BITMAP
2320
3C20
44A0
44A0
DFA0
44A0
4CA0
4EA0
5520
4420
44E0
ENDCHAR
STARTCHAR $4FD1
ENCODING 20433
SWIDTH 1000 0
DWIDTH 12 0
BBX 11 11 0 -2
BITMAP
2FC0
2280
4100
4FE0
C920
4FE0
4920
4FE0
4920
4920
4960
ENDCHAR
STARTCHAR $4FD2
ENCODING 20434
SWIDTH 1000 0
DWIDTH 12 0
BBX 11 11 0 -2
BITMAP
2100
2FE0
4820
47C0
C000
4000
4FE0
4280
42A0
44A0
58E0
ENDCHAR
STARTCHAR $4FD3
ENCODING 20435
SWIDTH 1000 0
DWIDTH 12 0
BBX 11 11 0 -2
BITMAP
2FE0
2000
4540
4A80
CA80
4540
4000
4FC0
4100
4100
5FE0
ENDCHAR
STARTCHAR $4FD4
ENCODING 20436
SWIDTH 1000 0
DWIDTH 12 0
BBX 11 11 0 -2
BITMAP
2FC0
2840
4FC0
4840
CFC0
4840
4FC0
4480
44A0
48A0
50E0
ENDCHAR
STARTCHAR $4FD5
ENCODING 20437
SWIDTH 1000 0
DWIDTH 12 0
BBX 11 11 0 -2
BITMAP
2100
2FE0
4820
4920
C100
4FE0
4100
4380
4540
5920
4100
ENDCHAR
STARTCHAR $4FD6
ENCODING 20438
SWIDTH 1000 0
DWIDTH 12 0
BBX 11 11 0 -2
BITMAP
2FE0
2100
4200
46C0
DA20
4200
4000
4FC0
4840
4840
4FC0
ENDCHAR
STARTCHAR $4FD7
ENCODING 20439
SWIDTH 1000 0
DWIDTH 12 0
BBX 11 11 0 -2
BITMAP
2480
2840
5320
4480
C840
5020
4FC0
4840
4840
4840
4FC0
ENDCHAR
STARTCHAR $4FD8-456
ENCODING 20440
SWIDTH 1000 0
DWIDTH 12 0
BBX 11 11 0 -2
BITMAP
20C0
2F00
4A40
5120
CFC0
4080
4100
5FE0
4100
4100
4700
ENDCHAR
STARTCHAR $4FD9
ENCODING 20441
SWIDTH 1000 0
DWIDTH 12 0
BBX 11 11 0 -2
BITMAP
2CE0
2300
5CE0
4200
DFE0
4500
4FE0
5920
6920
4960
4100
ENDCHAR
STARTCHAR $4FDA
ENCODING 20442
SWIDTH 1000 0
DWIDTH 12 0
BBX 11 11 0 -2
BITMAP
2FE0
2920
4920
4FE0
C920
4920
4FE0
4100
4FE0
4100
5FE0
ENDCHAR
STARTCHAR $4FDB
ENCODING 20443
SWIDTH 1000 0
DWIDTH 12 0
BBX 11 11 0 -2
BITMAP
2400
2780
4880
5FE0
C920
4920
4FE0
4280
42A0
44A0
58E0
ENDCHAR
STARTCHAR $4FDC
ENCODING 20444
SWIDTH 1000 0
DWIDTH 12 0
BBX 11 11 0 -2
BITMAP
2100
2FC0
4940
4FC0
C940
5FE0
4400
47C0
4040
4040
4180
ENDCHAR
STARTCHAR $4FDD
ENCODING 20445
SWIDTH 1000 0
DWIDTH 12 0
BBX 11 11 0 -2
BITMAP
2FC0
2840
4840
4FC0
C100
4100
5FE0
4380
4540
5920
4100
ENDCHAR
STARTCHAR $4FDE
ENCODING 20446
SWIDTH 1000 0
DWIDTH 12 0
BBX 11 11 0 -2
BITMAP
0400
0A00
3180
DF60
0000
7D40
4540
7D40
4540
7C40
44C0
ENDCHAR
STARTCHAR $4FDF
ENCODING 20447
SWIDTH 1000 0
DWIDTH 12 0
BBX 11 11 0 -2
BITMAP
1200
1440
2FA0
6400
A7E0
2900
2100
2FE0
2280
2440
2820
ENDCHAR
STARTCHAR $4FE0
ENCODING 20448
SWIDTH 1000 0
DWIDTH 12 0
BBX 11 11 0 -2
BITMAP
2100
2FE0
4100
4540
C540
4BA0
5120
4100
4280
4440
5820
ENDCHAR
STARTCHAR $4FE1-456
ENCODING 20449
SWIDTH 1000 0
DWIDTH 12 0
BBX 11 11 0 -2
BITMAP
2780
2000
5FE0
4000
CFC0
4000
4FC0
4000
4FC0
4840
4FC0
ENDCHAR
STARTCHAR $4FE3
ENCODING 20451
SWIDTH 1000 0
DWIDTH 12 0
BBX 11 11 0 -2
BITMAP
2FC0
2840
4840
4FC0
C000
4FC0
4100
5FE0
4100
4280
5C60
ENDCHAR
STARTCHAR $4FE4
ENCODING 20452
SWIDTH 1000 0
DWIDTH 12 0
BBX 11 11 0 -2
BITMAP
2880
2500
5FC0
4240
DFC0
5200
5FE0
4620
4A20
52C0
4200
ENDCHAR
STARTCHAR $4FE5
ENCODING 20453
SWIDTH 1000 0
DWIDTH 12 0
BBX 11 11 0 -2
BITMAP
2100
2FE0
4100
4FE0
C920
4FE0
4920
4FE0
4100
4FE0
4100
ENDCHAR
STARTCHAR $4FE6
ENCODING 20454
SWIDTH 1000 0
DWIDTH 12 0
BBX 11 11 0 -2
BITMAP
2100
2FE0
4100
4FE0
C200
5FE0
4440
4FE0
5440
4240
40C0
ENDCHAR
STARTCHAR $4FE7
ENCODING 20455
SWIDTH 1000 0
DWIDTH 12 0
BBX 11 11 0 -2
BITMAP
2100
2100
5FE0
4100
C100
4FC0
4200
4540
4C20
54A0
4380
ENDCHAR
STARTCHAR $4FE8
ENCODING 20456
SWIDTH 1000 0
DWIDTH 12 0
BBX 11 11 0 -2
BITMAP
2FE0
2280
4AA0
46C0
C280
4FE0
4800
4800
4800
4800
5000
ENDCHAR
STARTCHAR $4FE9
ENCODING 20457
SWIDTH 1000 0
DWIDTH 12 0
BBX 11 11 0 -2
BITMAP
2FE0
2280
4280
4FE0
CAA0
4AA0
4AA0
4D60
4820
4820
4860
ENDCHAR
STARTCHAR $4FEA
ENCODING 20458
SWIDTH 1000 0
DWIDTH 12 0
BBX 11 11 0 -2
BITMAP
2FE0
2000
4EE0
4AA0
CAA0
4AA0
4EE0
4AA0
4AA0
4AA0
4AA0
ENDCHAR
STARTCHAR $4FEB
ENCODING 20459
SWIDTH 1000 0
DWIDTH 12 0
BBX 11 11 0 -2
BITMAP
2100
2FE0
4100
4920
C540
5FE0
4100
4380
4540
5920
4100
ENDCHAR
STARTCHAR $4FEC
ENCODING 20460
SWIDTH 1000 0
DWIDTH 12 0
BBX 11 11 0 -2
BITMAP
2480
3880
4880
4880
FC80
4900
5940
5D40
6A20
4A60
4BA0
ENDCHAR
STARTCHAR $4FED
ENCODING 20461
SWIDTH 1000 0
DWIDTH 12 0
BBX 11 11 0 -2
BITMAP
2100
2280
4440
5820
C7C0
4000
4A20
4540
4540
4080
5FE0
ENDCHAR
STARTCHAR $4FEE-6
ENCODING 20462
SWIDTH 1000 0
DWIDTH 12 0
BBX 11 11 0 -2
BITMAP
2200
23E0
4640
5180
D660
5080
5300
5040
5380
5020
43C0
ENDCHAR
STARTCHAR $4FEF
ENCODING 20463
SWIDTH 1000 0
DWIDTH 12 0
BBX 11 11 0 -2
BITMAP
2100
3FE0
5000
5240
D240
55E0
5C40
5540
54C0
5440
64C0
ENDCHAR
STARTCHAR $4FF0
ENCODING 20464
SWIDTH 1000 0
DWIDTH 12 0
BBX 11 11 0 -2
BITMAP
2200
2CE0
44A0
44A0
DFA0
44A0
4CA0
4EA0
55A0
44E0
4400
ENDCHAR
STARTCHAR $4FF1
ENCODING 20465
SWIDTH 1000 0
DWIDTH 12 0
BBX 11 11 0 -2
BITMAP
2FC0
2840
4FC0
4840
CFC0
4840
4FC0
4840
5FE0
4840
5020
ENDCHAR
STARTCHAR $4FF2
ENCODING 20466
SWIDTH 1000 0
DWIDTH 12 0
BBX 11 11 0 -2
BITMAP
2880
3E80
41E0
54A0
E2A0
54A0
54A0
54A0
4920
5520
6260
ENDCHAR
STARTCHAR $4FF3
ENCODING 20467
SWIDTH 1000 0
DWIDTH 12 0
BBX 11 11 0 -2
BITMAP
2480
2480
5CE0
4480
C480
5CE0
4480
4C80
54E0
4880
5080
ENDCHAR
STARTCHAR $4FF5-456
ENCODING 20469
SWIDTH 1000 0
DWIDTH 12 0
BBX 11 11 0 -2
BITMAP
2100
2FE0
4100
4FE0
C100
5FE0
4280
44A0
5C40
4540
4E20
ENDCHAR
STARTCHAR $4FF6
ENCODING 20470
SWIDTH 1000 0
DWIDTH 12 0
BBX 11 11 0 -2
BITMAP
2400
24E0
47A0
44A0
C4A0
5FA0
44A0
5540
5540
64A0
4CA0
ENDCHAR
STARTCHAR $4FF7
ENCODING 20471
SWIDTH 1000 0
DWIDTH 12 0
BBX 11 11 0 -2
BITMAP
2FE0
2AA0
4AA0
4EA0
CAA0
4BE0
4E00
4A00
4A20
4A20
57E0
ENDCHAR
STARTCHAR $4FF8-456
ENCODING 20472
SWIDTH 1000 0
DWIDTH 12 0
BBX 11 11 0 -2
BITMAP
2200
3FC0
4400
5FC0
C880
7FE0
5240
6FA0
4200
5FC0
4200
ENDCHAR
STARTCHAR $4FF9
ENCODING 20473
SWIDTH 1000 0
DWIDTH 12 0
BBX 11 11 0 -2
BITMAP
2FE0
2280
4280
4EE0
C820
4820
4820
4EE0
4280
4280
4FE0
ENDCHAR
STARTCHAR $4FFA
ENCODING 20474
SWIDTH 1000 0
DWIDTH 12 0
BBX 11 11 0 -2
BITMAP
2200
3FC0
4880
5240
FFE0
5240
5FC0
5240
5FC0
4220
41E0
ENDCHAR
STARTCHAR $4FFB
ENCODING 20475
SWIDTH 1000 0
DWIDTH 12 0
BBX 11 11 0 -2
BITMAP
2200
27C0
4C40
4380
C440
5820
4FE0
4920
4FE0
4920
4FE0
ENDCHAR
STARTCHAR $4FFC
ENCODING 20476
SWIDTH 1000 0
DWIDTH 12 0
BBX 11 11 0 -2
BITMAP
2100
3FE0
4400
4840
DFA0
4840
4FC0
4840
4FC0
4840
48C0
ENDCHAR
STARTCHAR $4FFD
ENCODING 20477
SWIDTH 1000 0
DWIDTH 12 0
BBX 11 11 0 -2
BITMAP
2500
3900
51E0
5120
DEA0
5480
5480
5480
5540
5540
6620
ENDCHAR
STARTCHAR $4FFE
ENCODING 20478
SWIDTH 1000 0
DWIDTH 12 0
BBX 11 11 0 -2
BITMAP
2200
2FE0
4920
4FE0
C920
4FE0
4280
4480
5FE0
4080
4080
ENDCHAR
STARTCHAR $5000-456
ENCODING 20480
SWIDTH 1000 0
DWIDTH 12 0
BBX 11 11 0 -2
BITMAP
2FC0
2800
4F80
4800
CF80
4800
5FE0
4A00
4940
4A80
5C60
ENDCHAR
STARTCHAR $5001
ENCODING 20481
SWIDTH 1000 0
DWIDTH 12 0
BBX 11 11 0 -2
BITMAP
2800
28E0
4EA0
54A0
C4A0
5EA0
44A0
44A0
4AA0
4AE0
5000
ENDCHAR
STARTCHAR $5002-456
ENCODING 20482
SWIDTH 1000 0
DWIDTH 12 0
BBX 11 11 0 -2
BITMAP
2220
2440
5EE0
4440
C440
4640
5CE0
4440
4840
4840
5040
ENDCHAR
STARTCHAR $5004
ENCODING 20484
SWIDTH 1000 0
DWIDTH 12 0
BBX 11 11 0 -2
BITMAP
2CC0
2300
4CC0
4200
DFE0
4400
4FC0
5840
4FC0
4840
48C0
ENDCHAR
STARTCHAR $5005
ENCODING 20485
SWIDTH 1000 0
DWIDTH 12 0
BBX 11 11 0 -2
BITMAP
2100
2FE0
4000
4440
C440
4AA0
4100
4FE0
4100
4100
4100
ENDCHAR
STARTCHAR $5006
ENCODING 20486
SWIDTH 1000 0
DWIDTH 12 0
BBX 11 11 0 -2
BITMAP
2FE0
2100
4100
4FE0
C920
4FE0
4B60
4B60
4DA0
4920
4960
ENDCHAR
STARTCHAR $5007
ENCODING 20487
SWIDTH 1000 0
DWIDTH 12 0
BBX 11 11 0 -2
BITMAP
2100
2FE0
4820
4400
C6E0
4AA0
4AA0
56E0
4280
44A0
58E0
ENDCHAR
STARTCHAR $5008
ENCODING 20488
SWIDTH 1000 0
DWIDTH 12 0
BBX 11 11 0 -2
BITMAP
2100
2FE0
4100
4540
C540
4BA0
5120
4380
4540
5920
4100
ENDCHAR
STARTCHAR $5009
ENCODING 20489
SWIDTH 1000 0
DWIDTH 12 0
BBX 11 11 0 -2
BITMAP
0E00
3180
FFE0
4040
7FC0
4040
7FC0
4000
7FC0
A040
BFC0
ENDCHAR
STARTCHAR $500B
ENCODING 20491
SWIDTH 1000 0
DWIDTH 12 0
BBX 11 11 0 -2
BITMAP
2FE0
2920
4920
4FE0
C920
4BA0
4AA0
4AA0
4BA0
4820
4FE0
ENDCHAR
STARTCHAR $500C
ENCODING 20492
SWIDTH 1000 0
DWIDTH 12 0
BBX 11 11 0 -2
BITMAP
2100
2FE0
4820
47C0
C440
47C0
4400
47E0
4420
4420
47E0
ENDCHAR
STARTCHAR $500D
ENCODING 20493
SWIDTH 1000 0
DWIDTH 12 0
BBX 11 11 0 -2
BITMAP
2100
2FC0
4000
4840
C480
5FE0
4000
4FC0
4840
4840
4FC0
ENDCHAR
STARTCHAR $500E
ENCODING 20494
SWIDTH 1000 0
DWIDTH 12 0
BBX 11 11 0 -2
BITMAP
2280
2FE0
4AA0
4AA0
CFE0
4AA0
4AA0
5FE0
4000
4440
5820
ENDCHAR
STARTCHAR $500F-6
ENCODING 20495
SWIDTH 1000 0
DWIDTH 12 0
BBX 11 11 0 -2
BITMAP
2200
23C0
5440
5280
D100
56C0
5120
5FE0
5100
5280
4C60
ENDCHAR
STARTCHAR $5011
ENCODING 20497
SWIDTH 1000 0
DWIDTH 12 0
BBX 11 11 0 -2
BITMAP
2EE0
2AA0
4EE0
4AA0
CEE0
4820
4820
4820
4820
4820
4860
ENDCHAR
STARTCHAR $5012
ENCODING 20498
SWIDTH 1000 0
DWIDTH 12 0
BBX 11 11 0 -2
BITMAP
3F20
24A0
48A0
52A0
DDA0
44A0
44A0
5F20
4420
4720
58E0
ENDCHAR
STARTCHAR $5013
ENCODING 20499
SWIDTH 1000 0
DWIDTH 12 0
BBX 11 11 0 -2
BITMAP
2100
2520
4940
4100
C280
5C60
4100
4520
4940
4280
5C60
ENDCHAR
STARTCHAR $5014
ENCODING 20500
SWIDTH 1000 0
DWIDTH 12 0
BBX 11 11 0 -2
BITMAP
2FE0
2820
4FE0
4880
CAA0
4AA0
4BE0
4880
4AA0
4AA0
53E0
ENDCHAR
STARTCHAR $5015
ENCODING 20501
SWIDTH 1000 0
DWIDTH 12 0
BBX 11 11 0 -2
BITMAP
20C0
2F00
4100
5FE0
C940
5FE0
4940
4940
5FE0
4100
4FC0
ENDCHAR
STARTCHAR $5016-6
ENCODING 20502
SWIDTH 1000 0
DWIDTH 12 0
BBX 11 11 0 -2
BITMAP
2200
3FC0
4200
7FE0
C880
4500
7FE0
4200
5FC0
4200
4200
ENDCHAR
STARTCHAR $5017
ENCODING 20503
SWIDTH 1000 0
DWIDTH 12 0
BBX 11 11 0 -2
BITMAP
2EE0
2AA0
4AA0
4EE0
CAA0
4AA0
4EE0
4AA0
4AA0
4AA0
5760
ENDCHAR
STARTCHAR $5018-456
ENCODING 20504
SWIDTH 1000 0
DWIDTH 12 0
BBX 11 11 0 -2
BITMAP
2540
2920
4100
4FE0
C820
4BA0
4AA0
4AA0
4BA0
4820
4860
ENDCHAR
STARTCHAR $5019
ENCODING 20505
SWIDTH 1000 0
DWIDTH 12 0
BBX 11 11 0 -2
BITMAP
27C0
2040
5FE0
5400
D7E0
5900
5100
5FE0
5280
4440
4820
ENDCHAR
STARTCHAR $501A
ENCODING 20506
SWIDTH 1000 0
DWIDTH 12 0
BBX 11 11 0 -2
BITMAP
2100
2FE0
4100
4280
C440
5FE0
4040
4F40
4940
4F40
40C0
ENDCHAR
STARTCHAR $501B
ENCODING 20507
SWIDTH 1000 0
DWIDTH 12 0
BBX 11 11 0 -2
BITMAP
2440
2FE0
4440
47C0
C440
47C0
4440
4FE0
4000
4440
4820
ENDCHAR
STARTCHAR $501C
ENCODING 20508
SWIDTH 1000 0
DWIDTH 12 0
BBX 11 11 0 -2
BITMAP
2FE0
2920
4BA0
4920
CBA0
4820
4BA0
4AA0
4BA0
4820
5060
ENDCHAR
STARTCHAR $501D
ENCODING 20509
SWIDTH 1000 0
DWIDTH 12 0
BBX 11 11 0 -2
BITMAP
2080
F880
2080
F880
8880
F880
8940
F940
2140
FA20
2220
ENDCHAR
STARTCHAR $501E
ENCODING 20510
SWIDTH 1000 0
DWIDTH 12 0
BBX 11 11 0 -2
BITMAP
2100
2FE0
4000
47C0
C440
4440
47C0
4100
4540
4920
4300
ENDCHAR
STARTCHAR $501F
ENCODING 20511
SWIDTH 1000 0
DWIDTH 12 0
BBX 11 11 0 -2
BITMAP
2480
2FC0
4480
4480
DFE0
4000
4FC0
4840
4FC0
4840
4FC0
ENDCHAR
STARTCHAR $5021
ENCODING 20513
SWIDTH 1000 0
DWIDTH 12 0
BBX 11 11 0 -2
BITMAP
2FC0
2840
4FC0
4840
CFC0
4000
5FE0
5020
5FE0
5020
5FE0
ENDCHAR
STARTCHAR $5022
ENCODING 20514
SWIDTH 1000 0
DWIDTH 12 0
BBX 11 11 0 -2
BITMAP
2200
3FE0
4240
5FE0
C240
4FC0
4200
4BC0
4A00
5600
51E0
ENDCHAR
STARTCHAR $5023-456
ENCODING 20515
SWIDTH 1000 0
DWIDTH 12 0
BBX 11 11 0 -2
BITMAP
2480
2480
5EE0
4920
C8A0
4EA0
4AA0
4AA0
4A40
4AA0
5720
ENDCHAR
STARTCHAR $5024
ENCODING 20516
SWIDTH 1000 0
DWIDTH 12 0
BBX 11 11 0 -2
BITMAP
2100
2FE0
4100
47C0
D440
57C0
5440
5440
57C0
5000
5FE0
ENDCHAR
STARTCHAR $5025
ENCODING 20517
SWIDTH 1000 0
DWIDTH 12 0
BBX 11 11 0 -2
BITMAP
2100
2FE0
4AA0
4280
C4E0
4800
47C0
4100
4100
4100
4FE0
ENDCHAR
STARTCHAR $5026-456
ENCODING 20518
SWIDTH 1000 0
DWIDTH 12 0
BBX 11 11 0 -2
BITMAP
2540
2920
4FE0
4280
DFE0
4440
4FA0
5480
4580
4420
43E0
ENDCHAR
STARTCHAR $5027
ENCODING 20519
SWIDTH 1000 0
DWIDTH 12 0
BBX 11 11 0 -2
BITMAP
2100
2FE0
4820
4000
C7C0
4000
4FE0
4100
4540
5920
4300
ENDCHAR
STARTCHAR $5028
ENCODING 20520
SWIDTH 1000 0
DWIDTH 12 0
BBX 11 11 0 -2
BITMAP
2FE0
2820
4820
4FE0
C880
4FE0
4880
4BE0
4A20
4A20
53E0
ENDCHAR
STARTCHAR $5029-456
ENCODING 20521
SWIDTH 1000 0
DWIDTH 12 0
BBX 11 11 0 -2
BITMAP
2100
2FC0
4100
4FC0
C100
5FE0
4940
4940
4FC0
4840
48C0
ENDCHAR
STARTCHAR $502A
ENCODING 20522
SWIDTH 1000 0
DWIDTH 12 0
BBX 11 11 0 -2
BITMAP
2200
2CE0
4820
4EE0
C820
4820
4FE0
4280
42A0
44A0
58E0
ENDCHAR
STARTCHAR $502B
ENCODING 20523
SWIDTH 1000 0
DWIDTH 12 0
BBX 11 11 0 -2
BITMAP
2200
2500
4880
7760
C000
5FC0
5540
5540
5FC0
5540
5540
ENDCHAR
STARTCHAR $502C
ENCODING 20524
SWIDTH 1000 0
DWIDTH 12 0
BBX 11 11 0 -2
BITMAP
2100
21E0
4100
4FC0
C840
4FC0
4840
4FC0
4100
5FE0
4100
ENDCHAR
STARTCHAR $502D
ENCODING 20525
SWIDTH 1000 0
DWIDTH 12 0
BBX 11 11 0 -2
BITMAP
20E0
2F00
4100
5FE0
C540
5920
4200
5FE0
4440
4380
5C60
ENDCHAR
STARTCHAR $502E
ENCODING 20526
SWIDTH 1000 0
DWIDTH 12 0
BBX 11 11 0 -2
BITMAP
2FE0
2920
4FE0
4920
CFE0
4100
5FE0
4380
4540
5920
4100
ENDCHAR
STARTCHAR $502F-346
ENCODING 20527
SWIDTH 1000 0
DWIDTH 12 0
BBX 11 11 0 -2
BITMAP
29C0
2840
5E20
4A20
C800
5900
5D00
6940
4A40
4AA0
4B20
ENDCHAR
STARTCHAR $5030
ENCODING 20528
SWIDTH 1000 0
DWIDTH 12 0
BBX 11 11 0 -2
BITMAP
2100
2FC0
4100
5FE0
C480
58E0
47C0
4840
5480
4300
5CE0
ENDCHAR
STARTCHAR $5031-456
ENCODING 20529
SWIDTH 1000 0
DWIDTH 12 0
BBX 11 11 0 -2
BITMAP
2FC0
2840
4FC0
4840
CFC0
4000
48A0
4EC0
4880
4AA0
5CE0
ENDCHAR
STARTCHAR $5032
ENCODING 20530
SWIDTH 1000 0
DWIDTH 12 0
BBX 11 11 0 -2
BITMAP
2100
2FE0
4100
4FE0
C920
4FE0
4920
4FE0
4380
4540
5920
ENDCHAR
STARTCHAR $5033
ENCODING 20531
SWIDTH 1000 0
DWIDTH 12 0
BBX 11 11 0 -2
BITMAP
2100
2FE0
4540
4540
CFE0
4120
5FE0
4120
4FE0
4100
4300
ENDCHAR
STARTCHAR $5034
ENCODING 20532
SWIDTH 1000 0
DWIDTH 12 0
BBX 11 11 0 -2
BITMAP
2100
2FE0
4280
4440
C920
47C0
4100
4440
4FE0
4440
4840
ENDCHAR
STARTCHAR $5035
ENCODING 20533
SWIDTH 1000 0
DWIDTH 12 0
BBX 11 11 0 -2
BITMAP
2EA0
20A0
5FE0
4080
C280
4A80
4B40
4A40
4A40
4B20
5C20
ENDCHAR
STARTCHAR $5036
ENCODING 20534
SWIDTH 1000 0
DWIDTH 12 0
BBX 11 11 0 -2
BITMAP
2FC0
2840
4FC0
4840
CFC0
4840
4FC0
4000
5FE0
4840
5020
ENDCHAR
STARTCHAR $5037
ENCODING 20535
SWIDTH 1000 0
DWIDTH 12 0
BBX 11 11 0 -2
BITMAP
2100
2FE0
4280
4440
DBA0
4000
4FE0
4100
4540
5920
4300
ENDCHAR
STARTCHAR $5038-456
ENCODING 20536
SWIDTH 1000 0
DWIDTH 12 0
BBX 11 11 0 -2
BITMAP
2060
2F80
4A40
4920
D000
4100
5FE0
4380
4540
5920
4100
ENDCHAR
STARTCHAR $5039
ENCODING 20537
SWIDTH 1000 0
DWIDTH 12 0
BBX 11 11 0 -2
BITMAP
1100
1280
2440
2BA0
6100
AFE0
2920
2FE0
2100
2280
2C60
ENDCHAR
STARTCHAR $503A
ENCODING 20538
SWIDTH 1000 0
DWIDTH 12 0
BBX 11 11 0 -2
BITMAP
2100
2FC0
4100
4FC0
C100
5FE0
4840
4940
4940
4280
4C60
ENDCHAR
STARTCHAR $503B
ENCODING 20539
SWIDTH 1000 0
DWIDTH 12 0
BBX 11 11 0 -2
BITMAP
3FE0
2AA0
4AA0
4EA0
CAC0
4EA0
4AA0
4AA0
4EE0
5A80
4280
ENDCHAR
STARTCHAR $503C
ENCODING 20540
SWIDTH 1000 0
DWIDTH 12 0
BBX 11 11 0 -2
BITMAP
2100
2FE0
4100
4FC0
C840
4FC0
4840
4FC0
4840
4840
5FE0
ENDCHAR
STARTCHAR $503D
ENCODING 20541
SWIDTH 1000 0
DWIDTH 12 0
BBX 11 11 0 -2
BITMAP
2100
2680
5860
4780
C100
5FE0
4100
4FC0
4840
4840
4FC0
ENDCHAR
STARTCHAR $503E
ENCODING 20542
SWIDTH 1000 0
DWIDTH 12 0
BBX 11 11 0 -2
BITMAP
23E0
2080
53E0
5220
DEA0
52A0
52A0
56A0
5880
4140
4220
ENDCHAR
STARTCHAR $503F
ENCODING 20543
SWIDTH 1000 0
DWIDTH 12 0
BBX 11 11 0 -2
BITMAP
2100
2FE0
4440
4280
DFE0
4100
5FE0
4240
4480
4380
5C60
ENDCHAR
STARTCHAR $5040
ENCODING 20544
SWIDTH 1000 0
DWIDTH 12 0
BBX 11 11 0 -2
BITMAP
2480
2FE0
4480
4100
CFC0
4940
4940
5FE0
4100
4280
5C60
ENDCHAR
STARTCHAR $5041-46
ENCODING 20545
SWIDTH 1000 0
DWIDTH 12 0
BBX 11 11 0 -2
BITMAP
20C0
2F00
4A40
5120
CFC0
4940
5FE0
4940
5FE0
4840
48C0
ENDCHAR
STARTCHAR $5042
ENCODING 20546
SWIDTH 1000 0
DWIDTH 12 0
BBX 11 11 0 -2
BITMAP
2840
2480
5FE0
4000
DE20
52A0
5EA0
52A0
5EA0
5220
5660
ENDCHAR
STARTCHAR $5043
ENCODING 20547
SWIDTH 1000 0
DWIDTH 12 0
BBX 11 11 0 -2
BITMAP
2FE0
2A40
4BC0
4A40
CBC0
4900
4FE0
4A40
4980
4A40
4FE0
ENDCHAR
STARTCHAR $5044
ENCODING 20548
SWIDTH 1000 0
DWIDTH 12 0
BBX 11 11 0 -2
BITMAP
2FE0
2100
4FE0
4AA0
CAA0
4AA0
4100
4FE0
4100
4280
4C60
ENDCHAR
STARTCHAR $5045
ENCODING 20549
SWIDTH 1000 0
DWIDTH 12 0
BBX 11 11 0 -2
BITMAP
2FC0
2100
5FE0
4940
CFC0
4940
4FC0
4100
4FC0
4100
5FE0
ENDCHAR
STARTCHAR $5046-456
ENCODING 20550
SWIDTH 1000 0
DWIDTH 12 0
BBX 11 11 0 -2
BITMAP
2100
2FC0
4100
4FC0
C280
5FE0
4480
4CC0
57A0
4480
4780
ENDCHAR
STARTCHAR $5047
ENCODING 20551
SWIDTH 1000 0
DWIDTH 12 0
BBX 11 11 0 -2
BITMAP
2EE0
2A20
4A20
4EE0
C800
4EE0
48A0
48A0
4E40
48A0
4920
ENDCHAR
STARTCHAR $5048
ENCODING 20552
SWIDTH 1000 0
DWIDTH 12 0
BBX 11 11 0 -2
BITMAP
2FC0
2840
4FC0
4840
CFC0
4400
4FE0
5120
4AA0
4FA0
4060
ENDCHAR
STARTCHAR $5049-46
ENCODING 20553
SWIDTH 1000 0
DWIDTH 12 0
BBX 11 11 0 -2
BITMAP
2200
2FC0
4440
5FE0
C840
4FC0
4100
4FE0
4900
5FE0
4100
ENDCHAR
STARTCHAR $504A
ENCODING 20554
SWIDTH 1000 0
DWIDTH 12 0
BBX 11 11 0 -2
BITMAP
20E0
2F00
4100
4FE0
C920
4FE0
4100
5FE0
5120
57A0
5060
ENDCHAR
STARTCHAR $504B
ENCODING 20555
SWIDTH 1000 0
DWIDTH 12 0
BBX 11 11 0 -2
BITMAP
2FE0
2820
4FE0
4A20
C940
4BE0
4940
4940
4BE0
4940
5240
ENDCHAR
STARTCHAR $504C
ENCODING 20556
SWIDTH 1000 0
DWIDTH 12 0
BBX 11 11 0 -2
BITMAP
2440
2FE0
4440
4200
CFE0
4200
4400
4FE0
5420
4420
47E0
ENDCHAR
STARTCHAR $504D
ENCODING 20557
SWIDTH 1000 0
DWIDTH 12 0
BBX 11 11 0 -2
BITMAP
2FC0
2840
4FC0
4840
CFC0
4000
5FE0
4500
45E0
4B00
50E0
ENDCHAR
STARTCHAR $504E-456
ENCODING 20558
SWIDTH 1000 0
DWIDTH 12 0
BBX 11 11 0 -2
BITMAP
2FE0
2920
4FE0
4920
CFE0
4000
5FE0
4900
48A0
4A40
5C20
ENDCHAR
STARTCHAR $504F-346
ENCODING 20559
SWIDTH 1000 0
DWIDTH 12 0
BBX 11 11 0 -2
BITMAP
2FE0
2800
4FE0
4820
CFE0
4800
4FE0
4AA0
4FE0
4AA0
52A0
ENDCHAR
STARTCHAR $5050
ENCODING 20560
SWIDTH 1000 0
DWIDTH 12 0
BBX 11 11 0 -2
BITMAP
2100
2FE0
4280
4540
CFE0
4880
4B20
48C0
4B20
48C0
5700
ENDCHAR
STARTCHAR $5051
ENCODING 20561
SWIDTH 1000 0
DWIDTH 12 0
BBX 11 11 0 -2
BITMAP
2FC0
28C0
4F40
4940
CFC0
4D40
4D40
4FC0
4940
4960
57A0
ENDCHAR
STARTCHAR $5052
ENCODING 20562
SWIDTH 1000 0
DWIDTH 12 0
BBX 11 11 0 -2
BITMAP
2FC0
2840
4FC0
4840
DFE0
4800
4FE0
52A0
44A0
4920
5260
ENDCHAR
STARTCHAR $5053
ENCODING 20563
SWIDTH 1000 0
DWIDTH 12 0
BBX 11 11 0 -2
BITMAP
2FE0
2820
4FE0
4800
CFE0
4A40
4FA0
4880
4BE0
4880
57E0
ENDCHAR
STARTCHAR $5054
ENCODING 20564
SWIDTH 1000 0
DWIDTH 12 0
BBX 11 11 0 -2
BITMAP
2EE0
2AA0
4EE0
4000
C7C0
4000
5FE0
4400
47C0
4040
4180
ENDCHAR
STARTCHAR $5055-456
ENCODING 20565
SWIDTH 1000 0
DWIDTH 12 0
BBX 11 11 0 -2
BITMAP
2880
2EA0
48C0
4AA0
DCE0
4100
4FE0
4820
4FE0
4820
4FE0
ENDCHAR
STARTCHAR $5056-456
ENCODING 20566
SWIDTH 1000 0
DWIDTH 12 0
BBX 11 11 0 -2
BITMAP
2220
2FA0
4240
4280
DFE0
4280
47C0
4C40
57C0
4440
47C0
ENDCHAR
STARTCHAR $5057
ENCODING 20567
SWIDTH 1000 0
DWIDTH 12 0
BBX 11 11 0 -2
BITMAP
2540
2920
5340
4080
C7E0
5820
4FE0
4820
4FE0
4820
4FE0
ENDCHAR
STARTCHAR $5058
ENCODING 20568
SWIDTH 1000 0
DWIDTH 12 0
BBX 11 11 0 -2
BITMAP
27C0
2440
4440
4440
C7C0
4000
4EE0
4AA0
4AA0
4AA0
4EE0
ENDCHAR
STARTCHAR $5059
ENCODING 20569
SWIDTH 1000 0
DWIDTH 12 0
BBX 11 11 0 -2
BITMAP
2100
2FE0
4440
4280
CFE0
4920
47C0
4540
4540
45C0
4100
ENDCHAR
STARTCHAR $505A
ENCODING 20570
SWIDTH 1000 0
DWIDTH 12 0
BBX 11 11 0 -2
BITMAP
2900
2900
5DE0
4A40
C940
4940
5D40
5540
5480
5540
5E20
ENDCHAR
STARTCHAR $505B
ENCODING 20571
SWIDTH 1000 0
DWIDTH 12 0
BBX 11 11 0 -2
BITMAP
20C0
2F00
4100
5FE0
C100
4500
5960
5120
5D60
5120
5FE0
ENDCHAR
STARTCHAR $505C
ENCODING 20572
SWIDTH 1000 0
DWIDTH 12 0
BBX 11 11 0 -2
BITMAP
2200
3FE0
4840
4FC0
C000
5FE0
5020
4FC0
4100
4100
4700
ENDCHAR
STARTCHAR $505E
ENCODING 20574
SWIDTH 1000 0
DWIDTH 12 0
BBX 11 11 0 -2
BITMAP
2540
2FE0
4540
45C0
C400
47E0
4100
4FE0
4380
4540
4920
ENDCHAR
STARTCHAR $505F
ENCODING 20575
SWIDTH 1000 0
DWIDTH 12 0
BBX 11 11 0 -2
BITMAP
2200
2FC0
4840
4FC0
C840
4840
5FE0
4100
4FC0
4100
5FE0
ENDCHAR
STARTCHAR $5060
ENCODING 20576
SWIDTH 1000 0
DWIDTH 12 0
BBX 11 11 0 -2
BITMAP
2FE0
2280
4FE0
4AA0
CFE0
4100
5FE0
4240
4480
4380
5C60
ENDCHAR
STARTCHAR $5061
ENCODING 20577
SWIDTH 1000 0
DWIDTH 12 0
BBX 11 11 0 -2
BITMAP
2440
2FE0
4440
47C0
C440
47C0
4440
5FE0
4A80
4C40
4FE0
ENDCHAR
STARTCHAR $5062
ENCODING 20578
SWIDTH 1000 0
DWIDTH 12 0
BBX 11 11 0 -2
BITMAP
2480
3880
48A0
4AA0
FEC0
4A80
5880
5D40
6940
4940
4A20
ENDCHAR
STARTCHAR $5063
ENCODING 20579
SWIDTH 1000 0
DWIDTH 12 0
BBX 11 11 0 -2
BITMAP
2100
3FE0
4840
4480
DFE0
4000
4FC0
4840
4FC0
4840
4FC0
ENDCHAR
STARTCHAR $5064
ENCODING 20580
SWIDTH 1000 0
DWIDTH 12 0
BBX 11 11 0 -2
BITMAP
2820
2440
5FE0
4280
CFE0
4AA0
4CE0
4820
4FE0
4820
4FE0
ENDCHAR
STARTCHAR $5065
ENCODING 20581
SWIDTH 1000 0
DWIDTH 12 0
BBX 11 11 0 -2
BITMAP
2080
3BE0
48A0
4FE0
D0A0
5BE0
4880
4BE0
5880
4C80
53E0
ENDCHAR
STARTCHAR $5066
ENCODING 20582
SWIDTH 1000 0
DWIDTH 12 0
BBX 11 11 0 -2
BITMAP
2FE0
2120
45C0
4500
DBE0
4840
4FC0
4840
4FC0
4840
48C0
ENDCHAR
STARTCHAR $5069
ENCODING 20585
SWIDTH 1000 0
DWIDTH 12 0
BBX 11 11 0 -2
BITMAP
2780
2880
5FE0
4820
CFE0
4820
4FE0
4820
4FE0
4440
5820
ENDCHAR
STARTCHAR $506A
ENCODING 20586
SWIDTH 1000 0
DWIDTH 12 0
BBX 11 11 0 -2
BITMAP
2FE0
2000
47C0
4440
C7C0
4000
4FE0
4920
4FE0
4920
4FE0
ENDCHAR
STARTCHAR $506B
ENCODING 20587
SWIDTH 1000 0
DWIDTH 12 0
BBX 11 11 0 -2
BITMAP
2480
2BE0
5080
4480
CBE0
5840
4BE0
4A40
4940
4840
48C0
ENDCHAR
STARTCHAR $506C-6
ENCODING 20588
SWIDTH 1000 0
DWIDTH 12 0
BBX 11 11 0 -2
BITMAP
2800
2FE0
4AA0
52A0
CF20
45A0
4A60
4100
5540
54A0
67A0
ENDCHAR
STARTCHAR $506D
ENCODING 20589
SWIDTH 1000 0
DWIDTH 12 0
BBX 11 11 0 -2
BITMAP
2FE0
2100
4200
4FE0
CAA0
4BA0
4AA0
4AA0
4BA0
4AA0
4FE0
ENDCHAR
STARTCHAR $506E
ENCODING 20590
SWIDTH 1000 0
DWIDTH 12 0
BBX 11 11 0 -2
BITMAP
2FC0
2840
4FC0
4000
DFE0
4840
4FC0
4840
49E0
5E40
4040
ENDCHAR
STARTCHAR $506F-456
ENCODING 20591
SWIDTH 1000 0
DWIDTH 12 0
BBX 11 11 0 -2
BITMAP
2100
2FE0
4000
4FE0
C820
4820
4FE0
4280
5CA0
4540
4E20
ENDCHAR
STARTCHAR $5071
ENCODING 20593
SWIDTH 1000 0
DWIDTH 12 0
BBX 11 11 0 -2
BITMAP
2FE0
2880
4FE0
4880
CBE0
4A20
4BE0
4A20
4BE0
4A20
53E0
ENDCHAR
STARTCHAR $5072
ENCODING 20594
SWIDTH 1000 0
DWIDTH 12 0
BBX 11 11 0 -2
BITMAP
2FE0
2920
4FE0
4920
C920
4FE0
4200
4540
4C20
54A0
4380
ENDCHAR
STARTCHAR $5073
ENCODING 20595
SWIDTH 1000 0
DWIDTH 12 0
BBX 11 11 0 -2
BITMAP
2920
2920
4FE0
4000
CFE0
4100
4FE0
4AA0
4AA0
4AA0
4860
ENDCHAR
STARTCHAR $5074
ENCODING 20596
SWIDTH 1000 0
DWIDTH 12 0
BBX 11 11 0 -2
BITMAP
1E20
32A0
5EA0
52A0
D2A0
5EA0
52A0
5EA0
4020
4A20
5160
ENDCHAR
STARTCHAR $5075
ENCODING 20597
SWIDTH 1000 0
DWIDTH 12 0
BBX 11 11 0 -2
BITMAP
2100
21E0
4100
4FC0
C840
4FC0
4840
4FC0
4840
4FC0
5860
ENDCHAR
STARTCHAR $5076
ENCODING 20598
SWIDTH 1000 0
DWIDTH 12 0
BBX 11 11 0 -2
BITMAP
2FE0
2920
4FE0
4920
CFE0
4100
5FE0
5120
5160
57A0
5060
ENDCHAR
STARTCHAR $5077
ENCODING 20599
SWIDTH 1000 0
DWIDTH 12 0
BBX 11 11 0 -2
BITMAP
2100
2280
4440
5BA0
C000
5EA0
52A0
5EA0
52A0
5E20
5260
ENDCHAR
STARTCHAR $5078
ENCODING 20600
SWIDTH 1000 0
DWIDTH 12 0
BBX 11 11 0 -2
BITMAP
2700
2280
4440
5BA0
C000
5CA0
54A0
5D40
5540
5CA0
54A0
ENDCHAR
STARTCHAR $5079
ENCODING 20601
SWIDTH 1000 0
DWIDTH 12 0
BBX 11 11 0 -2
BITMAP
2100
23C0
5640
5180
D240
5C20
57E0
54A0
57E0
44A0
47E0
ENDCHAR
STARTCHAR $507A-234
ENCODING 20602
SWIDTH 1000 0
DWIDTH 12 0
BBX 11 11 0 -2
BITMAP
2E80
2A80
56C0
42A0
C580
5860
4FC0
4840
4FC0
4840
4FC0
ENDCHAR
STARTCHAR $507B
ENCODING 20603
SWIDTH 1000 0
DWIDTH 12 0
BBX 11 11 0 -2
BITMAP
2920
2540
4FE0
4380
C540
4920
4200
5FE0
4440
4380
5C60
ENDCHAR
STARTCHAR $507C
ENCODING 20604
SWIDTH 1000 0
DWIDTH 12 0
BBX 11 11 0 -2
BITMAP
23C0
2200
4FC0
4040
DFE0
4040
4FC0
4200
4BC0
5600
51E0
ENDCHAR
STARTCHAR $507D
ENCODING 20605
SWIDTH 1000 0
DWIDTH 12 0
BBX 11 11 0 -2
BITMAP
2A00
2600
5F80
4480
C7C0
4840
4FE0
5020
6AA0
4AA0
5060
ENDCHAR
STARTCHAR $507E
ENCODING 20606
SWIDTH 1000 0
DWIDTH 12 0
BBX 11 11 0 -2
BITMAP
2100
2FE0
4540
4FE0
C440
4FE0
4820
4920
4920
4280
4C60
ENDCHAR
STARTCHAR $507F
ENCODING 20607
SWIDTH 1000 0
DWIDTH 12 0
BBX 11 11 0 -2
BITMAP
2920
2540
4FE0
4820
C7C0
4000
4FE0
4200
4240
4440
4FA0
ENDCHAR
STARTCHAR $5080
ENCODING 20608
SWIDTH 1000 0
DWIDTH 12 0
BBX 11 11 0 -2
BITMAP
2400
3FC0
5240
5FC0
D240
5FC0
4280
4540
45C0
4920
51E0
ENDCHAR
STARTCHAR $5081
ENCODING 20609
SWIDTH 1000 0
DWIDTH 12 0
BBX 11 11 0 -2
BITMAP
2500
2960
4920
4D60
C920
4FE0
4100
4FE0
4440
4380
5C60
ENDCHAR
STARTCHAR $5085
ENCODING 20613
SWIDTH 1000 0
DWIDTH 12 0
BBX 11 11 0 -2
BITMAP
2140
2FE0
4100
4FE0
C920
4FE0
4920
4040
5FE0
4440
42C0
ENDCHAR
STARTCHAR $5086
ENCODING 20614
SWIDTH 1000 0
DWIDTH 12 0
BBX 11 11 0 -2
BITMAP
2FE0
2880
4BE0
4A20
CBE0
4A20
4BE0
4880
4AC0
4AA0
55A0
ENDCHAR
STARTCHAR $5088
ENCODING 20616
SWIDTH 1000 0
DWIDTH 12 0
BBX 11 11 0 -2
BITMAP
2FE0
2280
4FE0
4AA0
CAA0
4FE0
4100
5FE0
4380
4540
5920
ENDCHAR
STARTCHAR $5089
ENCODING 20617
SWIDTH 1000 0
DWIDTH 12 0
BBX 11 11 0 -2
BITMAP
2FE0
2800
4FE0
4AA0
CA40
4B20
4840
4FE0
4A40
4940
50C0
ENDCHAR
STARTCHAR $508A
ENCODING 20618
SWIDTH 1000 0
DWIDTH 12 0
BBX 11 11 0 -2
BITMAP
27C0
2440
47C0
4000
CFE0
4820
4FE0
4820
4FE0
4440
5820
ENDCHAR
STARTCHAR $508B-46
ENCODING 20619
SWIDTH 1000 0
DWIDTH 12 0
BBX 11 11 0 -2
BITMAP
2480
3FE0
4480
5FE0
C480
5FE0
4940
5FE0
4940
5FE0
4840
ENDCHAR
STARTCHAR $508C
ENCODING 20620
SWIDTH 1000 0
DWIDTH 12 0
BBX 11 11 0 -2
BITMAP
2FC0
2900
4FC0
4900
CFC0
4900
4FE0
4020
4AA0
4AA0
5060
ENDCHAR
STARTCHAR $508D
ENCODING 20621
SWIDTH 1000 0
DWIDTH 12 0
BBX 11 11 0 -2
BITMAP
2100
2FE0
4440
4FE0
C820
4100
4FE0
4200
43E0
4420
58C0
ENDCHAR
STARTCHAR $508E-456
ENCODING 20622
SWIDTH 1000 0
DWIDTH 12 0
BBX 11 11 0 -2
BITMAP
28C0
2F00
4820
47E0
CA40
4BC0
4A40
4A40
4FE0
4440
5820
ENDCHAR
STARTCHAR $508F
ENCODING 20623
SWIDTH 1000 0
DWIDTH 12 0
BBX 11 11 0 -2
BITMAP
2100
2FE0
4880
4BE0
C8A0
4FE0
48A0
4BE0
4A20
4A20
53E0
ENDCHAR
STARTCHAR $5090
ENCODING 20624
SWIDTH 1000 0
DWIDTH 12 0
BBX 11 11 0 -2
BITMAP
2100
2FE0
4440
47C0
C000
4FE0
4820
4BA0
4AA0
4BA0
4860
ENDCHAR
STARTCHAR $5091
ENCODING 20625
SWIDTH 1000 0
DWIDTH 12 0
BBX 11 11 0 -2
BITMAP
2040
3DE0
6540
5540
CBE0
5040
4200
7FE0
4A80
5240
6220
ENDCHAR
STARTCHAR $5093-46
ENCODING 20627
SWIDTH 1000 0
DWIDTH 12 0
BBX 11 11 0 -2
BITMAP
2FE0
2800
4FE0
4820
CFE0
4800
4F60
4B60
4DA0
4B60
55A0
ENDCHAR
STARTCHAR $5095
ENCODING 20629
SWIDTH 1000 0
DWIDTH 12 0
BBX 11 11 0 -2
BITMAP
2100
2FE0
4A20
4480
C7E0
4C80
57E0
4480
47E0
4480
47E0
ENDCHAR
STARTCHAR $5096
ENCODING 20630
SWIDTH 1000 0
DWIDTH 12 0
BBX 11 11 0 -2
BITMAP
2300
2480
5FE0
4840
CFC0
4840
4FC0
4800
4FE0
5420
57E0
ENDCHAR
STARTCHAR $5098
ENCODING 20632
SWIDTH 1000 0
DWIDTH 12 0
BBX 11 11 0 -2
BITMAP
0400
0A00
3180
C460
2480
5540
2480
5540
FFE0
0400
0400
ENDCHAR
STARTCHAR $5099-56
ENCODING 20633
SWIDTH 1000 0
DWIDTH 12 0
BBX 11 11 0 -2
BITMAP
2480
3FE0
4480
4FE0
C800
4FE0
4920
4FE0
4920
5FE0
6920
ENDCHAR
STARTCHAR $509A
ENCODING 20634
SWIDTH 1000 0
DWIDTH 12 0
BBX 11 11 0 -2
BITMAP
2880
3E80
40E0
5520
E2A0
54A0
54A0
54A0
4840
54A0
6320
ENDCHAR
STARTCHAR $509B
ENCODING 20635
SWIDTH 1000 0
DWIDTH 12 0
BBX 11 11 0 -2
BITMAP
2100
3FE0
54A0
4840
C300
4480
5860
4FC0
4840
4840
4FC0
ENDCHAR
STARTCHAR $509D-46
ENCODING 20637
SWIDTH 1000 0
DWIDTH 12 0
BBX 11 11 0 -2
BITMAP
2FC0
2840
4FC0
4840
CFC0
4000
5EE0
4A60
52A0
4660
4AA0
ENDCHAR
STARTCHAR $50A0-456
ENCODING 20640
SWIDTH 1000 0
DWIDTH 12 0
BBX 11 11 0 -2
BITMAP
2C40
2040
5DE0
4040
DC40
4140
5CC0
4040
5C40
5440
5CC0
ENDCHAR
STARTCHAR $50A2
ENCODING 20642
SWIDTH 1000 0
DWIDTH 12 0
BBX 11 11 0 -2
BITMAP
2100
3FE0
5020
4FC0
C100
46A0
59C0
4680
59C0
46A0
5980
ENDCHAR
STARTCHAR $50A3-456
ENCODING 20643
SWIDTH 1000 0
DWIDTH 12 0
BBX 11 11 0 -2
BITMAP
2100
2FC0
4200
4FC0
C480
5FE0
4940
5520
4380
4540
5B20
ENDCHAR
STARTCHAR $50A4
ENCODING 20644
SWIDTH 1000 0
DWIDTH 12 0
BBX 11 11 0 -2
BITMAP
24A0
2EA0
4480
5FE0
C880
7EA0
54A0
5E40
4440
5EA0
4520
ENDCHAR
STARTCHAR $50A5
ENCODING 20645
SWIDTH 1000 0
DWIDTH 12 0
BBX 11 11 0 -2
BITMAP
2920
2540
4FE0
4820
C7C0
4440
4440
47C0
4280
44A0
58E0
ENDCHAR
STARTCHAR $50A6
ENCODING 20646
SWIDTH 1000 0
DWIDTH 12 0
BBX 11 11 0 -2
BITMAP
2FC0
2840
49C0
4940
DFE0
5020
4FC0
4840
4FC0
4840
48C0
ENDCHAR
STARTCHAR $50A7
ENCODING 20647
SWIDTH 1000 0
DWIDTH 12 0
BBX 11 11 0 -2
BITMAP
2100
2FE0
48A0
4700
C400
47C0
4480
4480
5FE0
4440
4820
ENDCHAR
STARTCHAR $50A8-234
ENCODING 20648
SWIDTH 1000 0
DWIDTH 12 0
BBX 11 11 0 -2
BITMAP
2080
29E0
4480
40A0
DBE0
4880
49E0
4B20
49E0
4D20
49E0
ENDCHAR
STARTCHAR $50AA
ENCODING 20650
SWIDTH 1000 0
DWIDTH 12 0
BBX 11 11 0 -2
BITMAP
2200
2440
4FA0
4440
CAA0
5FE0
4480
4940
5620
40C0
4F00
ENDCHAR
STARTCHAR $50AC
ENCODING 20652
SWIDTH 1000 0
DWIDTH 12 0
BBX 11 11 0 -2
BITMAP
2920
2920
4FE0
4480
CFE0
5880
4FE0
4880
4FE0
4880
4FE0
ENDCHAR
STARTCHAR $50AD
ENCODING 20653
SWIDTH 1000 0
DWIDTH 12 0
BBX 11 11 0 -2
BITMAP
2100
2FE0
4940
4FE0
C940
4FE0
4D20
4FE0
4D20
57E0
5520
ENDCHAR
STARTCHAR $50AE
ENCODING 20654
SWIDTH 1000 0
DWIDTH 12 0
BBX 11 11 0 -2
BITMAP
2280
2FE0
4280
4FE0
CAA0
4FE0
4AA0
4FE0
4440
4440
47C0
ENDCHAR
STARTCHAR $50AF-234
ENCODING 20655
SWIDTH 1000 0
DWIDTH 12 0
BBX 11 11 0 -2
BITMAP
2200
2FE0
4AA0
4EA0
C920
4AA0
4FE0
4200
5140
5420
4380
ENDCHAR
STARTCHAR $50B0
ENCODING 20656
SWIDTH 1000 0
DWIDTH 12 0
BBX 11 11 0 -2
BITMAP
2100
2920
4FE0
4000
CEE0
4AA0
4EE0
4AA0
4EE0
4AA0
5760
ENDCHAR
STARTCHAR $50B1
ENCODING 20657
SWIDTH 1000 0
DWIDTH 12 0
BBX 11 11 0 -2
BITMAP
2540
2940
52A0
46A0
C800
5880
4A80
4AE0
4A80
4D80
4860
ENDCHAR
STARTCHAR $50B2-6
ENCODING 20658
SWIDTH 1000 0
DWIDTH 12 0
BBX 11 11 0 -2
BITMAP
2880
3E80
48E0
7F20
C120
48A0
7EA0
5040
5E40
52A0
66A0
ENDCHAR
STARTCHAR $50B3
ENCODING 20659
SWIDTH 1000 0
DWIDTH 12 0
BBX 11 11 0 -2
BITMAP
2100
3FE0
4940
4FC0
C940
4FC0
4140
5FE0
4880
4480
4180
ENDCHAR
STARTCHAR $50B4
ENCODING 20660
SWIDTH 1000 0
DWIDTH 12 0
BBX 11 11 0 -2
BITMAP
2FE0
2800
4BC0
4A40
CBC0
4800
4EE0
4AA0
4EE0
4800
4FE0
ENDCHAR
STARTCHAR $50B5
ENCODING 20661
SWIDTH 1000 0
DWIDTH 12 0
BBX 11 11 0 -2
BITMAP
2100
2FC0
4100
4FC0
C100
5FE0
4840
4FC0
4840
4FC0
5860
ENDCHAR
STARTCHAR $50B7
ENCODING 20663
SWIDTH 1000 0
DWIDTH 12 0
BBX 11 11 0 -2
BITMAP
2800
2FE0
5840
4FC0
C840
5FE0
4800
4FE0
52A0
44A0
4960
ENDCHAR
STARTCHAR $50B8
ENCODING 20664
SWIDTH 1000 0
DWIDTH 12 0
BBX 11 11 0 -2
BITMAP
2100
2FE0
4100
4BA0
C540
4BA0
4540
4BA0
4100
4280
5C60
ENDCHAR
STARTCHAR $50B9
ENCODING 20665
SWIDTH 1000 0
DWIDTH 12 0
BBX 11 11 0 -2
BITMAP
2100
2FC0
4480
5FE0
C840
4FC0
4840
4FC0
4480
48A0
50E0
ENDCHAR
STARTCHAR $50BA
ENCODING 20666
SWIDTH 1000 0
DWIDTH 12 0
BBX 11 11 0 -2
BITMAP
2880
2EE0
56A0
4AA0
C440
5BA0
4000
5FE0
4100
4940
5320
ENDCHAR
STARTCHAR $50BB-234
ENCODING 20667
SWIDTH 1000 0
DWIDTH 12 0
BBX 11 11 0 -2
BITMAP
2200
2FC0
4A40
4940
CFC0
4840
5260
4780
4C80
4300
5CE0
ENDCHAR
STARTCHAR $50BC
ENCODING 20668
SWIDTH 1000 0
DWIDTH 12 0
BBX 11 11 0 -2
BITMAP
2280
2FE0
4280
4FE0
C920
4FE0
4100
5FE0
4280
4440
5820
ENDCHAR
STARTCHAR $50BD
ENCODING 20669
SWIDTH 1000 0
DWIDTH 12 0
BBX 11 11 0 -2
BITMAP
2100
2FC0
4480
5FE0
C840
4FC0
4840
4FC0
4100
5FE0
4100
ENDCHAR
STARTCHAR $50BE-456
ENCODING 20670
SWIDTH 1000 0
DWIDTH 12 0
BBX 11 11 0 -2
BITMAP
23E0
2080
53E0
5620
DBE0
5220
53E0
5620
5FE0
4140
4220
ENDCHAR
STARTCHAR $50BF
ENCODING 20671
SWIDTH 1000 0
DWIDTH 12 0
BBX 11 11 0 -2
BITMAP
2FE0
2100
45C0
4500
DFE0
4400
47C0
4800
4FE0
5020
5560
ENDCHAR
STARTCHAR $50C1
ENCODING 20673
SWIDTH 1000 0
DWIDTH 12 0
BBX 11 11 0 -2
BITMAP
20E0
2F00
4920
4540
CFE0
4540
5920
4000
4540
54A0
53A0
ENDCHAR
STARTCHAR $50C2
ENCODING 20674
SWIDTH 1000 0
DWIDTH 12 0
BBX 11 11 0 -2
BITMAP
2100
27C0
4540
5FE0
C540
4FE0
4920
5FE0
4440
4380
5C60
ENDCHAR
STARTCHAR $50C4
ENCODING 20676
SWIDTH 1000 0
DWIDTH 12 0
BBX 11 11 0 -2
BITMAP
2FE0
2280
4FE0
4AA0
CFE0
4000
47C0
4000
4FE0
4540
4B20
ENDCHAR
STARTCHAR $50C5
ENCODING 20677
SWIDTH 1000 0
DWIDTH 12 0
BBX 11 11 0 -2
BITMAP
2440
2FE0
4440
4FE0
C920
4920
4FE0
4100
4FE0
4100
5FE0
ENDCHAR
STARTCHAR $50C6-46
ENCODING 20678
SWIDTH 1000 0
DWIDTH 12 0
BBX 11 11 0 -2
BITMAP
3080
2BE0
4080
53E0
CAA0
43E0
5AA0
4FE0
4880
5480
53E0
ENDCHAR
STARTCHAR $50C7-456
ENCODING 20679
SWIDTH 1000 0
DWIDTH 12 0
BBX 11 11 0 -2
BITMAP
2EE0
2660
4AA0
4660
CAA0
4380
4440
59A0
4600
40C0
4F00
ENDCHAR
STARTCHAR $50C8
ENCODING 20680
SWIDTH 1000 0
DWIDTH 12 0
BBX 11 11 0 -2
BITMAP
2FC0
2840
4FC0
4840
DFE0
54A0
5FE0
4840
4480
4300
5CE0
ENDCHAR
STARTCHAR $50C9
ENCODING 20681
SWIDTH 1000 0
DWIDTH 12 0
BBX 11 11 0 -2
BITMAP
0400
0A00
3180
DF60
0000
7BC0
4A40
7BC0
2080
5140
8A20
ENDCHAR
STARTCHAR $50CA
ENCODING 20682
SWIDTH 1000 0
DWIDTH 12 0
BBX 11 11 0 -2
BITMAP
2FE0
2280
4FE0
4AA0
CFE0
4400
5FE0
4D40
5720
4440
43C0
ENDCHAR
STARTCHAR $50CB
ENCODING 20683
SWIDTH 1000 0
DWIDTH 12 0
BBX 11 11 0 -2
BITMAP
2300
2480
5B60
4FC0
C080
4FC0
4840
4FC0
4840
4FC0
5860
ENDCHAR
STARTCHAR $50CD
ENCODING 20685
SWIDTH 1000 0
DWIDTH 12 0
BBX 11 11 0 -2
BITMAP
7E80
4880
BFE0
AAA0
BEA0
AAA0
BEA0
88A0
BEA0
8920
BF60
ENDCHAR
STARTCHAR $50CE
ENCODING 20686
SWIDTH 1000 0
DWIDTH 12 0
BBX 11 11 0 -2
BITMAP
2EE0
2AA0
4EE0
4980
CF60
4280
4FE0
4280
5FE0
4440
5820
ENDCHAR
STARTCHAR $50CF
ENCODING 20687
SWIDTH 1000 0
DWIDTH 12 0
BBX 11 11 0 -2
BITMAP
2780
2880
5FE0
4920
CFE0
4700
59A0
46C0
59A0
46A0
5980
ENDCHAR
STARTCHAR $50D0
ENCODING 20688
SWIDTH 1000 0
DWIDTH 12 0
BBX 11 11 0 -2
BITMAP
2440
2FE0
4100
4FC0
C100
5FE0
4540
5FE0
4840
4840
4FC0
ENDCHAR
STARTCHAR $50D1
ENCODING 20689
SWIDTH 1000 0
DWIDTH 12 0
BBX 11 11 0 -2
BITMAP
20C0
2F00
4200
5FE0
CCC0
57A0
4000
5FE0
54A0
57A0
5060
ENDCHAR
STARTCHAR $50D3
ENCODING 20691
SWIDTH 1000 0
DWIDTH 12 0
BBX 11 11 0 -2
BITMAP
2100
2FC0
4940
4FC0
C100
5FE0
4840
4FC0
4840
4FC0
5860
ENDCHAR
STARTCHAR $50D4-456
ENCODING 20692
SWIDTH 1000 0
DWIDTH 12 0
BBX 11 11 0 -2
BITMAP
2BC0
2840
57A0
4280
CFE0
4AA0
4DE0
4820
5FE0
4440
42C0
ENDCHAR
STARTCHAR $50D5
ENCODING 20693
SWIDTH 1000 0
DWIDTH 12 0
BBX 11 11 0 -2
BITMAP
2AA0
26C0
4FE0
4440
CFE0
4100
4FE0
4100
4FE0
4280
4C60
ENDCHAR
STARTCHAR $50D6
ENCODING 20694
SWIDTH 1000 0
DWIDTH 12 0
BBX 11 11 0 -2
BITMAP
2100
3FE0
4100
4FC0
C840
4FC0
4480
5FE0
4840
4840
4FC0
ENDCHAR
STARTCHAR $50D8-456
ENCODING 20696
SWIDTH 1000 0
DWIDTH 12 0
BBX 11 11 0 -2
BITMAP
2A80
3980
48E0
5F20
D2A0
5EA0
56A0
56A0
5E40
52A0
5720
ENDCHAR
STARTCHAR $50D9
ENCODING 20697
SWIDTH 1000 0
DWIDTH 12 0
BBX 11 11 0 -2
BITMAP
2480
2FC0
4480
4780
C000
5FE0
4940
4FC0
4940
4FC0
5860
ENDCHAR
STARTCHAR $50DA-6
ENCODING 20698
SWIDTH 1000 0
DWIDTH 12 0
BBX 11 11 0 -2
BITMAP
2200
3FE0
54A0
4FC0
D860
4FC0
4840
4FC0
4100
4940
5320
ENDCHAR
STARTCHAR $50DB
ENCODING 20699
SWIDTH 1000 0
DWIDTH 12 0
BBX 11 11 0 -2
BITMAP
2A80
3F80
4AE0
4EA0
CB40
4E40
4A40
5F40
4040
4AA0
5120
ENDCHAR
STARTCHAR $50DC
ENCODING 20700
SWIDTH 1000 0
DWIDTH 12 0
BBX 11 11 0 -2
BITMAP
2EA0
22C0
4AA0
4440
CFC0
5020
4FC0
4840
4FC0
4480
5FE0
ENDCHAR
STARTCHAR $50DE-456
ENCODING 20702
SWIDTH 1000 0
DWIDTH 12 0
BBX 11 11 0 -2
BITMAP
2FC0
2A80
5140
4F80
C880
4FC0
4840
4FE0
4820
4AA0
52E0
ENDCHAR
STARTCHAR $50E0
ENCODING 20704
SWIDTH 1000 0
DWIDTH 12 0
BBX 11 11 0 -2
BITMAP
20E0
2F00
4540
5FE0
C540
4920
5FE0
4920
4FE0
4920
4FE0
ENDCHAR
STARTCHAR $50E1
ENCODING 20705
SWIDTH 1000 0
DWIDTH 12 0
BBX 11 11 0 -2
BITMAP
2100
3FE0
4940
4FC0
C940
4FC0
4140
5FA0
4500
4C40
57A0
ENDCHAR
STARTCHAR $50E3
ENCODING 20707
SWIDTH 1000 0
DWIDTH 12 0
BBX 11 11 0 -2
BITMAP
2440
2EE0
4440
5EE0
C440
5AA0
4FC0
4840
4FC0
4840
4FC0
ENDCHAR
STARTCHAR $50E4
ENCODING 20708
SWIDTH 1000 0
DWIDTH 12 0
BBX 11 11 0 -2
BITMAP
2EE0
2AA0
4FE0
4920
CFE0
4920
4FE0
4100
4FE0
4100
4100
ENDCHAR
STARTCHAR $50E5
ENCODING 20709
SWIDTH 1000 0
DWIDTH 12 0
BBX 11 11 0 -2
BITMAP
2100
2FC0
4100
5FE0
C440
5EE0
4440
5FE0
4280
44A0
58E0
ENDCHAR
STARTCHAR $50E6
ENCODING 20710
SWIDTH 1000 0
DWIDTH 12 0
BBX 11 11 0 -2
BITMAP
24A0
3EA0
4080
5FE0
D280
5280
5E80
4540
5740
6540
4E60
ENDCHAR
STARTCHAR $50E7-46
ENCODING 20711
SWIDTH 1000 0
DWIDTH 12 0
BBX 11 11 0 -2
BITMAP
2580
2840
5FE0
5120
D560
5FE0
4840
4840
4FC0
4840
4FC0
ENDCHAR
STARTCHAR $50E8
ENCODING 20712
SWIDTH 1000 0
DWIDTH 12 0
BBX 11 11 0 -2
BITMAP
2100
2FE0
4540
5FE0
C440
4FE0
4820
4FE0
4820
4FE0
5820
ENDCHAR
STARTCHAR $50E9
ENCODING 20713
SWIDTH 1000 0
DWIDTH 12 0
BBX 11 11 0 -2
BITMAP
2EE0
2AA0
4EE0
4AA0
CEE0
4820
4BA0
4AA0
4BA0
4AA0
4DA0
ENDCHAR
STARTCHAR $50EA
ENCODING 20714
SWIDTH 1000 0
DWIDTH 12 0
BBX 11 11 0 -2
BITMAP
27C0
2080
4FE0
4320
C540
5900
4FE0
4AA0
4DE0
4AA0
4BA0
ENDCHAR
STARTCHAR $50EB
ENCODING 20715
SWIDTH 1000 0
DWIDTH 12 0
BBX 11 11 0 -2
BITMAP
2FE0
2280
4EE0
4820
CEE0
4280
4FE0
4200
4940
5420
47C0
ENDCHAR
STARTCHAR $50EC
ENCODING 20716
SWIDTH 1000 0
DWIDTH 12 0
BBX 11 11 0 -2
BITMAP
2480
2FE0
5880
4FE0
C880
4FE0
4880
4FE0
4000
4AA0
4AA0
ENDCHAR
STARTCHAR $50ED-6
ENCODING 20717
SWIDTH 1000 0
DWIDTH 12 0
BBX 11 11 0 -2
BITMAP
2440
2EE0
5540
5FE0
CCC0
5560
4FC0
4840
4FC0
4840
4FC0
ENDCHAR
STARTCHAR $50EE
ENCODING 20718
SWIDTH 1000 0
DWIDTH 12 0
BBX 11 11 0 -2
BITMAP
2100
2FC0
4480
5FE0
C940
4FC0
4940
4940
5FE0
4100
5FE0
ENDCHAR
STARTCHAR $50F0
ENCODING 20720
SWIDTH 1000 0
DWIDTH 12 0
BBX 11 11 0 -2
BITMAP
2080
FBE0
2080
FBE0
AAA0
71C0
AAA0
2480
0A00
3180
C060
ENDCHAR
STARTCHAR $50F1-234
ENCODING 20721
SWIDTH 1000 0
DWIDTH 12 0
BBX 11 11 0 -2
BITMAP
2FE0
2800
4FE0
4820
CFE0
4940
4BE0
4E80
4BE0
5280
53E0
ENDCHAR
STARTCHAR $50F3
ENCODING 20723
SWIDTH 1000 0
DWIDTH 12 0
BBX 11 11 0 -2
BITMAP
2FE0
2280
4FE0
4AA0
CFE0
4920
4540
5FE0
4380
4540
5920
ENDCHAR
STARTCHAR $50F4
ENCODING 20724
SWIDTH 1000 0
DWIDTH 12 0
BBX 11 11 0 -2
BITMAP
2EE0
2AA0
4EE0
4AA0
CEE0
4820
4BA0
4AA0
4BA0
4AA0
4BA0
ENDCHAR
STARTCHAR $50F5
ENCODING 20725
SWIDTH 1000 0
DWIDTH 12 0
BBX 11 11 0 -2
BITMAP
3FE0
2940
4FC0
4940
CFC0
4000
5FE0
4940
4FC0
4940
5FE0
ENDCHAR
STARTCHAR $50F7
ENCODING 20727
SWIDTH 1000 0
DWIDTH 12 0
BBX 11 11 0 -2
BITMAP
2440
2FE0
4440
4A40
DFE0
4A40
4BC0
4800
5FE0
4540
5920
ENDCHAR
STARTCHAR $50F8
ENCODING 20728
SWIDTH 1000 0
DWIDTH 12 0
BBX 11 11 0 -2
BITMAP
2440
2EE0
4440
4EE0
D540
4FE0
4000
5FE0
4100
4940
5320
ENDCHAR
STARTCHAR $50F9
ENCODING 20729
SWIDTH 1000 0
DWIDTH 12 0
BBX 11 11 0 -2
BITMAP
3FE0
2480
5FE0
54A0
DFE0
4840
4FC0
4840
4FC0
4480
5860
ENDCHAR
STARTCHAR $50FA
ENCODING 20730
SWIDTH 1000 0
DWIDTH 12 0
BBX 11 11 0 -2
BITMAP
27C0
2440
47C0
4EE0
CAA0
4EE0
4100
4FE0
4380
4540
4920
ENDCHAR
STARTCHAR $50FB
ENCODING 20731
SWIDTH 1000 0
DWIDTH 12 0
BBX 11 11 0 -2
BITMAP
3C80
3480
57E0
5540
DD40
53E0
5C80
5480
77E0
5480
5C80
ENDCHAR
STARTCHAR $50FC
ENCODING 20732
SWIDTH 1000 0
DWIDTH 12 0
BBX 11 11 0 -2
BITMAP
2280
2FE0
4AA0
4FE0
CAA0
5FE0
4820
4FE0
4440
4280
5FE0
ENDCHAR
STARTCHAR $50FE
ENCODING 20734
SWIDTH 1000 0
DWIDTH 12 0
BBX 11 11 0 -2
BITMAP
2FE0
2540
5FE0
52A0
CA40
53A0
4400
4FC0
5440
4380
5C60
ENDCHAR
STARTCHAR $50FF
ENCODING 20735
SWIDTH 1000 0
DWIDTH 12 0
BBX 11 11 0 -2
BITMAP
2100
2FE0
4AA0
47C0
C280
4FE0
4440
4920
47C0
4100
4FE0
ENDCHAR
STARTCHAR $5100
ENCODING 20736
SWIDTH 1000 0
DWIDTH 12 0
BBX 11 11 0 -2
BITMAP
2440
3FE0
4100
4FE0
C100
5FE0
44A0
5FE0
44A0
5E40
4CA0
ENDCHAR
STARTCHAR $5101
ENCODING 20737
SWIDTH 1000 0
DWIDTH 12 0
BBX 11 11 0 -2
BITMAP
2480
2FE0
5880
4FE0
C880
4FE0
4000
4EE0
4AA0
4BA0
4860
ENDCHAR
STARTCHAR $5102-456
ENCODING 20738
SWIDTH 1000 0
DWIDTH 12 0
BBX 11 11 0 -2
BITMAP
2280
2FE0
4AA0
4FE0
CAA0
4FE0
4800
4FE0
4AA0
4A40
5720
ENDCHAR
STARTCHAR $5103
ENCODING 20739
SWIDTH 1000 0
DWIDTH 12 0
BBX 11 11 0 -2
BITMAP
2100
3FE0
4BA0
4AA0
CBA0
4820
4FE0
4440
47C0
4440
5FE0
ENDCHAR
STARTCHAR $5104
ENCODING 20740
SWIDTH 1000 0
DWIDTH 12 0
BBX 11 11 0 -2
BITMAP
2200
2FC0
4480
5FE0
C840
4FC0
4840
4FC0
4500
4C40
57A0
ENDCHAR
STARTCHAR $5105
ENCODING 20741
SWIDTH 1000 0
DWIDTH 12 0
BBX 11 11 0 -2
BITMAP
2920
2540
4FE0
4820
C7C0
4440
4FE0
4920
4FE0
4920
4FE0
ENDCHAR
STARTCHAR $5106
ENCODING 20742
SWIDTH 1000 0
DWIDTH 12 0
BBX 11 11 0 -2
BITMAP
2A80
3F80
4AE0
5120
DEA0
62A0
5EA0
5640
5E40
42A0
4D20
ENDCHAR
STARTCHAR $5107-456
ENCODING 20743
SWIDTH 1000 0
DWIDTH 12 0
BBX 11 11 0 -2
BITMAP
2FE0
2AA0
4FE0
4000
DFE0
4840
4FC0
4280
5CA0
4540
4E20
ENDCHAR
STARTCHAR $5108
ENCODING 20744
SWIDTH 1000 0
DWIDTH 12 0
BBX 11 11 0 -2
BITMAP
2300
2480
5B60
4000
DFE0
54A0
5FE0
4840
4FC0
4840
4FC0
ENDCHAR
STARTCHAR $5109
ENCODING 20745
SWIDTH 1000 0
DWIDTH 12 0
BBX 11 11 0 -2
BITMAP
1100
1280
2440
2BA0
6000
AEE0
2AA0
2EE0
2440
2440
2AA0
ENDCHAR
STARTCHAR $510A
ENCODING 20746
SWIDTH 1000 0
DWIDTH 12 0
BBX 11 11 0 -2
BITMAP
2440
2EE0
4440
4EE0
D540
4FE0
4120
4500
45C0
4B00
50E0
ENDCHAR
STARTCHAR $510B-456
ENCODING 20747
SWIDTH 1000 0
DWIDTH 12 0
BBX 11 11 0 -2
BITMAP
2780
2880
5FE0
4A40
CDA0
4800
4BE0
4800
4BE0
4A20
53E0
ENDCHAR
STARTCHAR $5110-234
ENCODING 20752
SWIDTH 1000 0
DWIDTH 12 0
BBX 11 11 0 -2
BITMAP
2200
3FE0
5020
4FE0
D240
4FC0
5840
4FC0
4840
4FC0
7060
ENDCHAR
STARTCHAR $5112
ENCODING 20754
SWIDTH 1000 0
DWIDTH 12 0
BBX 11 11 0 -2
BITMAP
2FE0
2100
4FE0
4920
C540
4000
4FE0
4100
4FE0
4AA0
4AA0
ENDCHAR
STARTCHAR $5113
ENCODING 20755
SWIDTH 1000 0
DWIDTH 12 0
BBX 11 11 0 -2
BITMAP
2100
2FE0
4100
4FE0
C440
5FE0
5220
4440
4FA0
4100
5FE0
ENDCHAR
STARTCHAR $5114
ENCODING 20756
SWIDTH 1000 0
DWIDTH 12 0
BBX 11 11 0 -2
BITMAP
2100
2FE0
4100
4FE0
C020
47C0
4100
5FE0
4A40
4F40
40C0
ENDCHAR
STARTCHAR $5115
ENCODING 20757
SWIDTH 1000 0
DWIDTH 12 0
BBX 11 11 0 -2
BITMAP
2100
2FE0
4280
5D60
C540
5920
4840
4FC0
4840
4FC0
5040
ENDCHAR
STARTCHAR $5116-6
ENCODING 20758
SWIDTH 1000 0
DWIDTH 12 0
BBX 11 11 0 -2
BITMAP
2F40
2A60
4F40
4940
CF00
4A60
4F00
4000
4FE0
4AA0
5FE0
ENDCHAR
STARTCHAR $5117
ENCODING 20759
SWIDTH 1000 0
DWIDTH 12 0
BBX 11 11 0 -2
BITMAP
29E0
2C20
4940
4C80
D3E0
5CA0
6880
5EE0
4A80
5580
6460
ENDCHAR
STARTCHAR $5118
ENCODING 20760
SWIDTH 1000 0
DWIDTH 12 0
BBX 11 11 0 -2
BITMAP
2100
2FE0
4120
5FE0
C120
5FE0
4A40
5120
4FE0
4AA0
5FE0
ENDCHAR
STARTCHAR $5119-456
ENCODING 20761
SWIDTH 1000 0
DWIDTH 12 0
BBX 11 11 0 -2
BITMAP
3080
2BE0
42A0
57E0
C800
43C0
5A40
4BE0
4A20
4A20
57E0
ENDCHAR
STARTCHAR $511A-6
ENCODING 20762
SWIDTH 1000 0
DWIDTH 12 0
BBX 11 11 0 -2
BITMAP
2280
2FE0
4280
4FE0
CAA0
5FE0
5420
47C0
4A40
4180
4E00
ENDCHAR
STARTCHAR $511B
ENCODING 20763
SWIDTH 1000 0
DWIDTH 12 0
BBX 11 11 0 -2
BITMAP
2800
2FE0
5540
5FE0
C540
5FE0
4840
4FE0
5540
43E0
5C40
ENDCHAR
STARTCHAR $511C
ENCODING 20764
SWIDTH 1000 0
DWIDTH 12 0
BBX 11 11 0 -2
BITMAP
2100
3FE0
5220
4D40
D7A0
4000
4FE0
4AA0
5FE0
4100
4300
ENDCHAR
STARTCHAR $511D
ENCODING 20765
SWIDTH 1000 0
DWIDTH 12 0
BBX 11 11 0 -2
BITMAP
2440
2EE0
4440
4AA0
DFE0
5020
4100
5FE0
4380
4540
5920
ENDCHAR
STARTCHAR $511E
ENCODING 20766
SWIDTH 1000 0
DWIDTH 12 0
BBX 11 11 0 -2
BITMAP
2FE0
2540
4920
5FE0
C920
4D60
4BA0
4D60
4BA0
4D60
4920
ENDCHAR
STARTCHAR $511F
ENCODING 20767
SWIDTH 1000 0
DWIDTH 12 0
BBX 11 11 0 -2
BITMAP
2540
2FE0
4820
47C0
C440
4FE0
4820
4FE0
4820
4FE0
5820
ENDCHAR
STARTCHAR $5121
ENCODING 20769
SWIDTH 1000 0
DWIDTH 12 0
BBX 11 11 0 -2
BITMAP
17C0
1540
27C0
6540
A7C0
2000
2FE0
2AA0
2FE0
2AA0
2FE0
ENDCHAR
STARTCHAR $5122
ENCODING 20770
SWIDTH 1000 0
DWIDTH 12 0
BBX 11 11 0 -2
BITMAP
23C0
2200
5FE0
5220
D7C0
5540
57C0
5540
57C0
52A0
6BC0
ENDCHAR
STARTCHAR $5123
ENCODING 20771
SWIDTH 1000 0
DWIDTH 12 0
BBX 11 11 0 -2
BITMAP
2100
2FE0
4940
4BE0
C940
4FE0
4AA0
4BE0
4AA0
4BE0
5620
ENDCHAR
STARTCHAR $5124
ENCODING 20772
SWIDTH 1000 0
DWIDTH 12 0
BBX 11 11 0 -2
BITMAP
2FC0
2840
4FC0
4840
DFE0
4480
5FE0
4540
5BA0
4540
5B20
ENDCHAR
STARTCHAR $5125
ENCODING 20773
SWIDTH 1000 0
DWIDTH 12 0
BBX 11 11 0 -2
BITMAP
2100
3FE0
4100
5FE0
D2A0
5FE0
4840
4FC0
4840
4FC0
5860
ENDCHAR
STARTCHAR $5128
ENCODING 20776
SWIDTH 1000 0
DWIDTH 12 0
BBX 11 11 0 -2
BITMAP
2EE0
2880
4EE0
5540
D540
4FC0
4840
4FC0
4840
4FC0
5860
ENDCHAR
STARTCHAR $5129
ENCODING 20777
SWIDTH 1000 0
DWIDTH 12 0
BBX 11 11 0 -2
BITMAP
3BE0
6A20
BBE0
AA20
BBE0
A900
A9E0
BAA0
84A0
9120
AA60
ENDCHAR
STARTCHAR $512A-6
ENCODING 20778
SWIDTH 1000 0
DWIDTH 12 0
BBX 11 11 0 -2
BITMAP
3FE0
2200
4FC0
4840
DFE0
5120
4440
57C0
4CA0
4300
5CE0
ENDCHAR
STARTCHAR $512B
ENCODING 20779
SWIDTH 1000 0
DWIDTH 12 0
BBX 11 11 0 -2
BITMAP
2100
2FE0
4440
47C0
C000
5FE0
5120
4680
59A0
46C0
5BA0
ENDCHAR
STARTCHAR $512C-456
ENCODING 20780
SWIDTH 1000 0
DWIDTH 12 0
BBX 11 11 0 -2
BITMAP
25E0
3F20
45E0
5F20
C5E0
7F20
55E0
5540
5F40
5140
5160
ENDCHAR
STARTCHAR $512D
ENCODING 20781
SWIDTH 1000 0
DWIDTH 12 0
BBX 11 11 0 -2
BITMAP
24E0
3FA0
4AE0
4AA0
DFE0
44A0
5FE0
4440
4EC0
5540
4460
ENDCHAR
STARTCHAR $5131
ENCODING 20785
SWIDTH 1000 0
DWIDTH 12 0
BBX 11 11 0 -2
BITMAP
24E0
3F80
4AE0
5F20
C0E0
5E80
52E0
5E80
52E0
5E80
5260
ENDCHAR
STARTCHAR $5132-456
ENCODING 20786
SWIDTH 1000 0
DWIDTH 12 0
BBX 11 11 0 -2
BITMAP
2CA0
23E0
5CA0
40C0
DFE0
4080
5DE0
4320
5DE0
5520
5DE0
ENDCHAR
STARTCHAR $5133
ENCODING 20787
SWIDTH 1000 0
DWIDTH 12 0
BBX 11 11 0 -2
BITMAP
2780
2880
5FC0
4840
CFC0
4AA0
4FE0
5940
4FC0
42A0
5CE0
ENDCHAR
STARTCHAR $5134
ENCODING 20788
SWIDTH 1000 0
DWIDTH 12 0
BBX 11 11 0 -2
BITMAP
2100
3FE0
4AA0
4EE0
C440
4FE0
4440
5FE0
42A0
5D40
4620
ENDCHAR
STARTCHAR $5137-456
ENCODING 20791
SWIDTH 1000 0
DWIDTH 12 0
BBX 11 11 0 -2
BITMAP
2EE0
2000
4EE0
4AA0
CFE0
4AA0
4FE0
4A40
4B60
4A40
5760
ENDCHAR
STARTCHAR $5138-234
ENCODING 20792
SWIDTH 1000 0
DWIDTH 12 0
BBX 11 11 0 -2
BITMAP
2FE0
2AA0
4FE0
4540
CBE0
4540
49E0
4F40
55E0
5740
45E0
ENDCHAR
STARTCHAR $5139
ENCODING 20793
SWIDTH 1000 0
DWIDTH 12 0
BBX 11 11 0 -2
BITMAP
2A80
2EE0
5540
5EE0
CB40
5FE0
4840
4FC0
4840
4FC0
5860
ENDCHAR
STARTCHAR $513A-456
ENCODING 20794
SWIDTH 1000 0
DWIDTH 12 0
BBX 11 11 0 -2
BITMAP
2A20
3F40
4AE0
5F40
D5E0
5F40
4540
5FE0
4540
4B40
51E0
ENDCHAR
STARTCHAR $513B
ENCODING 20795
SWIDTH 1000 0
DWIDTH 12 0
BBX 11 11 0 -2
BITMAP
2540
2FE0
4AA0
4380
C000
4FE0
4AA0
4FE0
4100
4FE0
4540
ENDCHAR
STARTCHAR $513C-6
ENCODING 20796
SWIDTH 1000 0
DWIDTH 12 0
BBX 11 11 0 -2
BITMAP
2EE0
2AA0
5FE0
5080
DEE0
54A0
5FA0
52A0
5340
5E40
52A0
ENDCHAR
STARTCHAR $513E
ENCODING 20798
SWIDTH 1000 0
DWIDTH 12 0
BBX 11 11 0 -2
BITMAP
2100
2FE0
4540
4FE0
CAA0
4EE0
4440
4FE0
42A0
4D40
4620
ENDCHAR
STARTCHAR $513F
ENCODING 20799
SWIDTH 1000 0
DWIDTH 12 0
BBX 11 11 0 -2
BITMAP
1100
1100
1100
1100
1100
1100
1100
2100
2120
4120
81E0
ENDCHAR
STARTCHAR $5140
ENCODING 20800
SWIDTH 1000 0
DWIDTH 12 0
BBX 11 11 0 -2
BITMAP
FFE0
1100
1100
1100
1100
1100
1100
2100
2120
4120
81E0
ENDCHAR
STARTCHAR $5141
ENCODING 20801
SWIDTH 1000 0
DWIDTH 12 0
BBX 11 11 0 -2
BITMAP
0400
0800
1100
2080
7FC0
1140
1100
1100
1120
2120
C1E0
ENDCHAR
STARTCHAR $5143
ENCODING 20803
SWIDTH 1000 0
DWIDTH 12 0
BBX 11 11 0 -2
BITMAP
7FC0
0000
0000
0000
FFE0
1100
1100
1100
1120
2120
C1E0
ENDCHAR
STARTCHAR $5144
ENCODING 20804
SWIDTH 1000 0
DWIDTH 12 0
BBX 11 11 0 -2
BITMAP
7FC0
4040
4040
4040
4040
7FC0
1100
1100
1120
2120
C1E0
ENDCHAR
STARTCHAR $5145
ENCODING 20805
SWIDTH 1000 0
DWIDTH 12 0
BBX 11 11 0 -2
BITMAP
0400
FFE0
0800
1100
2080
7FC0
1140
1100
1120
2120
C1E0
ENDCHAR
STARTCHAR $5146
ENCODING 20806
SWIDTH 1000 0
DWIDTH 12 0
BBX 11 11 0 -2
BITMAP
1200
9240
5280
3300
1200
3300
5280
9240
1200
2220
C3E0
ENDCHAR
STARTCHAR $5147
ENCODING 20807
SWIDTH 1000 0
DWIDTH 12 0
BBX 11 11 0 -2
BITMAP
5140
4A40
4440
4A40
5140
4040
7FC0
1100
1120
2120
C1E0
ENDCHAR
STARTCHAR $5148
ENCODING 20808
SWIDTH 1000 0
DWIDTH 12 0
BBX 11 11 0 -2
BITMAP
2400
2400
3FC0
4400
0400
FFE0
1100
1100
1120
2120
C1E0
ENDCHAR
STARTCHAR $5149
ENCODING 20809
SWIDTH 1000 0
DWIDTH 12 0
BBX 11 11 0 -2
BITMAP
0400
4440
2480
1500
0400
FFE0
1100
1100
1120
2120
C1E0
ENDCHAR
STARTCHAR $514A-346
ENCODING 20810
SWIDTH 1000 0
DWIDTH 12 0
BBX 11 11 0 -2
BITMAP
1700
2080
C860
1100
2080
7FC0
1100
1100
1120
2120
C1E0
ENDCHAR
STARTCHAR $514B
ENCODING 20811
SWIDTH 1000 0
DWIDTH 12 0
BBX 11 11 0 -2
BITMAP
0400
FFE0
0400
7FC0
4040
4040
7FC0
1100
1120
2120
C1E0
ENDCHAR
STARTCHAR $514C-456
ENCODING 20812
SWIDTH 1000 0
DWIDTH 12 0
BBX 11 11 0 -2
BITMAP
2F00
2080
4040
BFA0
2080
2080
3F80
1100
1120
2120
C1E0
ENDCHAR
STARTCHAR $514D
ENCODING 20813
SWIDTH 1000 0
DWIDTH 12 0
BBX 11 11 0 -2
BITMAP
2000
3F00
4100
FFC0
4440
4440
7FC0
0A00
0A20
1220
E3E0
ENDCHAR
STARTCHAR $514E-6
ENCODING 20814
SWIDTH 1000 0
DWIDTH 12 0
BBX 11 11 0 -2
BITMAP
03C0
7C00
0400
7FC0
4440
4440
7FC0
1200
1320
22A0
C3E0
ENDCHAR
STARTCHAR $514F
ENCODING 20815
SWIDTH 1000 0
DWIDTH 12 0
BBX 11 11 0 -2
BITMAP
01E0
7E00
4200
43C0
4200
5FE0
4480
4480
44A0
48A0
B0E0
ENDCHAR
STARTCHAR $5150
ENCODING 20816
SWIDTH 1000 0
DWIDTH 12 0
BBX 11 11 0 -2
BITMAP
4FC0
4840
4840
4FC0
4840
4840
4FC0
1100
1120
2120
C1E0
ENDCHAR
STARTCHAR $5151
ENCODING 20817
SWIDTH 1000 0
DWIDTH 12 0
BBX 11 11 0 -2
BITMAP
2080
1100
7FC0
4040
4040
4040
7FC0
1100
1120
2120
C1E0
ENDCHAR
STARTCHAR $5152
ENCODING 20818
SWIDTH 1000 0
DWIDTH 12 0
BBX 11 11 0 -2
BITMAP
0800
73C0
4040
7BC0
4040
4040
7FC0
1100
1120
2120
C1E0
ENDCHAR
STARTCHAR $5154
ENCODING 20820
SWIDTH 1000 0
DWIDTH 12 0
BBX 11 11 0 -2
BITMAP
2000
3F00
4100
FFC0
4440
4440
7FC0
0A00
0B20
12A0
E3E0
ENDCHAR
STARTCHAR $5155
ENCODING 20821
SWIDTH 1000 0
DWIDTH 12 0
BBX 11 11 0 -2
BITMAP
7BC0
4A40
4A40
4E40
4040
4040
7FC0
1100
1120
2120
C1E0
ENDCHAR
STARTCHAR $5156
ENCODING 20822
SWIDTH 1000 0
DWIDTH 12 0
BBX 11 11 0 -2
BITMAP
0400
FFE0
2080
4840
9120
2080
7FC0
1100
1120
2120
C1E0
ENDCHAR
STARTCHAR $5157-456
ENCODING 20823
SWIDTH 1000 0
DWIDTH 12 0
BBX 11 11 0 -2
BITMAP
0400
FFE0
0000
2F80
4040
BFA0
2080
3F80
1100
2120
C1E0
ENDCHAR
STARTCHAR $5158
ENCODING 20824
SWIDTH 1000 0
DWIDTH 12 0
BBX 11 11 0 -2
BITMAP
7100
0100
0240
07A0
F800
53C0
5240
5240
53C0
5020
9FE0
ENDCHAR
STARTCHAR $5159
ENCODING 20825
SWIDTH 1000 0
DWIDTH 12 0
BBX 11 11 0 -2
BITMAP
2080
FC80
2080
F880
8BE0
8880
F880
5080
5080
5020
9FE0
ENDCHAR
STARTCHAR $515A
ENCODING 20826
SWIDTH 1000 0
DWIDTH 12 0
BBX 11 11 0 -2
BITMAP
4440
2480
FFE0
8020
BFA0
2080
2080
3F80
1120
2120
C1E0
ENDCHAR
STARTCHAR $515B
ENCODING 20827
SWIDTH 1000 0
DWIDTH 12 0
BBX 11 11 0 -2
BITMAP
2060
FB80
2080
F880
8FE0
8880
F880
5080
5080
5020
9FE0
ENDCHAR
STARTCHAR $515C
ENCODING 20828
SWIDTH 1000 0
DWIDTH 12 0
BBX 11 11 0 -2
BITMAP
0400
5F60
9120
9F20
9120
DF60
0000
1100
1120
2120
C1E0
ENDCHAR
STARTCHAR $515D-346
ENCODING 20829
SWIDTH 1000 0
DWIDTH 12 0
BBX 11 11 0 -2
BITMAP
21C0
F840
2220
FC20
8BC0
8940
F940
5240
54C0
5020
9FE0
ENDCHAR
STARTCHAR $515E
ENCODING 20830
SWIDTH 1000 0
DWIDTH 12 0
BBX 11 11 0 -2
BITMAP
20C0
FB00
2100
F9C0
8B00
89C0
FB00
5140
51C0
5020
9FE0
ENDCHAR
STARTCHAR $515F
ENCODING 20831
SWIDTH 1000 0
DWIDTH 12 0
BBX 11 11 0 -2
BITMAP
A280
A280
FBE0
A480
2080
FBE0
5140
5140
5140
5A40
9460
ENDCHAR
STARTCHAR $5161
ENCODING 20833
SWIDTH 1000 0
DWIDTH 12 0
BBX 11 11 0 -2
BITMAP
23E0
FC80
2100
FBE0
8A20
8BE0
FA20
5220
53E0
5000
9FE0
ENDCHAR
STARTCHAR $5162
ENCODING 20834
SWIDTH 1000 0
DWIDTH 12 0
BBX 11 11 0 -2
BITMAP
2080
FBE0
2080
FBE0
8A20
8A20
FBE0
5140
5540
5940
9260
ENDCHAR
STARTCHAR $5163
ENCODING 20835
SWIDTH 1000 0
DWIDTH 12 0
BBX 11 11 0 -2
BITMAP
23E0
FA00
23E0
FAA0
8BE0
8AA0
FBE0
5280
55E0
5000
9FE0
ENDCHAR
STARTCHAR $5164
ENCODING 20836
SWIDTH 1000 0
DWIDTH 12 0
BBX 11 11 0 -2
BITMAP
2080
A7E0
AD40
77E0
2540
FFE0
56A0
57E0
5AA0
5140
8FE0
ENDCHAR
STARTCHAR $5165
ENCODING 20837
SWIDTH 1000 0
DWIDTH 12 0
BBX 11 11 0 -2
BITMAP
3C00
0400
0400
0400
0A00
0A00
1100
1100
2080
4040
8020
ENDCHAR
STARTCHAR $5167
ENCODING 20839
SWIDTH 1000 0
DWIDTH 12 0
BBX 11 11 0 -2
BITMAP
1C00
0400
0400
FFE0
8420
8A20
9120
A0A0
8020
8020
80E0
ENDCHAR
STARTCHAR $5168-2346
ENCODING 20840
SWIDTH 1000 0
DWIDTH 12 0
BBX 11 11 0 -2
BITMAP
3C00
0A00
3180
C060
3F80
0400
0400
7FC0
0400
0400
FFE0
ENDCHAR
STARTCHAR $5169
ENCODING 20841
SWIDTH 1000 0
DWIDTH 12 0
BBX 11 11 0 -2
BITMAP
FFE0
0400
0400
FFE0
8420
B5A0
94A0
B5A0
CE60
8420
8460
ENDCHAR
STARTCHAR $516A-456
ENCODING 20842
SWIDTH 1000 0
DWIDTH 12 0
BBX 11 11 0 -2
BITMAP
3C00
0A00
3180
DF60
0000
7920
4920
7A40
4A40
7920
4920
ENDCHAR
STARTCHAR $516B-3456
ENCODING 20843
SWIDTH 1000 0
DWIDTH 12 0
BBX 11 11 0 -2
BITMAP
1F00
0100
0100
1100
1100
1080
2080
2080
4040
4040
8020
ENDCHAR
STARTCHAR $516C-346
ENCODING 20844
SWIDTH 1000 0
DWIDTH 12 0
BBX 11 11 0 -2
BITMAP
1F00
0100
2080
2080
4040
8820
0800
1080
1080
2340
7C40
ENDCHAR
STARTCHAR $516D-456
ENCODING 20845
SWIDTH 1000 0
DWIDTH 12 0
BBX 11 11 0 -2
BITMAP
0400
0400
0400
FFE0
0000
0000
2080
2040
4040
4020
8020
ENDCHAR
STARTCHAR $516E-456
ENCODING 20846
SWIDTH 1000 0
DWIDTH 12 0
BBX 11 11 0 -2
BITMAP
0F00
2080
4040
BFA0
0800
1000
1F80
0080
0080
0080
0700
ENDCHAR
STARTCHAR $516F
ENCODING 20847
SWIDTH 1000 0
DWIDTH 12 0
BBX 11 11 0 -2
BITMAP
4040
2080
1100
0000
FFE0
0820
0820
0820
0820
09E0
0800
ENDCHAR
STARTCHAR $5170
ENCODING 20848
SWIDTH 1000 0
DWIDTH 12 0
BBX 11 11 0 -2
BITMAP
2080
1100
7FC0
0000
0000
0000
3F80
0000
0000
0000
FFE0
ENDCHAR
STARTCHAR $5171
ENCODING 20849
SWIDTH 1000 0
DWIDTH 12 0
BBX 11 11 0 -2
BITMAP
1100
1100
7FC0
1100
1100
1100
FFE0
0000
1100
2080
C060
ENDCHAR
STARTCHAR $5172
ENCODING 20850
SWIDTH 1000 0
DWIDTH 12 0
BBX 11 11 0 -2
BITMAP
7FC0
0400
3F80
0400
FFE0
0000
1100
1100
2080
4040
8020
ENDCHAR
STARTCHAR $5173
ENCODING 20851
SWIDTH 1000 0
DWIDTH 12 0
BBX 11 11 0 -2
BITMAP
2080
1100
7FC0
0400
0400
0400
FFE0
0A00
1100
2080
C060
ENDCHAR
STARTCHAR $5174
ENCODING 20852
SWIDTH 1000 0
DWIDTH 12 0
BBX 11 11 0 -2
BITMAP
0840
4440
2480
2080
0100
0000
FFE0
0000
1100
2080
C060
ENDCHAR
STARTCHAR $5175
ENCODING 20853
SWIDTH 1000 0
DWIDTH 12 0
BBX 11 11 0 -2
BITMAP
0180
3E00
2000
3FC0
2100
2100
2100
FFE0
0000
2080
C060
ENDCHAR
STARTCHAR $5176
ENCODING 20854
SWIDTH 1000 0
DWIDTH 12 0
BBX 11 11 0 -2
BITMAP
2080
FFE0
2080
3F80
2080
3F80
2080
FFE0
0000
2080
C060
ENDCHAR
STARTCHAR $5177
ENCODING 20855
SWIDTH 1000 0
DWIDTH 12 0
BBX 11 11 0 -2
BITMAP
3F80
2080
3F80
2080
3F80
2080
3F80
2080
FFE0
2080
C060
ENDCHAR
STARTCHAR $5178
ENCODING 20856
SWIDTH 1000 0
DWIDTH 12 0
BBX 11 11 0 -2
BITMAP
0A00
7FC0
4A40
4A40
7FC0
4A40
4A40
FFE0
0000
2080
C060
ENDCHAR
STARTCHAR $5179-456
ENCODING 20857
SWIDTH 1000 0
DWIDTH 12 0
BBX 11 11 0 -2
BITMAP
2080
1100
FFE0
2080
4100
8A20
5140
2080
4920
9A60
EBA0
ENDCHAR
STARTCHAR $517B
ENCODING 20859
SWIDTH 1000 0
DWIDTH 12 0
BBX 11 11 0 -2
BITMAP
1100
FFE0
0400
7FC0
0800
FFE0
2080
5140
9120
1100
2100
ENDCHAR
STARTCHAR $517C-46
ENCODING 20860
SWIDTH 1000 0
DWIDTH 12 0
BBX 11 11 0 -2
BITMAP
2F80
4040
BFA0
0A00
7FC0
0A40
FFE0
0A40
7FC0
2A80
CA60
ENDCHAR
STARTCHAR $517D
ENCODING 20861
SWIDTH 1000 0
DWIDTH 12 0
BBX 11 11 0 -2
BITMAP
2080
1100
7FC0
4440
7FC0
4440
FFE0
0000
7FC0
4040
7FC0
ENDCHAR
STARTCHAR $517E-456
ENCODING 20862
SWIDTH 1000 0
DWIDTH 12 0
BBX 11 11 0 -2
BITMAP
2F80
4040
FFE0
4440
7FC0
4440
7FC0
1100
FFE0
2080
C060
ENDCHAR
STARTCHAR $517F
ENCODING 20863
SWIDTH 1000 0
DWIDTH 12 0
BBX 11 11 0 -2
BITMAP
1100
FFE0
2200
F780
2A80
F4A0
2F60
0000
FFE0
2080
7F40
ENDCHAR
STARTCHAR $5180
ENCODING 20864
SWIDTH 1000 0
DWIDTH 12 0
BBX 11 11 0 -2
BITMAP
1260
F380
1220
FFE0
2480
3F80
2480
7FC0
1100
FFE0
2080
ENDCHAR
STARTCHAR $5181-456
ENCODING 20865
SWIDTH 1000 0
DWIDTH 12 0
BBX 11 11 0 -2
BITMAP
8FE0
5820
FFE0
A940
FFE0
A940
FFE0
2A80
FAA0
2A40
3720
ENDCHAR
STARTCHAR $5182
ENCODING 20866
SWIDTH 1000 0
DWIDTH 12 0
BBX 11 11 0 -2
BITMAP
FFE0
8020
8020
8020
8020
8020
8020
8020
8020
8020
80E0
ENDCHAR
STARTCHAR $5183
ENCODING 20867
SWIDTH 1000 0
DWIDTH 12 0
BBX 11 11 0 -2
BITMAP
FFE0
8020
8020
BFA0
8020
8020
BFA0
8020
8020
8020
80E0
ENDCHAR
STARTCHAR $5184
ENCODING 20868
SWIDTH 1000 0
DWIDTH 12 0
BBX 11 11 0 -2
BITMAP
7FC0
4040
4040
FFE0
4040
4040
FFE0
4040
4040
4040
41C0
ENDCHAR
STARTCHAR $5185
ENCODING 20869
SWIDTH 1000 0
DWIDTH 12 0
BBX 11 11 0 -2
BITMAP
0400
0400
FFE0
8420
8420
8A20
9120
A0A0
8020
8020
80E0
ENDCHAR
STARTCHAR $5186
ENCODING 20870
SWIDTH 1000 0
DWIDTH 12 0
BBX 11 11 0 -2
BITMAP
FFE0
8420
8420
8420
FFE0
8020
8020
8020
8020
8020
80E0
ENDCHAR
STARTCHAR $5187
ENCODING 20871
SWIDTH 1000 0
DWIDTH 12 0
BBX 11 11 0 -2
BITMAP
0800
FFE0
1000
3FC0
6040
A040
2040
2040
2040
2040
21C0
ENDCHAR
STARTCHAR $5188
ENCODING 20872
SWIDTH 1000 0
DWIDTH 12 0
BBX 11 11 0 -2
BITMAP
FFE0
8020
A0A0
9120
8A20
8420
8A20
9120
A0A0
8020
80E0
ENDCHAR
STARTCHAR $5189-46
ENCODING 20873
SWIDTH 1000 0
DWIDTH 12 0
BBX 11 11 0 -2
BITMAP
0400
7FC0
4440
4440
FFE0
4440
4440
FFE0
4040
4040
41C0
ENDCHAR
STARTCHAR $518A
ENCODING 20874
SWIDTH 1000 0
DWIDTH 12 0
BBX 11 11 0 -2
BITMAP
7FC0
4A40
4A40
4A40
FFE0
4A40
4A40
4A40
4A40
4A40
4AC0
ENDCHAR
STARTCHAR $518B
ENCODING 20875
SWIDTH 1000 0
DWIDTH 12 0
BBX 11 11 0 -2
BITMAP
FFE0
8020
8020
9F20
9120
9120
9120
9F20
8020
8020
80E0
ENDCHAR
STARTCHAR $518C
ENCODING 20876
SWIDTH 1000 0
DWIDTH 12 0
BBX 11 11 0 -2
BITMAP
7BC0
4A40
4A40
4A40
4A40
FFE0
4A40
4A40
4A40
4A40
9CC0
ENDCHAR
STARTCHAR $518D-46
ENCODING 20877
SWIDTH 1000 0
DWIDTH 12 0
BBX 11 11 0 -2
BITMAP
FFE0
0400
7FC0
4440
FFE0
4440
4440
FFE0
4040
4040
41C0
ENDCHAR
STARTCHAR $518E
ENCODING 20878
SWIDTH 1000 0
DWIDTH 12 0
BBX 11 11 0 -2
BITMAP
3F80
2080
2780
2480
2480
FFE0
8020
8020
8020
8020
80E0
ENDCHAR
STARTCHAR $518F
ENCODING 20879
SWIDTH 1000 0
DWIDTH 12 0
BBX 11 11 0 -2
BITMAP
FFE0
9120
9120
A120
C0E0
9F20
9120
9120
9F20
8020
80E0
ENDCHAR
STARTCHAR $5190
ENCODING 20880
SWIDTH 1000 0
DWIDTH 12 0
BBX 11 11 0 -2
BITMAP
FFE0
8020
BFA0
8020
BFA0
2080
3F80
2080
3F80
2080
2180
ENDCHAR
STARTCHAR $5191
ENCODING 20881
SWIDTH 1000 0
DWIDTH 12 0
BBX 11 11 0 -2
BITMAP
0400
FFE0
8420
FFE0
8420
FFE0
4040
5F40
4040
5F40
40C0
ENDCHAR
STARTCHAR $5192
ENCODING 20882
SWIDTH 1000 0
DWIDTH 12 0
BBX 11 11 0 -2
BITMAP
FFE0
8020
BFA0
8020
BFA0
2080
3F80
2080
3F80
2080
3F80
ENDCHAR
STARTCHAR $5193-46
ENCODING 20883
SWIDTH 1000 0
DWIDTH 12 0
BBX 11 11 0 -2
BITMAP
1100
FFE0
1100
7FC0
1100
FFE0
4440
FFE0
4440
FFE0
4040
ENDCHAR
STARTCHAR $5194
ENCODING 20884
SWIDTH 1000 0
DWIDTH 12 0
BBX 11 11 0 -2
BITMAP
3F80
2080
3F80
2080
3F80
0000
F7C0
9100
9FE0
F100
0300
ENDCHAR
STARTCHAR $5195
ENCODING 20885
SWIDTH 1000 0
DWIDTH 12 0
BBX 11 11 0 -2
BITMAP
7FC0
4040
7FC0
4040
3F80
4100
FFC0
4440
7FC0
1220
E3E0
ENDCHAR
STARTCHAR $5196
ENCODING 20886
SWIDTH 1000 0
DWIDTH 12 0
BBX 11 3 0 3
BITMAP
FFE0
8020
8020
ENDCHAR
STARTCHAR $5197
ENCODING 20887
SWIDTH 1000 0
DWIDTH 12 0
BBX 11 11 0 -2
BITMAP
FFE0
8020
8020
1F00
1100
1100
1100
1100
1120
2120
C1E0
ENDCHAR
STARTCHAR $5198
ENCODING 20888
SWIDTH 1000 0
DWIDTH 12 0
BBX 11 11 0 -2
BITMAP
0400
0400
FFE0
8420
8420
0400
0A00
0A00
1220
2220
C3E0
ENDCHAR
STARTCHAR $5199-456
ENCODING 20889
SWIDTH 1000 0
DWIDTH 12 0
BBX 11 11 0 -2
BITMAP
FFE0
8020
A020
3F80
2000
3F80
0080
0080
FFE0
0080
0700
ENDCHAR
STARTCHAR $519A
ENCODING 20890
SWIDTH 1000 0
DWIDTH 12 0
BBX 11 11 0 -2
BITMAP
FFE0
8020
8020
0400
0400
4440
4440
4440
4440
4440
7FC0
ENDCHAR
STARTCHAR $519B
ENCODING 20891
SWIDTH 1000 0
DWIDTH 12 0
BBX 11 11 0 -2
BITMAP
FFE0
8020
8820
7FC0
1000
2400
7FC0
0400
FFE0
0400
0400
ENDCHAR
STARTCHAR $519C
ENCODING 20892
SWIDTH 1000 0
DWIDTH 12 0
BBX 11 11 0 -2
BITMAP
0400
FFE0
8420
8820
1400
2440
6280
A100
2480
2840
3020
ENDCHAR
STARTCHAR $519D
ENCODING 20893
SWIDTH 1000 0
DWIDTH 12 0
BBX 11 11 0 -2
BITMAP
FFE0
8020
BFA0
2080
3F80
2080
2080
3F80
2080
2080
FFE0
ENDCHAR
STARTCHAR $519E
ENCODING 20894
SWIDTH 1000 0
DWIDTH 12 0
BBX 11 11 0 -2
BITMAP
FFE0
8020
8420
2480
1500
0400
FFE0
1500
2480
C460
0400
ENDCHAR
STARTCHAR $51A0
ENCODING 20896
SWIDTH 1000 0
DWIDTH 12 0
BBX 11 11 0 -2
BITMAP
FFE0
8020
7040
03E0
0040
FA40
5140
5040
50C0
5020
9FE0
ENDCHAR
STARTCHAR $51A1
ENCODING 20897
SWIDTH 1000 0
DWIDTH 12 0
BBX 11 11 0 -2
BITMAP
FFE0
8020
BFA0
0000
7FC0
1C20
E640
1980
E740
1920
E600
ENDCHAR
STARTCHAR $51A2
ENCODING 20898
SWIDTH 1000 0
DWIDTH 12 0
BBX 11 11 0 -2
BITMAP
FFE0
8020
BFA0
0C00
3200
D620
1940
2980
C740
1920
E600
ENDCHAR
STARTCHAR $51A3
ENCODING 20899
SWIDTH 1000 0
DWIDTH 12 0
BBX 11 11 0 -2
BITMAP
FFE0
8020
FC00
4BE0
7A20
4A20
7940
4940
5880
E940
0A20
ENDCHAR
STARTCHAR $51A4
ENCODING 20900
SWIDTH 1000 0
DWIDTH 12 0
BBX 11 11 0 -2
BITMAP
FFE0
A020
3F00
4100
FFC0
4440
4440
7FC0
0B00
12A0
E3E0
ENDCHAR
STARTCHAR $51A5
ENCODING 20901
SWIDTH 1000 0
DWIDTH 12 0
BBX 11 11 0 -2
BITMAP
FFE0
8020
BFA0
2080
3F80
2080
3F80
0400
FFE0
2080
C060
ENDCHAR
STARTCHAR $51A6
ENCODING 20902
SWIDTH 1000 0
DWIDTH 12 0
BBX 11 11 0 -2
BITMAP
FFE0
8020
7100
01C0
0100
FBC0
5240
5180
5660
5000
9FE0
ENDCHAR
STARTCHAR $51A7
ENCODING 20903
SWIDTH 1000 0
DWIDTH 12 0
BBX 11 11 0 -2
BITMAP
FFE0
8020
A0A0
2080
FBE0
2080
6180
71C0
AAA0
2080
2080
ENDCHAR
STARTCHAR $51A8
ENCODING 20904
SWIDTH 1000 0
DWIDTH 12 0
BBX 11 11 0 -2
BITMAP
FFE0
8020
BFA0
0000
3F80
2080
7FC0
4440
7FC0
4440
7FC0
ENDCHAR
STARTCHAR $51A9-6
ENCODING 20905
SWIDTH 1000 0
DWIDTH 12 0
BBX 11 11 0 -2
BITMAP
FFE0
8820
B3A0
2080
3B80
2080
3F80
1000
3FE0
C0A0
2A60
ENDCHAR
STARTCHAR $51AA-6
ENCODING 20906
SWIDTH 1000 0
DWIDTH 12 0
BBX 11 11 0 -2
BITMAP
FFE0
9120
7FC0
4040
7FC0
4040
FFE0
2480
7FC0
A4A0
2580
ENDCHAR
STARTCHAR $51AB
ENCODING 20907
SWIDTH 1000 0
DWIDTH 12 0
BBX 3 11 1 -2
BITMAP
80
40
20
00
00
00
20
20
40
40
80
ENDCHAR
STARTCHAR $51AC-6
ENCODING 20908
SWIDTH 1000 0
DWIDTH 12 0
BBX 11 11 0 -2
BITMAP
2000
3F80
2080
5B00
0400
1B00
E0E0
1C00
0300
3C00
0300
ENDCHAR
STARTCHAR $51AE
ENCODING 20910
SWIDTH 1000 0
DWIDTH 12 0
BBX 11 11 0 -2
BITMAP
8FE0
4100
4100
0100
0100
0100
4100
4100
4100
8100
8FE0
ENDCHAR
STARTCHAR $51AF
ENCODING 20911
SWIDTH 1000 0
DWIDTH 12 0
BBX 11 11 0 -2
BITMAP
9F80
4080
4880
0880
0880
0FE0
4020
4020
5FA0
8020
81C0
ENDCHAR
STARTCHAR $51B0
ENCODING 20912
SWIDTH 1000 0
DWIDTH 12 0
BBX 11 11 0 -2
BITMAP
8200
4200
4220
3B40
0B40
0A80
4A80
5240
5240
A220
8E00
ENDCHAR
STARTCHAR $51B1
ENCODING 20913
SWIDTH 1000 0
DWIDTH 12 0
BBX 11 11 0 -2
BITMAP
9FE0
4200
4200
03E0
0420
0440
4840
4F80
4080
8080
9FE0
ENDCHAR
STARTCHAR $51B2
ENCODING 20914
SWIDTH 1000 0
DWIDTH 12 0
BBX 11 11 0 -2
BITMAP
8100
4100
4FE0
0920
0920
0920
4FE0
4100
4100
8100
8100
ENDCHAR
STARTCHAR $51B3
ENCODING 20915
SWIDTH 1000 0
DWIDTH 12 0
BBX 11 11 0 -2
BITMAP
8200
4200
4FC0
0240
0240
0240
5FE0
4200
4500
8880
B060
ENDCHAR
STARTCHAR $51B4-56
ENCODING 20916
SWIDTH 1000 0
DWIDTH 12 0
BBX 11 11 0 -2
BITMAP
9FE0
4840
4840
0840
1FE0
0040
40C0
4140
4640
9840
81C0
ENDCHAR
STARTCHAR $51B5
ENCODING 20917
SWIDTH 1000 0
DWIDTH 12 0
BBX 11 11 0 -2
BITMAP
8FC0
4840
4840
0840
0840
0FC0
4480
4480
44A0
88A0
90E0
ENDCHAR
STARTCHAR $51B6
ENCODING 20918
SWIDTH 1000 0
DWIDTH 12 0
BBX 11 11 0 -2
BITMAP
8200
4200
4480
0840
1FA0
0020
4FC0
4840
4840
8840
8FC0
ENDCHAR
STARTCHAR $51B7
ENCODING 20919
SWIDTH 1000 0
DWIDTH 12 0
BBX 11 11 0 -2
BITMAP
8100
4280
4440
1820
0380
0000
4FE0
4220
4220
82E0
8200
ENDCHAR
STARTCHAR $51B8-46
ENCODING 20920
SWIDTH 1000 0
DWIDTH 12 0
BBX 11 11 0 -2
BITMAP
8100
4540
4920
0100
0FE0
0100
4100
5FE0
4100
8100
8100
ENDCHAR
STARTCHAR $51B9
ENCODING 20921
SWIDTH 1000 0
DWIDTH 12 0
BBX 11 11 0 -2
BITMAP
8480
4440
5FE0
0400
0400
0440
4440
4440
4A80
8900
96E0
ENDCHAR
STARTCHAR $51BA-456
ENCODING 20922
SWIDTH 1000 0
DWIDTH 12 0
BBX 11 11 0 -2
BITMAP
8FE0
4820
4820
0FE0
0900
0900
4FE0
4900
4880
8AA0
9C60
ENDCHAR
STARTCHAR $51BB
ENCODING 20923
SWIDTH 1000 0
DWIDTH 12 0
BBX 11 11 0 -2
BITMAP
8200
5FE0
4400
0900
1100
1FE0
4100
4940
4920
9120
8300
ENDCHAR
STARTCHAR $51BC
ENCODING 20924
SWIDTH 1000 0
DWIDTH 12 0
BBX 11 11 0 -2
BITMAP
8900
4900
4FC0
1100
0100
1FE0
4480
4480
44A0
88A0
90E0
ENDCHAR
STARTCHAR $51BD
ENCODING 20925
SWIDTH 1000 0
DWIDTH 12 0
BBX 11 11 0 -2
BITMAP
9E20
48A0
48A0
0EA0
12A0
12A0
4AA0
44A0
4420
8820
90E0
ENDCHAR
STARTCHAR $51BE
ENCODING 20926
SWIDTH 1000 0
DWIDTH 12 0
BBX 11 11 0 -2
BITMAP
8100
4280
4440
1820
07C0
0000
4FE0
4820
4820
8820
8FE0
ENDCHAR
STARTCHAR $51BF
ENCODING 20927
SWIDTH 1000 0
DWIDTH 12 0
BBX 11 11 0 -2
BITMAP
8200
4FC0
4240
1FE0
0240
0FC0
4200
4FC0
4200
9FE0
8200
ENDCHAR
STARTCHAR $51C0
ENCODING 20928
SWIDTH 1000 0
DWIDTH 12 0
BBX 11 11 0 -2
BITMAP
8800
4F80
5080
1FC0
0240
3FE0
4240
5FC0
4200
8200
8E00
ENDCHAR
STARTCHAR $51C1
ENCODING 20929
SWIDTH 1000 0
DWIDTH 12 0
BBX 11 11 0 -2
BITMAP
8100
5FE0
4100
0FE0
0920
0920
4FE0
4380
4540
9920
8100
ENDCHAR
STARTCHAR $51C2
ENCODING 20930
SWIDTH 1000 0
DWIDTH 12 0
BBX 11 11 0 -2
BITMAP
8400
4780
4880
1FE0
0920
0920
4FE0
4280
42A0
84A0
98E0
ENDCHAR
STARTCHAR $51C3
ENCODING 20931
SWIDTH 1000 0
DWIDTH 12 0
BBX 11 11 0 -2
BITMAP
8380
4440
5820
07C0
0100
0100
5FE0
4100
4540
9920
8300
ENDCHAR
STARTCHAR $51C4
ENCODING 20932
SWIDTH 1000 0
DWIDTH 12 0
BBX 11 11 0 -2
BITMAP
8200
5FE0
4240
1FE0
0240
0FC0
4400
5FE0
4880
8700
98E0
ENDCHAR
STARTCHAR $51C5
ENCODING 20933
SWIDTH 1000 0
DWIDTH 12 0
BBX 11 11 0 -2
BITMAP
8FE0
4920
4920
0FE0
0920
0BA0
4AA0
4AA0
4BA0
8820
8FE0
ENDCHAR
STARTCHAR $51C6-456
ENCODING 20934
SWIDTH 1000 0
DWIDTH 12 0
BBX 11 11 0 -2
BITMAP
8480
4500
4FE0
0900
1FC0
0900
4900
4FC0
4900
8900
8FE0
ENDCHAR
STARTCHAR $51C7-3456
ENCODING 20935
SWIDTH 1000 0
DWIDTH 12 0
BBX 11 11 0 -2
BITMAP
89C0
4840
5E20
0A20
0800
1900
5D00
6940
4A40
8AA0
8B20
ENDCHAR
STARTCHAR $51C8-456
ENCODING 20936
SWIDTH 1000 0
DWIDTH 12 0
BBX 11 11 0 -2
BITMAP
80C0
4F00
4A40
1120
0FC0
0140
5FE0
4140
4FC0
8100
8700
ENDCHAR
STARTCHAR $51C9
ENCODING 20937
SWIDTH 1000 0
DWIDTH 12 0
BBX 11 11 0 -2
BITMAP
8100
5FE0
4000
0FC0
0840
0840
4FC0
4100
4940
9120
8300
ENDCHAR
STARTCHAR $51CA-456
ENCODING 20938
SWIDTH 1000 0
DWIDTH 12 0
BBX 11 11 0 -2
BITMAP
8100
4FC0
4100
0FC0
0100
1FE0
4940
4940
4FC0
8840
88C0
ENDCHAR
STARTCHAR $51CB
ENCODING 20939
SWIDTH 1000 0
DWIDTH 12 0
BBX 11 11 0 -2
BITMAP
8FE0
4920
4BA0
0920
0BA0
0820
4BA0
4AA0
4BA0
8820
9060
ENDCHAR
STARTCHAR $51CC
ENCODING 20940
SWIDTH 1000 0
DWIDTH 12 0
BBX 11 11 0 -2
BITMAP
8100
4FC0
4100
1FE0
0480
18E0
47C0
4840
5480
8300
9CE0
ENDCHAR
STARTCHAR $51CD
ENCODING 20941
SWIDTH 1000 0
DWIDTH 12 0
BBX 11 11 0 -2
BITMAP
8100
5FE0
4100
0FE0
0920
0FE0
4920
4FE0
4380
8540
9920
ENDCHAR
STARTCHAR $51CE
ENCODING 20942
SWIDTH 1000 0
DWIDTH 12 0
BBX 11 11 0 -2
BITMAP
8100
4280
4440
1820
07C0
0100
4100
4FE0
4920
8540
9FE0
ENDCHAR
STARTCHAR $51CF
ENCODING 20943
SWIDTH 1000 0
DWIDTH 12 0
BBX 11 11 0 -2
BITMAP
80A0
40A0
4FE0
0880
0EA0
08A0
4EA0
4A40
4E40
88A0
9320
ENDCHAR
STARTCHAR $51D0
ENCODING 20944
SWIDTH 1000 0
DWIDTH 12 0
BBX 11 11 0 -2
BITMAP
8FE0
4280
4FE0
0AA0
0CE0
0820
4FE0
4100
4FE0
8100
9FE0
ENDCHAR
STARTCHAR $51D1-456
ENCODING 20945
SWIDTH 1000 0
DWIDTH 12 0
BBX 11 11 0 -2
BITMAP
8200
4FC0
4200
0FC0
0480
1FE0
4A40
5220
4FC0
8500
98C0
ENDCHAR
STARTCHAR $51D2
ENCODING 20946
SWIDTH 1000 0
DWIDTH 12 0
BBX 11 11 0 -2
BITMAP
8920
4FE0
4000
1FE0
0000
0FE0
4820
4FE0
4440
8280
9FE0
ENDCHAR
STARTCHAR $51D3
ENCODING 20947
SWIDTH 1000 0
DWIDTH 12 0
BBX 11 11 0 -2
BITMAP
8FE0
4280
4FE0
0AA0
0AA0
0FE0
4100
5FE0
4380
8540
9920
ENDCHAR
STARTCHAR $51D4
ENCODING 20948
SWIDTH 1000 0
DWIDTH 12 0
BBX 11 11 0 -2
BITMAP
8300
4480
5FE0
0840
0FC0
0840
4FC0
4800
4FE0
9420
97E0
ENDCHAR
STARTCHAR $51D5
ENCODING 20949
SWIDTH 1000 0
DWIDTH 12 0
BBX 11 11 0 -2
BITMAP
9FE0
5020
4FC0
0840
0FC0
0840
4FC0
4100
5FE0
8840
9020
ENDCHAR
STARTCHAR $51D6-6
ENCODING 20950
SWIDTH 1000 0
DWIDTH 12 0
BBX 11 11 0 -2
BITMAP
8900
5FE0
1100
3FE0
1100
5FE0
5100
9FE0
0400
FFE0
0400
ENDCHAR
STARTCHAR $51D7
ENCODING 20951
SWIDTH 1000 0
DWIDTH 12 0
BBX 11 11 0 -2
BITMAP
8920
4920
4FE0
0480
0FE0
1880
4FE0
4880
4FE0
8880
8FE0
ENDCHAR
STARTCHAR $51D8
ENCODING 20952
SWIDTH 1000 0
DWIDTH 12 0
BBX 11 11 0 -2
BITMAP
9460
7F80
5500
1D00
15E0
1D40
5540
7F40
4140
9540
A240
ENDCHAR
STARTCHAR $51D9
ENCODING 20953
SWIDTH 1000 0
DWIDTH 12 0
BBX 11 11 0 -2
BITMAP
8FE0
4AA0
4FE0
0100
1FE0
0440
4FE0
4100
5FE0
8100
8100
ENDCHAR
STARTCHAR $51DA
ENCODING 20954
SWIDTH 1000 0
DWIDTH 12 0
BBX 11 11 0 -2
BITMAP
8440
5EE0
4440
0EE0
1540
0FE0
4000
5FE0
4100
8940
9320
ENDCHAR
STARTCHAR $51DB
ENCODING 20955
SWIDTH 1000 0
DWIDTH 12 0
BBX 11 11 0 -2
BITMAP
8100
5FE0
4AA0
0BA0
0820
0FE0
4000
4FE0
4100
8940
9320
ENDCHAR
STARTCHAR $51DC
ENCODING 20956
SWIDTH 1000 0
DWIDTH 12 0
BBX 11 11 0 -2
BITMAP
8100
5FE0
4AA0
0BA0
0820
0FE0
4380
4100
5FE0
8540
9920
ENDCHAR
STARTCHAR $51DD
ENCODING 20957
SWIDTH 1000 0
DWIDTH 12 0
BBX 11 11 0 -2
BITMAP
93E0
5C20
5140
1C80
03E0
1CA0
2880
5EE0
4A80
9580
A460
ENDCHAR
STARTCHAR $51DF
ENCODING 20959
SWIDTH 1000 0
DWIDTH 12 0
BBX 11 11 0 -2
BITMAP
8100
5FE0
4100
1FE0
14A0
1FE0
4840
4FC0
4840
8FC0
9860
ENDCHAR
STARTCHAR $51E0
ENCODING 20960
SWIDTH 1000 0
DWIDTH 12 0
BBX 11 11 0 -2
BITMAP
3F00
2100
2100
2100
2100
2100
2100
2100
4120
4120
81E0
ENDCHAR
STARTCHAR $51E1
ENCODING 20961
SWIDTH 1000 0
DWIDTH 12 0
BBX 11 11 0 -2
BITMAP
3F00
2100
2100
2100
2900
2500
2500
2100
4120
4120
81E0
ENDCHAR
STARTCHAR $51E2
ENCODING 20962
SWIDTH 1000 0
DWIDTH 12 0
BBX 11 11 0 -2
BITMAP
0400
0800
3F00
2100
2100
2100
2100
2100
4120
4120
81E0
ENDCHAR
STARTCHAR $51E3
ENCODING 20963
SWIDTH 1000 0
DWIDTH 12 0
BBX 11 11 0 -2
BITMAP
0400
0400
3F00
2100
2100
2100
2100
2100
4120
4120
81E0
ENDCHAR
STARTCHAR $51E4
ENCODING 20964
SWIDTH 1000 0
DWIDTH 12 0
BBX 11 11 0 -2
BITMAP
7FC0
4040
5F40
4140
5140
4A40
4A40
4440
4A40
5160
8020
ENDCHAR
STARTCHAR $51E5
ENCODING 20965
SWIDTH 1000 0
DWIDTH 12 0
BBX 11 11 0 -2
BITMAP
7FE0
4020
7FE0
4000
4F80
4880
4880
4880
48A0
50A0
A0E0
ENDCHAR
STARTCHAR $51E6-6
ENCODING 20966
SWIDTH 1000 0
DWIDTH 12 0
BBX 11 11 0 -2
BITMAP
4380
7A80
4A80
4A80
4A80
8A80
52A0
54A0
24E0
5000
8FE0
ENDCHAR
STARTCHAR $51E7
ENCODING 20967
SWIDTH 1000 0
DWIDTH 12 0
BBX 11 11 0 -2
BITMAP
7FC0
4040
4440
4440
5F40
5540
5540
5540
5740
4460
8420
ENDCHAR
STARTCHAR $51E8
ENCODING 20968
SWIDTH 1000 0
DWIDTH 12 0
BBX 11 11 0 -2
BITMAP
7FC0
4040
5F40
4040
4040
7FC0
4840
4940
5140
56A0
B8A0
ENDCHAR
STARTCHAR $51E9
ENCODING 20969
SWIDTH 1000 0
DWIDTH 12 0
BBX 11 11 0 -2
BITMAP
7FC0
4040
4440
4440
5F40
4440
4E40
4E40
5540
4460
8420
ENDCHAR
STARTCHAR $51EA
ENCODING 20970
SWIDTH 1000 0
DWIDTH 12 0
BBX 11 11 0 -2
BITMAP
7FC0
4040
4440
4440
5440
5740
5440
5440
5440
5460
BFA0
ENDCHAR
STARTCHAR $51EB
ENCODING 20971
SWIDTH 1000 0
DWIDTH 12 0
BBX 11 11 0 -2
BITMAP
0800
3F80
2880
2580
2000
3FE0
0020
1F60
1100
2120
C1E0
ENDCHAR
STARTCHAR $51EC
ENCODING 20972
SWIDTH 1000 0
DWIDTH 12 0
BBX 11 11 0 -2
BITMAP
7FC0
4040
7FC0
4040
5F40
5140
5140
5F40
5140
5160
9F20
ENDCHAR
STARTCHAR $51ED-6
ENCODING 20973
SWIDTH 1000 0
DWIDTH 12 0
BBX 11 11 0 -2
BITMAP
20C0
2F00
4200
DFE0
4200
4FC0
4000
1F00
1120
2120
C1E0
ENDCHAR
STARTCHAR $51EE
ENCODING 20974
SWIDTH 1000 0
DWIDTH 12 0
BBX 11 11 0 -2
BITMAP
7FC0
4040
7FC0
4440
4840
5F40
5140
5F40
5140
5160
9F20
ENDCHAR
STARTCHAR $51EF
ENCODING 20975
SWIDTH 1000 0
DWIDTH 12 0
BBX 11 11 0 -2
BITMAP
ABC0
AA40
FA40
0240
FA40
0A40
0A40
FA40
8240
9A40
E460
ENDCHAR
STARTCHAR $51F0
ENCODING 20976
SWIDTH 1000 0
DWIDTH 12 0
BBX 11 11 0 -2
BITMAP
7FC0
4440
5F40
5140
5F40
5140
5F40
4440
5F40
4460
BFA0
ENDCHAR
STARTCHAR $51F1
ENCODING 20977
SWIDTH 1000 0
DWIDTH 12 0
BBX 11 11 0 -2
BITMAP
ABC0
FA40
0240
FA40
0240
FA40
8A40
FA40
5240
5A40
E460
ENDCHAR
STARTCHAR $51F2-456
ENCODING 20978
SWIDTH 1000 0
DWIDTH 12 0
BBX 11 11 0 -2
BITMAP
7FC0
4A40
5440
7FC0
5540
7FC0
5540
7F40
5640
7560
94A0
ENDCHAR
STARTCHAR $51F3
ENCODING 20979
SWIDTH 1000 0
DWIDTH 12 0
BBX 11 11 0 -2
BITMAP
7A80
0900
BFA0
60C0
BFA0
1100
FFE0
0000
1F00
1120
E1E0
ENDCHAR
STARTCHAR $51F5
ENCODING 20981
SWIDTH 1000 0
DWIDTH 12 0
BBX 11 9 0 -1
BITMAP
8020
8020
8020
8020
8020
8020
8020
8020
FFE0
ENDCHAR
STARTCHAR $51F6
ENCODING 20982
SWIDTH 1000 0
DWIDTH 12 0
BBX 11 11 0 -2
BITMAP
2080
1100
9120
8A20
8420
8A20
9120
9120
A0A0
8020
FFE0
ENDCHAR
STARTCHAR $51F7
ENCODING 20983
SWIDTH 1000 0
DWIDTH 12 0
BBX 11 11 0 -2
BITMAP
8420
8420
8420
9F20
8420
8420
8420
BFA0
8020
8020
FFE0
ENDCHAR
STARTCHAR $51F8
ENCODING 20984
SWIDTH 1000 0
DWIDTH 12 0
BBX 11 11 0 -2
BITMAP
1F00
1100
1100
1100
F1E0
8020
8020
8020
8020
8020
FFE0
ENDCHAR
STARTCHAR $51F9
ENCODING 20985
SWIDTH 1000 0
DWIDTH 12 0
BBX 11 11 0 -2
BITMAP
F1E0
9120
9120
9120
9120
9F20
8020
8020
8020
8020
FFE0
ENDCHAR
STARTCHAR $51FA
ENCODING 20986
SWIDTH 1000 0
DWIDTH 12 0
BBX 11 11 0 -2
BITMAP
0400
4440
4440
4440
7FC0
0400
0400
8420
8420
8420
FFE0
ENDCHAR
STARTCHAR $51FB
ENCODING 20987
SWIDTH 1000 0
DWIDTH 12 0
BBX 11 11 0 -2
BITMAP
0400
0400
7FC0
0400
0400
FFE0
0400
4440
4440
4440
7FC0
ENDCHAR
STARTCHAR $51FC
ENCODING 20988
SWIDTH 1000 0
DWIDTH 12 0
BBX 11 11 0 -2
BITMAP
0400
8420
8460
F6A0
9520
9520
A4A0
C460
8C20
8020
FFE0
ENDCHAR
STARTCHAR $51FD-6
ENCODING 20989
SWIDTH 1000 0
DWIDTH 12 0
BBX 11 11 0 -2
BITMAP
FFE0
0400
0800
A4A0
9520
8420
9520
A4A0
8C20
8020
FFE0
ENDCHAR
STARTCHAR $51FE
ENCODING 20990
SWIDTH 1000 0
DWIDTH 12 0
BBX 11 11 0 -2
BITMAP
3F80
0100
8220
F5E0
D560
D560
D4A0
F560
8E60
8020
FFE0
ENDCHAR
STARTCHAR $51FF
ENCODING 20991
SWIDTH 1000 0
DWIDTH 12 0
BBX 11 11 0 -2
BITMAP
0A00
4A40
2A80
FFE0
1100
4A40
5F40
4440
5F40
4440
7FC0
ENDCHAR
STARTCHAR $5200
ENCODING 20992
SWIDTH 1000 0
DWIDTH 12 0
BBX 11 11 0 -2
BITMAP
7FE0
0820
0820
0820
0820
0820
0820
1020
1020
2020
C1C0
ENDCHAR
STARTCHAR $5201-234
ENCODING 20993
SWIDTH 1000 0
DWIDTH 12 0
BBX 10 11 1 -2
BITMAP
FFC0
0040
0040
0040
0240
0C40
3040
C040
0040
0080
0700
ENDCHAR
STARTCHAR $5202
ENCODING 20994
SWIDTH 1000 0
DWIDTH 12 0
BBX 4 11 7 -2
BITMAP
10
90
90
90
90
90
90
90
10
10
70
ENDCHAR
STARTCHAR $5203
ENCODING 20995
SWIDTH 1000 0
DWIDTH 12 0
BBX 11 11 0 -2
BITMAP
7FE0
0420
0420
2420
2420
2420
4820
0820
1020
2020
C1C0
ENDCHAR
STARTCHAR $5204
ENCODING 20996
SWIDTH 1000 0
DWIDTH 12 0
BBX 11 11 0 -2
BITMAP
FFC0
0840
4840
2840
1840
0C40
0B40
10C0
1060
2040
C180
ENDCHAR
STARTCHAR $5205
ENCODING 20997
SWIDTH 1000 0
DWIDTH 12 0
BBX 11 11 0 -2
BITMAP
7F80
0880
0880
48C0
48A0
48A0
88A0
1080
1080
2080
C300
ENDCHAR
STARTCHAR $5206-346
ENCODING 20998
SWIDTH 1000 0
DWIDTH 12 0
BBX 11 11 0 -2
BITMAP
1F00
0100
2080
2080
4040
BFA0
0880
0880
1080
2080
C300
ENDCHAR
STARTCHAR $5207-6
ENCODING 20999
SWIDTH 1000 0
DWIDTH 12 0
BBX 11 11 0 -2
BITMAP
4FE0
4220
5220
6220
C220
4220
4220
5220
5420
7420
08E0
ENDCHAR
STARTCHAR $5208-6
ENCODING 21000
SWIDTH 1000 0
DWIDTH 12 0
BBX 11 11 0 -2
BITMAP
0420
8520
4520
2920
2920
1120
1120
2920
2920
4420
84E0
ENDCHAR
STARTCHAR $5209
ENCODING 21001
SWIDTH 1000 0
DWIDTH 12 0
BBX 11 11 0 -2
BITMAP
4020
7D20
4120
8120
7920
0920
1120
2120
4020
8420
7CE0
ENDCHAR
STARTCHAR $520A
ENCODING 21002
SWIDTH 1000 0
DWIDTH 12 0
BBX 11 11 0 -2
BITMAP
7C20
1120
1120
1120
1120
FF20
1120
1120
1020
1020
10E0
ENDCHAR
STARTCHAR $520B-6
ENCODING 21003
SWIDTH 1000 0
DWIDTH 12 0
BBX 11 11 0 -2
BITMAP
0C20
F120
1120
1120
1120
FD20
1120
1120
2120
2020
40E0
ENDCHAR
STARTCHAR $520C
ENCODING 21004
SWIDTH 1000 0
DWIDTH 12 0
BBX 11 11 0 -2
BITMAP
0820
0920
FD20
0920
0920
8920
4920
4920
0820
0820
38E0
ENDCHAR
STARTCHAR $520D
ENCODING 21005
SWIDTH 1000 0
DWIDTH 12 0
BBX 10 11 0 -2
BITMAP
2000
3F80
4080
8100
7FC0
0040
0040
7FC0
0040
0040
7FC0
ENDCHAR
STARTCHAR $520E
ENCODING 21006
SWIDTH 1000 0
DWIDTH 12 0
BBX 11 11 0 -2
BITMAP
4020
40A0
7EA0
AAA0
2AA0
2AA0
4AA0
52A0
9220
2220
4CE0
ENDCHAR
STARTCHAR $520F
ENCODING 21007
SWIDTH 1000 0
DWIDTH 12 0
BBX 11 11 0 -2
BITMAP
4020
7EA0
80A0
7CA0
00A0
FCA0
04A0
04A0
0420
0520
0260
ENDCHAR
STARTCHAR $5210
ENCODING 21008
SWIDTH 1000 0
DWIDTH 12 0
BBX 11 11 0 -2
BITMAP
7C20
44A0
64A0
54A0
44A0
FEA0
44A0
44A0
4420
4420
8CE0
ENDCHAR
STARTCHAR $5211
ENCODING 21009
SWIDTH 1000 0
DWIDTH 12 0
BBX 11 11 0 -2
BITMAP
FE20
24A0
24A0
24A0
24A0
FEA0
24A0
24A0
4420
4420
84E0
ENDCHAR
STARTCHAR $5212
ENCODING 21010
SWIDTH 1000 0
DWIDTH 12 0
BBX 11 11 0 -2
BITMAP
2820
24A0
20A0
3EA0
E0A0
24A0
28A0
10A0
1220
2A20
C6E0
ENDCHAR
STARTCHAR $5213
ENCODING 21011
SWIDTH 1000 0
DWIDTH 12 0
BBX 11 11 0 -2
BITMAP
7C20
00A0
00A0
00A0
FEA0
24A0
24A0
24A0
4620
4420
80E0
ENDCHAR
STARTCHAR $5214
ENCODING 21012
SWIDTH 1000 0
DWIDTH 12 0
BBX 11 11 0 -2
BITMAP
1020
10A0
7CA0
14A0
14A0
14A0
FEA0
10A0
2820
4420
82E0
ENDCHAR
STARTCHAR $5216
ENCODING 21014
SWIDTH 1000 0
DWIDTH 12 0
BBX 11 11 0 -2
BITMAP
7C20
4520
4520
7D20
4520
4520
7D20
4520
4420
4420
8CE0
ENDCHAR
STARTCHAR $5217
ENCODING 21015
SWIDTH 1000 0
DWIDTH 12 0
BBX 11 11 0 -2
BITMAP
FC20
2120
2120
3D20
4520
6520
9520
0920
0820
1020
60E0
ENDCHAR
STARTCHAR $5218-456
ENCODING 21016
SWIDTH 1000 0
DWIDTH 12 0
BBX 11 11 0 -2
BITMAP
1020
10A0
FEA0
04A0
44A0
48A0
28A0
10A0
2820
4420
80E0
ENDCHAR
STARTCHAR $5219
ENCODING 21017
SWIDTH 1000 0
DWIDTH 12 0
BBX 11 11 0 -2
BITMAP
FE20
82A0
92A0
92A0
92A0
92A0
92A0
92A0
2820
4420
82E0
ENDCHAR
STARTCHAR $521A
ENCODING 21018
SWIDTH 1000 0
DWIDTH 12 0
BBX 11 11 0 -2
BITMAP
FE20
82A0
82A0
C6A0
AAA0
92A0
AAA0
C6A0
8220
8220
86E0
ENDCHAR
STARTCHAR $521B
ENCODING 21019
SWIDTH 1000 0
DWIDTH 12 0
BBX 11 11 0 -2
BITMAP
1020
28A0
44A0
82A0
7CA0
44A0
44A0
5CA0
4020
4220
3EE0
ENDCHAR
STARTCHAR $521C
ENCODING 21020
SWIDTH 1000 0
DWIDTH 12 0
BBX 11 11 0 -2
BITMAP
2820
28A0
FEA0
2AA0
FEA0
A8A0
FEA0
2AA0
2A20
4E20
88E0
ENDCHAR
STARTCHAR $521D-456
ENCODING 21021
SWIDTH 1000 0
DWIDTH 12 0
BBX 11 11 0 -2
BITMAP
2FE0
2220
F220
1220
2220
2A20
7220
AA20
2420
2420
28C0
ENDCHAR
STARTCHAR $521E
ENCODING 21022
SWIDTH 1000 0
DWIDTH 12 0
BBX 11 11 0 -2
BITMAP
7C20
44A0
44A0
7CA0
44A0
44A0
7CA0
44A0
4420
4E20
F0E0
ENDCHAR
STARTCHAR $521F
ENCODING 21023
SWIDTH 1000 0
DWIDTH 12 0
BBX 11 11 0 -2
BITMAP
FE20
22A0
22A0
42A0
8EA0
00A0
FEA0
82A0
8220
8220
FEE0
ENDCHAR
STARTCHAR $5220
ENCODING 21024
SWIDTH 1000 0
DWIDTH 12 0
BBX 11 11 0 -2
BITMAP
EE20
AAA0
AAA0
AAA0
AAA0
FFA0
AAA0
AAA0
AA20
AA20
76E0
ENDCHAR
STARTCHAR $5221
ENCODING 21025
SWIDTH 1000 0
DWIDTH 12 0
BBX 11 11 0 -2
BITMAP
FE20
82A0
82A0
FEA0
90A0
90A0
FEA0
90A0
8820
AA20
C6E0
ENDCHAR
STARTCHAR $5222
ENCODING 21026
SWIDTH 1000 0
DWIDTH 12 0
BBX 11 11 0 -2
BITMAP
1020
28A0
44A0
82A0
38A0
00A0
FEA0
22A0
2220
2E20
20E0
ENDCHAR
STARTCHAR $5223
ENCODING 21027
SWIDTH 1000 0
DWIDTH 12 0
BBX 11 11 0 -2
BITMAP
2020
20A0
44A0
84A0
FAA0
02A0
FCA0
84A0
8420
8420
FCE0
ENDCHAR
STARTCHAR $5224-46
ENCODING 21028
SWIDTH 1000 0
DWIDTH 12 0
BBX 11 11 0 -2
BITMAP
5420
92A0
10A0
FEA0
10A0
10A0
1EA0
F0A0
1020
2020
C0E0
ENDCHAR
STARTCHAR $5225
ENCODING 21029
SWIDTH 1000 0
DWIDTH 12 0
BBX 11 11 0 -2
BITMAP
FC20
8520
8520
FD20
2120
3D20
2520
2520
4420
4420
98E0
ENDCHAR
STARTCHAR $5226
ENCODING 21030
SWIDTH 1000 0
DWIDTH 12 0
BBX 11 11 0 -2
BITMAP
1020
10A0
7CA0
10A0
10A0
FEA0
20A0
44A0
4420
9A20
E2E0
ENDCHAR
STARTCHAR $5227
ENCODING 21031
SWIDTH 1000 0
DWIDTH 12 0
BBX 11 11 0 -2
BITMAP
27E0
2120
F920
2120
2120
FD20
4120
5120
9220
AA20
CCC0
ENDCHAR
STARTCHAR $5228
ENCODING 21032
SWIDTH 1000 0
DWIDTH 12 0
BBX 11 11 0 -2
BITMAP
4020
7EA0
82A0
7AA0
4AA0
4AA0
7AA0
46A0
4020
4220
3EE0
ENDCHAR
STARTCHAR $5229
ENCODING 21033
SWIDTH 1000 0
DWIDTH 12 0
BBX 11 11 0 -2
BITMAP
0C20
7020
1120
1120
FD20
1120
3120
3920
5420
9020
10E0
ENDCHAR
STARTCHAR $522A
ENCODING 21034
SWIDTH 1000 0
DWIDTH 12 0
BBX 11 11 0 -2
BITMAP
FE20
AAA0
AAA0
AAA0
AAA0
FFA0
AAA0
AAA0
AA20
AA20
86E0
ENDCHAR
STARTCHAR $522B
ENCODING 21035
SWIDTH 1000 0
DWIDTH 12 0
BBX 11 11 0 -2
BITMAP
FC20
8520
8520
FD20
2120
FD20
2520
2520
4420
4420
98E0
ENDCHAR
STARTCHAR $522C
ENCODING 21036
SWIDTH 1000 0
DWIDTH 12 0
BBX 11 11 0 -2
BITMAP
1420
12A0
1EA0
F0A0
10A0
1EA0
F0A0
12A0
0C20
1A20
E6E0
ENDCHAR
STARTCHAR $522D
ENCODING 21037
SWIDTH 1000 0
DWIDTH 12 0
BBX 11 11 0 -2
BITMAP
7C20
0520
0920
3120
CD20
0120
7D20
1120
1020
1C20
E0E0
ENDCHAR
STARTCHAR $522E
ENCODING 21038
SWIDTH 1000 0
DWIDTH 12 0
BBX 11 11 0 -2
BITMAP
0C20
70A0
10A0
10A0
FEA0
10A0
10A0
7CA0
4420
4420
7CE0
ENDCHAR
STARTCHAR $522F
ENCODING 21039
SWIDTH 1000 0
DWIDTH 12 0
BBX 11 11 0 -2
BITMAP
FE20
00A0
7CA0
44A0
44A0
7CA0
44A0
7CA0
0020
0E20
F0E0
ENDCHAR
STARTCHAR $5230
ENCODING 21040
SWIDTH 1000 0
DWIDTH 12 0
BBX 11 11 0 -2
BITMAP
FE20
10A0
20A0
44A0
FAA0
10A0
10A0
FEA0
1020
1E20
E0E0
ENDCHAR
STARTCHAR $5232
ENCODING 21042
SWIDTH 1000 0
DWIDTH 12 0
BBX 11 11 0 -2
BITMAP
1020
7CA0
10A0
10A0
FEA0
00A0
10A0
7CA0
1020
1E20
E0E0
ENDCHAR
STARTCHAR $5233
ENCODING 21043
SWIDTH 1000 0
DWIDTH 12 0
BBX 11 11 0 -2
BITMAP
1020
FEA0
28A0
44A0
BAA0
00A0
FEA0
20A0
3C20
0420
18E0
ENDCHAR
STARTCHAR $5234
ENCODING 21044
SWIDTH 1000 0
DWIDTH 12 0
BBX 11 11 0 -2
BITMAP
F820
48A0
4EA0
42A0
42A0
96A0
10A0
FEA0
3820
5420
92E0
ENDCHAR
STARTCHAR $5235
ENCODING 21045
SWIDTH 1000 0
DWIDTH 12 0
BBX 11 11 0 -2
BITMAP
FC20
4920
4920
7920
4920
7920
4920
4920
5820
E820
08E0
ENDCHAR
STARTCHAR $5236
ENCODING 21046
SWIDTH 1000 0
DWIDTH 12 0
BBX 11 11 0 -2
BITMAP
5020
7EA0
90A0
10A0
FEA0
10A0
FEA0
92A0
9220
9620
10E0
ENDCHAR
STARTCHAR $5237
ENCODING 21047
SWIDTH 1000 0
DWIDTH 12 0
BBX 11 11 0 -2
BITMAP
7E20
42A0
7EA0
48A0
48A0
7EA0
6AA0
6AA0
AA20
AE20
88E0
ENDCHAR
STARTCHAR $5238-6
ENCODING 21048
SWIDTH 1000 0
DWIDTH 12 0
BBX 11 11 0 -2
BITMAP
4440
2480
7FC0
0A00
FFE0
1100
2080
DF60
0900
1100
2300
ENDCHAR
STARTCHAR $5239-6
ENCODING 21049
SWIDTH 1000 0
DWIDTH 12 0
BBX 11 11 0 -2
BITMAP
0220
64A0
18A0
24A0
C2A0
10A0
FEA0
30A0
58A0
9420
1060
ENDCHAR
STARTCHAR $523A
ENCODING 21050
SWIDTH 1000 0
DWIDTH 12 0
BBX 11 11 0 -2
BITMAP
1020
FEA0
10A0
FEA0
92A0
92A0
96A0
38A0
5420
9220
10E0
ENDCHAR
STARTCHAR $523B-456
ENCODING 21051
SWIDTH 1000 0
DWIDTH 12 0
BBX 11 11 0 -2
BITMAP
1020
FEA0
20A0
44A0
88A0
50A0
22A0
C4A0
0820
3420
C2E0
ENDCHAR
STARTCHAR $523C-456
ENCODING 21052
SWIDTH 1000 0
DWIDTH 12 0
BBX 11 11 0 -2
BITMAP
27E0
2120
F920
2120
2520
FB20
41A0
5160
9220
AA20
CCC0
ENDCHAR
STARTCHAR $523D
ENCODING 21053
SWIDTH 1000 0
DWIDTH 12 0
BBX 11 11 0 -2
BITMAP
1020
28A0
44A0
82A0
7CA0
00A0
00A0
FEA0
2020
4420
FAE0
ENDCHAR
STARTCHAR $523E
ENCODING 21054
SWIDTH 1000 0
DWIDTH 12 0
BBX 11 11 0 -2
BITMAP
1020
FD20
1120
9520
5920
1120
FD20
1120
2820
4420
80E0
ENDCHAR
STARTCHAR $5240
ENCODING 21056
SWIDTH 1000 0
DWIDTH 12 0
BBX 11 11 0 -2
BITMAP
9220
92A0
FEA0
00A0
FEA0
02A0
02A0
FEA0
8020
8E20
F0E0
ENDCHAR
STARTCHAR $5241-234
ENCODING 21057
SWIDTH 1000 0
DWIDTH 12 0
BBX 11 11 0 -2
BITMAP
7820
4920
4920
8920
8D20
2120
FD20
2120
6820
A420
2060
ENDCHAR
STARTCHAR $5242
ENCODING 21058
SWIDTH 1000 0
DWIDTH 12 0
BBX 11 11 0 -2
BITMAP
1020
FEA0
44A0
28A0
10A0
28A0
C6A0
44A0
4420
4420
84E0
ENDCHAR
STARTCHAR $5243
ENCODING 21059
SWIDTH 1000 0
DWIDTH 12 0
BBX 11 11 0 -2
BITMAP
4420
28A0
FEA0
12A0
FEA0
90A0
FEA0
32A0
5220
9620
10E0
ENDCHAR
STARTCHAR $5244
ENCODING 21060
SWIDTH 1000 0
DWIDTH 12 0
BBX 11 11 0 -2
BITMAP
FE20
54A0
A8A0
A8A0
54A0
00A0
7CA0
10A0
1020
1E20
E0E0
ENDCHAR
STARTCHAR $5245
ENCODING 21061
SWIDTH 1000 0
DWIDTH 12 0
BBX 11 11 0 -2
BITMAP
FE20
00A0
7CA0
44A0
44A0
7CA0
00A0
44A0
2420
2E20
F0E0
ENDCHAR
STARTCHAR $5247
ENCODING 21063
SWIDTH 1000 0
DWIDTH 12 0
BBX 11 11 0 -2
BITMAP
FE20
82A0
FEA0
82A0
82A0
FEA0
82A0
FEA0
0020
4420
82E0
ENDCHAR
STARTCHAR $5248
ENCODING 21064
SWIDTH 1000 0
DWIDTH 12 0
BBX 11 11 0 -2
BITMAP
7C20
44A0
7CA0
00A0
FEA0
82A0
FEA0
82A0
FE20
8220
86E0
ENDCHAR
STARTCHAR $5249
ENCODING 21065
SWIDTH 1000 0
DWIDTH 12 0
BBX 11 11 0 -2
BITMAP
1020
54A0
54A0
54A0
BAA0
92A0
10A0
7CA0
1020
1E20
E0E0
ENDCHAR
STARTCHAR $524A-46
ENCODING 21066
SWIDTH 1000 0
DWIDTH 12 0
BBX 11 11 0 -2
BITMAP
5420
92A0
10A0
FEA0
82A0
FEA0
82A0
FEA0
8220
8220
86E0
ENDCHAR
STARTCHAR $524B
ENCODING 21067
SWIDTH 1000 0
DWIDTH 12 0
BBX 11 11 0 -2
BITMAP
2040
FD40
2140
F940
8940
8940
F940
5040
51C0
5020
9FE0
ENDCHAR
STARTCHAR $524C
ENCODING 21068
SWIDTH 1000 0
DWIDTH 12 0
BBX 11 11 0 -2
BITMAP
1020
FEA0
10A0
FEA0
92A0
92A0
FEA0
38A0
5420
9220
10E0
ENDCHAR
STARTCHAR $524D
ENCODING 21069
SWIDTH 1000 0
DWIDTH 12 0
BBX 11 11 0 -2
BITMAP
2080
1100
FFE0
0000
7D40
4540
7D40
4540
7D40
4440
4CC0
ENDCHAR
STARTCHAR $524E-234
ENCODING 21070
SWIDTH 1000 0
DWIDTH 12 0
BBX 11 11 0 -2
BITMAP
0420
6920
1920
2520
C120
1520
FD20
3120
5820
9420
1060
ENDCHAR
STARTCHAR $524F-56
ENCODING 21071
SWIDTH 1000 0
DWIDTH 12 0
BBX 11 11 0 -2
BITMAP
8BC0
5140
F940
5540
5340
51C0
F960
5140
5240
5240
94C0
ENDCHAR
STARTCHAR $5250
ENCODING 21072
SWIDTH 1000 0
DWIDTH 12 0
BBX 11 11 0 -2
BITMAP
7C20
44A0
44A0
7CA0
10A0
FEA0
92A0
AAA0
C620
8220
86E0
ENDCHAR
STARTCHAR $5251
ENCODING 21073
SWIDTH 1000 0
DWIDTH 12 0
BBX 11 11 0 -2
BITMAP
1020
28A0
44A0
82A0
7CA0
02A0
A2A0
54A0
5420
0E20
F0E0
ENDCHAR
STARTCHAR $5252
ENCODING 21074
SWIDTH 1000 0
DWIDTH 12 0
BBX 11 11 0 -2
BITMAP
2420
7EA0
24A0
24A0
FFA0
00A0
7EA0
42A0
7E20
4220
7EE0
ENDCHAR
STARTCHAR $5254
ENCODING 21076
SWIDTH 1000 0
DWIDTH 12 0
BBX 11 11 0 -2
BITMAP
7E20
42A0
7EA0
42A0
7EA0
20A0
7EA0
AAA0
4A20
9220
26E0
ENDCHAR
STARTCHAR $5255
ENCODING 21077
SWIDTH 1000 0
DWIDTH 12 0
BBX 11 11 0 -2
BITMAP
2820
28A0
EEA0
28A0
28A0
EEA0
28A0
68A0
AE20
4820
88E0
ENDCHAR
STARTCHAR $5256
ENCODING 21078
SWIDTH 1000 0
DWIDTH 12 0
BBX 11 11 0 -2
BITMAP
1020
7EA0
00A0
42A0
24A0
FFA0
00A0
7EA0
4220
4220
7EE0
ENDCHAR
STARTCHAR $5258
ENCODING 21080
SWIDTH 1000 0
DWIDTH 12 0
BBX 11 11 0 -2
BITMAP
4420
FEA0
44A0
7CA0
44A0
7CA0
44A0
FEA0
0020
4420
82E0
ENDCHAR
STARTCHAR $5259
ENCODING 21081
SWIDTH 1000 0
DWIDTH 12 0
BBX 11 11 0 -2
BITMAP
8BC0
5140
F940
5540
5540
5560
F940
5140
5240
5240
94C0
ENDCHAR
STARTCHAR $525A
ENCODING 21082
SWIDTH 1000 0
DWIDTH 12 0
BBX 11 11 0 -2
BITMAP
1020
FEA0
54A0
54A0
FEA0
12A0
FFA0
12A0
FE20
1020
30E0
ENDCHAR
STARTCHAR $525B
ENCODING 21083
SWIDTH 1000 0
DWIDTH 12 0
BBX 11 11 0 -2
BITMAP
FE20
82A0
C6A0
AAA0
FEA0
92A0
D6A0
D6A0
FE20
8220
86E0
ENDCHAR
STARTCHAR $525C
ENCODING 21084
SWIDTH 1000 0
DWIDTH 12 0
BBX 11 11 0 -2
BITMAP
1020
FEA0
82A0
40A0
6EA0
AAA0
AAA0
6EA0
2820
4A20
8EE0
ENDCHAR
STARTCHAR $525D
ENCODING 21085
SWIDTH 1000 0
DWIDTH 12 0
BBX 11 11 0 -2
BITMAP
2020
3CA0
44A0
78A0
08A0
FEA0
10A0
54A0
3820
5420
B2E0
ENDCHAR
STARTCHAR $525E
ENCODING 21086
SWIDTH 1000 0
DWIDTH 12 0
BBX 11 11 0 -2
BITMAP
1020
FEA0
10A0
28A0
44A0
FEA0
04A0
74A0
5420
7420
0CE0
ENDCHAR
STARTCHAR $525F
ENCODING 21087
SWIDTH 1000 0
DWIDTH 12 0
BBX 11 11 0 -2
BITMAP
EE20
22A0
AAA0
44A0
AAA0
00A0
EEA0
22A0
AA20
4420
AAE0
ENDCHAR
STARTCHAR $5260
ENCODING 21088
SWIDTH 1000 0
DWIDTH 12 0
BBX 11 11 0 -2
BITMAP
1020
FEA0
00A0
7CA0
44A0
44A0
7CA0
10A0
5420
9220
30E0
ENDCHAR
STARTCHAR $5261
ENCODING 21089
SWIDTH 1000 0
DWIDTH 12 0
BBX 11 11 0 -2
BITMAP
1020
52A0
94A0
10A0
28A0
C6A0
10A0
52A0
9420
2820
C6E0
ENDCHAR
STARTCHAR $5262
ENCODING 21090
SWIDTH 1000 0
DWIDTH 12 0
BBX 11 11 0 -2
BITMAP
FE20
10A0
22A0
D4A0
58A0
68A0
CCA0
5AA0
2A20
C820
30E0
ENDCHAR
STARTCHAR $5263
ENCODING 21091
SWIDTH 1000 0
DWIDTH 12 0
BBX 11 11 0 -2
BITMAP
1020
28A0
44A0
BAA0
10A0
FEA0
92A0
FEA0
1020
2820
C6E0
ENDCHAR
STARTCHAR $5264
ENCODING 21092
SWIDTH 1000 0
DWIDTH 12 0
BBX 11 11 0 -2
BITMAP
1020
FEA0
28A0
10A0
28A0
C6A0
7CA0
44A0
7C20
4420
84E0
ENDCHAR
STARTCHAR $5265
ENCODING 21093
SWIDTH 1000 0
DWIDTH 12 0
BBX 11 11 0 -2
BITMAP
7C20
04A0
7CA0
04A0
FEA0
10A0
92A0
54A0
3820
5420
B2E0
ENDCHAR
STARTCHAR $5267
ENCODING 21095
SWIDTH 1000 0
DWIDTH 12 0
BBX 11 11 0 -2
BITMAP
7E20
42A0
42A0
7EA0
48A0
7EA0
48A0
7EA0
6220
A220
BEE0
ENDCHAR
STARTCHAR $5269-6
ENCODING 21097
SWIDTH 1000 0
DWIDTH 12 0
BBX 11 11 0 -2
BITMAP
0620
F8A0
10A0
FEA0
54A0
D6A0
54A0
D6A0
38A0
5420
9260
ENDCHAR
STARTCHAR $526A-6
ENCODING 21098
SWIDTH 1000 0
DWIDTH 12 0
BBX 11 11 0 -2
BITMAP
1100
FFE0
0000
FD20
A520
9520
8C60
0000
FFE0
0820
F1E0
ENDCHAR
STARTCHAR $526B
ENCODING 21099
SWIDTH 1000 0
DWIDTH 12 0
BBX 11 11 0 -2
BITMAP
0820
7EA0
54A0
7EA0
54A0
5CA0
40A0
5EA0
5220
4C20
B2E0
ENDCHAR
STARTCHAR $526C
ENCODING 21100
SWIDTH 1000 0
DWIDTH 12 0
BBX 11 11 0 -2
BITMAP
9220
92A0
FEA0
00A0
FEA0
10A0
FEA0
AAA0
AA20
AA20
86E0
ENDCHAR
STARTCHAR $526D
ENCODING 21101
SWIDTH 1000 0
DWIDTH 12 0
BBX 11 11 0 -2
BITMAP
7E20
42A0
7EA0
40A0
7EA0
54A0
7AA0
48A0
7E20
4820
BEE0
ENDCHAR
STARTCHAR $526E
ENCODING 21102
SWIDTH 1000 0
DWIDTH 12 0
BBX 11 11 0 -2
BITMAP
7C20
44A0
5CA0
54A0
54A0
FEA0
82A0
BAA0
AA20
BA20
86E0
ENDCHAR
STARTCHAR $526F
ENCODING 21103
SWIDTH 1000 0
DWIDTH 12 0
BBX 11 11 0 -2
BITMAP
FE20
00A0
7CA0
44A0
7CA0
00A0
FEA0
92A0
FE20
9220
FEE0
ENDCHAR
STARTCHAR $5270-6
ENCODING 21104
SWIDTH 1000 0
DWIDTH 12 0
BBX 11 11 0 -2
BITMAP
7C20
10A0
FEA0
54A0
FEA0
54A0
FEA0
54A0
54A0
9220
10E0
ENDCHAR
STARTCHAR $5271
ENCODING 21105
SWIDTH 1000 0
DWIDTH 12 0
BBX 11 11 0 -2
BITMAP
13E0
28A0
44A0
B8A0
12A0
FDA0
94E0
FCA0
1120
2920
C660
ENDCHAR
STARTCHAR $5272
ENCODING 21106
SWIDTH 1000 0
DWIDTH 12 0
BBX 11 11 0 -2
BITMAP
1020
FEA0
92A0
7CA0
10A0
7CA0
10A0
FEA0
4420
4420
7CE0
ENDCHAR
STARTCHAR $5273
ENCODING 21107
SWIDTH 1000 0
DWIDTH 12 0
BBX 11 11 0 -2
BITMAP
4420
FEA0
44A0
10A0
28A0
44A0
BAA0
00A0
7C20
4420
7CE0
ENDCHAR
STARTCHAR $5274
ENCODING 21108
SWIDTH 1000 0
DWIDTH 12 0
BBX 11 11 0 -2
BITMAP
9220
FEA0
00A0
FEA0
00A0
FEA0
82A0
FEA0
4420
2E20
F0E0
ENDCHAR
STARTCHAR $5275
ENCODING 21109
SWIDTH 1000 0
DWIDTH 12 0
BBX 11 11 0 -2
BITMAP
1820
24A0
FFA0
42A0
7EA0
42A0
7EA0
40A0
7E20
A220
BEE0
ENDCHAR
STARTCHAR $5277
ENCODING 21111
SWIDTH 1000 0
DWIDTH 12 0
BBX 11 11 0 -2
BITMAP
1020
FEA0
44A0
28A0
FEA0
A8A0
BEA0
C8A0
BE20
8820
BEE0
ENDCHAR
STARTCHAR $5278
ENCODING 21112
SWIDTH 1000 0
DWIDTH 12 0
BBX 11 11 0 -2
BITMAP
0820
FF20
4AA0
7EA0
4AA0
7EA0
0AA0
FFA0
44A0
2420
0C60
ENDCHAR
STARTCHAR $5279-456
ENCODING 21113
SWIDTH 1000 0
DWIDTH 12 0
BBX 11 11 0 -2
BITMAP
EE20
66A0
AAA0
66A0
AAA0
38A0
44A0
9AA0
6020
0C20
70E0
ENDCHAR
STARTCHAR $527B
ENCODING 21115
SWIDTH 1000 0
DWIDTH 12 0
BBX 11 11 0 -2
BITMAP
1020
92A0
FEA0
00A0
EEA0
AAA0
EEA0
AAA0
EE20
AA20
B6E0
ENDCHAR
STARTCHAR $527C
ENCODING 21116
SWIDTH 1000 0
DWIDTH 12 0
BBX 11 11 0 -2
BITMAP
2020
44A0
FAA0
44A0
AAA0
FEA0
48A0
94A0
6220
0C20
F0E0
ENDCHAR
STARTCHAR $527D
ENCODING 21117
SWIDTH 1000 0
DWIDTH 12 0
BBX 11 11 0 -2
BITMAP
FE20
28A0
FEA0
AAA0
FEA0
00A0
7CA0
00A0
FE20
5420
B2E0
ENDCHAR
STARTCHAR $527E
ENCODING 21118
SWIDTH 1000 0
DWIDTH 12 0
BBX 11 11 0 -2
BITMAP
FE20
80A0
BCA0
A4A0
BCA0
80A0
EEA0
AAA0
EE20
8020
FEE0
ENDCHAR
STARTCHAR $527F
ENCODING 21119
SWIDTH 1000 0
DWIDTH 12 0
BBX 11 11 0 -2
BITMAP
5420
A8A0
54A0
7CA0
54A0
7CA0
54A0
FEA0
3820
5420
92E0
ENDCHAR
STARTCHAR $5280
ENCODING 21120
SWIDTH 1000 0
DWIDTH 12 0
BBX 11 11 0 -2
BITMAP
7C20
08A0
FEA0
32A0
54A0
90A0
FEA0
AAA0
DE20
AA20
BAE0
ENDCHAR
STARTCHAR $5281
ENCODING 21121
SWIDTH 1000 0
DWIDTH 12 0
BBX 11 11 0 -2
BITMAP
2820
7EA0
C8A0
7EA0
48A0
7EA0
48A0
7EA0
0020
AA20
AAE0
ENDCHAR
STARTCHAR $5282-234
ENCODING 21122
SWIDTH 1000 0
DWIDTH 12 0
BBX 11 11 0 -2
BITMAP
FE20
88A0
DEA0
AAA0
F2A0
A4A0
A4A0
F4A0
AA20
4A20
5260
ENDCHAR
STARTCHAR $5283
ENCODING 21123
SWIDTH 1000 0
DWIDTH 12 0
BBX 11 11 0 -2
BITMAP
7E20
12A0
FFA0
12A0
7EA0
10A0
FFA0
52A0
7E20
5220
FF60
ENDCHAR
STARTCHAR $5284
ENCODING 21124
SWIDTH 1000 0
DWIDTH 12 0
BBX 11 11 0 -2
BITMAP
8820
EEA0
54A0
10A0
28A0
44A0
BAA0
00A0
7C20
4420
7CE0
ENDCHAR
STARTCHAR $5285
ENCODING 21125
SWIDTH 1000 0
DWIDTH 12 0
BBX 11 11 0 -2
BITMAP
FE20
AAA0
FEA0
40A0
7EA0
A2A0
FAA0
AAA0
FA20
2A20
F6E0
ENDCHAR
STARTCHAR $5286
ENCODING 21126
SWIDTH 1000 0
DWIDTH 12 0
BBX 11 11 0 -2
BITMAP
1020
FEA0
A4A0
FEA0
AAA0
FEA0
AAA0
FEA0
A820
EC20
AAE0
ENDCHAR
STARTCHAR $5287-6
ENCODING 21127
SWIDTH 1000 0
DWIDTH 12 0
BBX 11 11 0 -2
BITMAP
1E20
10A0
FEA0
92A0
BCA0
92A0
FEA0
90A0
AAA0
9C20
AA60
ENDCHAR
STARTCHAR $5288
ENCODING 21128
SWIDTH 1000 0
DWIDTH 12 0
BBX 11 11 0 -2
BITMAP
7880
4BE0
7940
47E0
7880
ABE0
3880
0000
7FE0
0820
F0E0
ENDCHAR
STARTCHAR $5289-6
ENCODING 21129
SWIDTH 1000 0
DWIDTH 12 0
BBX 11 11 0 -2
BITMAP
2020
DEA0
8AA0
AAA0
D6A0
38A0
C6A0
7CA0
92A0
5420
FEE0
ENDCHAR
STARTCHAR $528A
ENCODING 21130
SWIDTH 1000 0
DWIDTH 12 0
BBX 11 11 0 -2
BITMAP
3820
44A0
BAA0
00A0
FEA0
AAA0
FEA0
44A0
7C20
4420
7CE0
ENDCHAR
STARTCHAR $528B
ENCODING 21131
SWIDTH 1000 0
DWIDTH 12 0
BBX 11 11 0 -2
BITMAP
7C20
44A0
7CA0
EEA0
AAA0
EEA0
10A0
FEA0
3820
5420
92E0
ENDCHAR
STARTCHAR $528D
ENCODING 21133
SWIDTH 1000 0
DWIDTH 12 0
BBX 11 11 0 -2
BITMAP
1020
28A0
44A0
BAA0
00A0
EEA0
AAA0
EEA0
4420
4420
AAE0
ENDCHAR
STARTCHAR $528E
ENCODING 21134
SWIDTH 1000 0
DWIDTH 12 0
BBX 11 11 0 -2
BITMAP
13E0
28A0
44A0
BAA0
00A0
EEA0
AAA0
EEA0
4520
4520
AA60
ENDCHAR
STARTCHAR $528F
ENCODING 21135
SWIDTH 1000 0
DWIDTH 12 0
BBX 11 11 0 -2
BITMAP
9220
54A0
FEA0
82A0
7CA0
44A0
FEA0
92A0
FE20
9220
FEE0
ENDCHAR
STARTCHAR $5291
ENCODING 21137
SWIDTH 1000 0
DWIDTH 12 0
BBX 11 11 0 -2
BITMAP
1020
FEA0
28A0
D6A0
54A0
92A0
44A0
7CA0
4420
7C20
84E0
ENDCHAR
STARTCHAR $5292
ENCODING 21138
SWIDTH 1000 0
DWIDTH 12 0
BBX 11 11 0 -2
BITMAP
23E0
50A0
88A0
72A0
02A0
FAA0
ACA0
F8A0
5120
5120
AA60
ENDCHAR
STARTCHAR $5293-234
ENCODING 21139
SWIDTH 1000 0
DWIDTH 12 0
BBX 11 11 0 -2
BITMAP
2020
7CA0
44A0
7CA0
44A0
FEA0
92A0
FEA0
9220
FE20
4460
ENDCHAR
STARTCHAR $5294
ENCODING 21140
SWIDTH 1000 0
DWIDTH 12 0
BBX 11 11 0 -2
BITMAP
13E0
28A0
44A0
B8A0
02A0
FDA0
B4E0
FCA0
4920
4920
B660
ENDCHAR
STARTCHAR $5295
ENCODING 21141
SWIDTH 1000 0
DWIDTH 12 0
BBX 11 11 0 -2
BITMAP
7720
44A0
77A0
AAA0
AAA0
7EA0
42A0
7EA0
4220
7E20
C360
ENDCHAR
STARTCHAR $5296
ENCODING 21142
SWIDTH 1000 0
DWIDTH 12 0
BBX 11 11 0 -2
BITMAP
3820
48A0
FCA0
44A0
7CA0
4AA0
7EA0
D4A0
7C20
2A20
CEE0
ENDCHAR
STARTCHAR $5297
ENCODING 21143
SWIDTH 1000 0
DWIDTH 12 0
BBX 11 11 0 -2
BITMAP
5420
7720
AAA0
F7A0
5AA0
FFA0
42A0
7EA0
4220
7E20
C360
ENDCHAR
STARTCHAR $529A
ENCODING 21146
SWIDTH 1000 0
DWIDTH 12 0
BBX 11 11 0 -2
BITMAP
FE20
82A0
FEA0
A8A0
FCA0
D4A0
FEA0
AAA0
FA20
AA20
76E0
ENDCHAR
STARTCHAR $529B
ENCODING 21147
SWIDTH 1000 0
DWIDTH 12 0
BBX 11 11 0 -2
BITMAP
0400
0400
7FE0
0420
0420
0420
0820
0820
1020
2020
C1C0
ENDCHAR
STARTCHAR $529C
ENCODING 21148
SWIDTH 1000 0
DWIDTH 12 0
BBX 11 11 0 -2
BITMAP
2100
2100
FD00
2500
2500
2500
2500
2500
4520
4520
98E0
ENDCHAR
STARTCHAR $529D
ENCODING 21149
SWIDTH 1000 0
DWIDTH 12 0
BBX 11 11 0 -2
BITMAP
0200
F200
1FE0
9220
5220
5220
2220
2220
5420
5420
88C0
ENDCHAR
STARTCHAR $529E
ENCODING 21150
SWIDTH 1000 0
DWIDTH 12 0
BBX 11 11 0 -2
BITMAP
0800
0800
7F80
0880
48C0
48A0
88A0
1080
1080
2080
C300
ENDCHAR
STARTCHAR $529F
ENCODING 21151
SWIDTH 1000 0
DWIDTH 12 0
BBX 11 11 0 -2
BITMAP
0100
F100
2FE0
2120
2120
2120
2120
3220
C220
0420
18C0
ENDCHAR
STARTCHAR $52A0
ENCODING 21152
SWIDTH 1000 0
DWIDTH 12 0
BBX 11 11 0 -2
BITMAP
2000
21E0
FD20
2520
2520
2520
2520
2520
4520
45E0
9800
ENDCHAR
STARTCHAR $52A1
ENCODING 21153
SWIDTH 1000 0
DWIDTH 12 0
BBX 11 11 0 -2
BITMAP
1000
1F80
2080
D100
0E00
F1E0
0800
7FC0
0840
1040
E180
ENDCHAR
STARTCHAR $52A2
ENCODING 21154
SWIDTH 1000 0
DWIDTH 12 0
BBX 11 11 0 -2
BITMAP
F900
4100
47E0
4120
7920
4920
4920
4920
4A20
4A20
9CC0
ENDCHAR
STARTCHAR $52A3
ENCODING 21155
SWIDTH 1000 0
DWIDTH 12 0
BBX 11 11 0 -2
BITMAP
0400
2480
4440
8CA0
0300
1C00
E400
7FE0
0820
3020
C1C0
ENDCHAR
STARTCHAR $52A4
ENCODING 21156
SWIDTH 1000 0
DWIDTH 12 0
BBX 11 11 0 -2
BITMAP
0C80
7080
43E0
40A0
7CA0
48A0
48A0
48A0
4920
4920
8A60
ENDCHAR
STARTCHAR $52A5-456
ENCODING 21157
SWIDTH 1000 0
DWIDTH 12 0
BBX 11 11 0 -2
BITMAP
2100
2100
FBE0
0120
7120
5120
5120
5520
5520
5A20
84C0
ENDCHAR
STARTCHAR $52A8
ENCODING 21160
SWIDTH 1000 0
DWIDTH 12 0
BBX 11 11 0 -2
BITMAP
0100
7900
07E0
0120
F920
2120
4120
4920
9A20
EA20
04C0
ENDCHAR
STARTCHAR $52A9
ENCODING 21161
SWIDTH 1000 0
DWIDTH 12 0
BBX 11 11 0 -2
BITMAP
7900
4900
4FE0
7920
4920
4920
7920
4920
4E20
F220
04C0
ENDCHAR
STARTCHAR $52AA
ENCODING 21162
SWIDTH 1000 0
DWIDTH 12 0
BBX 11 11 0 -2
BITMAP
2000
FBE0
4A20
4940
3080
CB60
0400
FFE0
0820
3020
C1C0
ENDCHAR
STARTCHAR $52AB
ENCODING 21163
SWIDTH 1000 0
DWIDTH 12 0
BBX 11 11 0 -2
BITMAP
2100
2100
FBE0
2120
2120
FD20
2120
4920
4A20
9A20
E4C0
ENDCHAR
STARTCHAR $52AC
ENCODING 21164
SWIDTH 1000 0
DWIDTH 12 0
BBX 11 11 0 -2
BITMAP
4080
7C80
47E0
84A0
74A0
54A0
54A0
54A0
7520
0520
1A60
ENDCHAR
STARTCHAR $52AD
ENCODING 21165
SWIDTH 1000 0
DWIDTH 12 0
BBX 11 11 0 -2
BITMAP
F900
4900
4FE0
4920
9920
0120
F920
8920
8A20
8A20
FCC0
ENDCHAR
STARTCHAR $52AF
ENCODING 21167
SWIDTH 1000 0
DWIDTH 12 0
BBX 11 11 0 -2
BITMAP
F100
2100
27E0
4120
7120
D120
5120
5220
5220
7420
08C0
ENDCHAR
STARTCHAR $52B0
ENCODING 21168
SWIDTH 1000 0
DWIDTH 12 0
BBX 11 11 0 -2
BITMAP
2100
4100
F7E0
9120
9120
F120
9120
9220
9220
F420
08C0
ENDCHAR
STARTCHAR $52B1
ENCODING 21169
SWIDTH 1000 0
DWIDTH 12 0
BBX 11 11 0 -2
BITMAP
FD00
8100
FBE0
A120
A120
BD20
A520
A520
A520
A620
4CC0
ENDCHAR
STARTCHAR $52B2
ENCODING 21170
SWIDTH 1000 0
DWIDTH 12 0
BBX 11 11 0 -2
BITMAP
F900
0900
17E0
2120
D920
0120
F920
2120
2220
3A20
C4C0
ENDCHAR
STARTCHAR $52B3
ENCODING 21171
SWIDTH 1000 0
DWIDTH 12 0
BBX 11 11 0 -2
BITMAP
1100
FFE0
1100
FFE0
8020
0800
7FC0
0840
0840
1040
6180
ENDCHAR
STARTCHAR $52B4
ENCODING 21172
SWIDTH 1000 0
DWIDTH 12 0
BBX 11 11 0 -2
BITMAP
4840
2480
FFE0
8020
8820
0800
7FC0
0840
0840
1040
6180
ENDCHAR
STARTCHAR $52B5-6
ENCODING 21173
SWIDTH 1000 0
DWIDTH 12 0
BBX 11 11 0 -2
BITMAP
2480
C460
3F80
1100
FFE0
2080
4840
BFA0
0880
1080
6380
ENDCHAR
STARTCHAR $52B6
ENCODING 21174
SWIDTH 1000 0
DWIDTH 12 0
BBX 11 11 0 -2
BITMAP
0D00
F100
83E0
8120
FD20
8120
BD20
A520
A520
A620
BCC0
ENDCHAR
STARTCHAR $52B8
ENCODING 21176
SWIDTH 1000 0
DWIDTH 12 0
BBX 11 11 0 -2
BITMAP
2100
F900
27E0
2120
F920
0120
2120
F920
2220
3A20
C4C0
ENDCHAR
STARTCHAR $52B9
ENCODING 21177
SWIDTH 1000 0
DWIDTH 12 0
BBX 11 11 0 -2
BITMAP
1100
FD00
03E0
4920
8520
4920
4920
2920
1220
2A20
C4C0
ENDCHAR
STARTCHAR $52BB
ENCODING 21179
SWIDTH 1000 0
DWIDTH 12 0
BBX 11 11 0 -2
BITMAP
FC80
8080
FDE0
90A0
90A0
FCA0
90A0
90A0
FD20
8120
FE60
ENDCHAR
STARTCHAR $52BC
ENCODING 21180
SWIDTH 1000 0
DWIDTH 12 0
BBX 11 11 0 -2
BITMAP
2100
2100
FFE0
2120
2120
F920
0120
F920
8A20
8A20
FCC0
ENDCHAR
STARTCHAR $52BD
ENCODING 21181
SWIDTH 1000 0
DWIDTH 12 0
BBX 11 11 0 -2
BITMAP
FC20
2120
7D20
C520
2920
1060
6400
FFE0
0820
3020
C1C0
ENDCHAR
STARTCHAR $52BE-456
ENCODING 21182
SWIDTH 1000 0
DWIDTH 12 0
BBX 11 11 0 -2
BITMAP
1080
FC80
23E0
44A0
88A0
50A0
22A0
C4A0
0920
3520
C260
ENDCHAR
STARTCHAR $52BF-234
ENCODING 21183
SWIDTH 1000 0
DWIDTH 12 0
BBX 11 11 0 -2
BITMAP
2100
FBC0
2140
3540
E240
2520
4420
FFC0
0840
1040
6180
ENDCHAR
STARTCHAR $52C0
ENCODING 21184
SWIDTH 1000 0
DWIDTH 12 0
BBX 11 11 0 -2
BITMAP
2100
F900
27E0
F920
8920
8920
F920
5120
5520
5A20
94C0
ENDCHAR
STARTCHAR $52C1
ENCODING 21185
SWIDTH 1000 0
DWIDTH 12 0
BBX 11 11 0 -2
BITMAP
FD00
5500
ABE0
A920
5520
0120
F920
2120
2220
3A20
C4C0
ENDCHAR
STARTCHAR $52C3
ENCODING 21187
SWIDTH 1000 0
DWIDTH 12 0
BBX 11 11 0 -2
BITMAP
1080
FE80
11E0
FEA0
82A0
7CA0
08A0
1EA0
F120
1120
3260
ENDCHAR
STARTCHAR $52C4
ENCODING 21188
SWIDTH 1000 0
DWIDTH 12 0
BBX 11 11 0 -2
BITMAP
4080
7E80
81E0
7CA0
54A0
4CA0
FEA0
54A0
4D20
7D20
0660
ENDCHAR
STARTCHAR $52C5
ENCODING 21189
SWIDTH 1000 0
DWIDTH 12 0
BBX 11 11 0 -2
BITMAP
1080
FC80
13E0
FCA0
94A0
94A0
FCA0
38A0
5520
9120
1260
ENDCHAR
STARTCHAR $52C7
ENCODING 21191
SWIDTH 1000 0
DWIDTH 12 0
BBX 11 11 0 -2
BITMAP
7F80
0900
7FC0
4440
7FC0
4440
4440
FFE0
0820
3020
C1C0
ENDCHAR
STARTCHAR $52C8
ENCODING 21192
SWIDTH 1000 0
DWIDTH 12 0
BBX 11 11 0 -2
BITMAP
F900
5100
23E0
FD20
A520
FD20
A520
FD20
A520
A620
ACC0
ENDCHAR
STARTCHAR $52C9
ENCODING 21193
SWIDTH 1000 0
DWIDTH 12 0
BBX 11 11 0 -2
BITMAP
2080
3880
4BE0
FCA0
54A0
54A0
7D20
2920
2A60
4800
8FE0
ENDCHAR
STARTCHAR $52CA
ENCODING 21194
SWIDTH 1000 0
DWIDTH 12 0
BBX 11 11 0 -2
BITMAP
2100
F900
27C0
F940
8940
8940
FA40
5240
54C0
5020
9FE0
ENDCHAR
STARTCHAR $52CB
ENCODING 21195
SWIDTH 1000 0
DWIDTH 12 0
BBX 11 11 0 -2
BITMAP
F900
8900
FBE0
0120
F920
8920
A920
A920
2220
5220
8CC0
ENDCHAR
STARTCHAR $52CC-456
ENCODING 21196
SWIDTH 1000 0
DWIDTH 12 0
BBX 11 11 0 -2
BITMAP
5480
9280
FE80
29E0
FEA0
44A0
FAA0
48A0
5920
4520
3E60
ENDCHAR
STARTCHAR $52CD
ENCODING 21197
SWIDTH 1000 0
DWIDTH 12 0
BBX 11 11 0 -2
BITMAP
1100
FD00
03E0
7D20
4520
4520
7D20
1120
5520
9220
34C0
ENDCHAR
STARTCHAR $52CF
ENCODING 21199
SWIDTH 1000 0
DWIDTH 12 0
BBX 11 11 0 -2
BITMAP
2100
F900
07E0
8920
5120
FD20
0120
F920
8A20
8A20
FCC0
ENDCHAR
STARTCHAR $52D0
ENCODING 21200
SWIDTH 1000 0
DWIDTH 12 0
BBX 11 11 0 -2
BITMAP
7C80
0880
13E0
FCA0
10A0
30A0
00A0
7CA0
5520
5520
FE60
ENDCHAR
ENDFONT
